<svg width="160" height="58" viewBox="0 0 160 58" fill="none" xmlns="http://www.w3.org/2000/svg">
<rect width="160" height="58" rx="14" fill="#99C08E"/>
<path d="M31.3065 35.8C31.0005 35.764 29.9745 35.71 28.2285 35.638C26.4645 35.566 25.4205 35.494 25.0785 35.458C24.9705 35.458 24.7905 35.458 24.5745 35.476C24.3405 35.494 24.1605 35.494 24.0525 35.476C23.9625 35.476 23.8725 35.44 23.7645 35.368C23.6565 35.314 23.6025 35.26 23.6025 35.188C23.4945 34.63 23.4225 33.946 23.3685 33.118C23.3505 33.082 23.3685 33.028 23.4405 32.956C23.5125 32.884 23.5665 32.848 23.6205 32.83C24.0165 32.758 24.7185 32.65 25.7265 32.542C26.7165 32.434 27.7785 32.344 28.8945 32.236C30.0105 32.146 30.7125 32.074 31.0005 32.038C31.5765 31.984 32.7285 31.93 34.4565 31.894C36.1845 31.858 37.1025 31.84 37.2465 31.84C37.3545 31.84 37.5345 31.822 37.7685 31.804C38.0025 31.786 38.1825 31.768 38.2905 31.768C38.3985 31.768 38.5785 31.768 38.8125 31.768C39.3885 31.822 39.6045 32.128 39.4605 32.704C39.2625 33.388 39.0465 34.108 38.7945 34.864C38.7405 35.026 38.6145 35.152 38.3985 35.224C38.1105 35.332 37.8045 35.404 37.4985 35.422C37.0305 35.476 36.0045 35.548 34.4385 35.62C32.8545 35.692 31.8105 35.764 31.3065 35.8ZM29.5965 22.354C31.0545 22.246 31.8645 22.192 32.0445 22.174C32.3505 22.174 32.6925 22.282 33.0525 22.48C33.1245 22.534 33.1965 22.624 33.2685 22.75C33.3225 22.876 33.3585 22.984 33.3585 23.074C33.3405 23.902 33.4485 24.64 33.6645 25.288C33.7545 25.612 33.9525 25.792 34.2405 25.864C35.0685 26.098 36.1305 26.404 37.3905 26.8C37.6065 26.872 37.7505 26.962 37.8405 27.07C37.9125 27.178 37.9125 27.34 37.8225 27.556C37.7505 27.7 37.6965 27.916 37.6605 28.204C37.6065 28.492 37.5705 28.654 37.5525 28.726C37.4445 29.158 37.2285 29.446 36.9405 29.626C36.6345 29.806 36.2385 29.932 35.7705 30.004C35.6985 30.022 35.4645 30.058 35.1045 30.13C34.7445 30.202 34.4565 30.238 34.2765 30.238C33.9885 30.238 33.7185 30.13 33.4305 29.878C33.0885 29.608 32.7825 29.284 32.5125 28.888C32.0985 28.312 31.5945 27.898 30.9825 27.628C30.7305 27.52 30.4605 27.52 30.1365 27.664C29.5245 27.952 28.7685 28.33 27.9045 28.798C27.8685 28.834 27.8145 28.852 27.7605 28.87C27.5085 29.014 27.3105 29.122 27.1665 29.194C27.0225 29.266 26.8245 29.338 26.5905 29.392C26.3385 29.464 26.1225 29.482 25.9065 29.446C25.6365 29.446 25.4565 29.392 25.3665 29.302C25.2585 29.23 25.2045 29.05 25.1685 28.798C25.1325 28.564 25.0785 28.33 25.0065 28.096C24.7185 27.214 24.9885 26.548 25.8345 26.116C27.9225 25.072 29.0025 24.532 29.0925 24.496C29.3085 24.388 29.4705 24.244 29.5425 24.064C29.6145 23.884 29.6685 23.668 29.6865 23.38C29.6865 23.344 29.6505 23.002 29.5965 22.354ZM57.0825 21.238C57.0825 21.256 57.0825 21.274 57.1185 21.274C57.1545 21.31 57.2265 21.328 57.3345 21.364C57.4425 21.4 57.5325 21.418 57.6045 21.454C57.6765 21.49 57.7125 21.526 57.7305 21.562C57.8205 21.904 57.8565 22.3 57.8385 22.732C57.8205 22.876 57.7305 23.83 57.5865 25.594C57.4605 26.926 57.3525 28.258 57.2445 29.59C57.1185 30.886 57.0465 31.66 57.0465 31.912C57.0105 32.128 56.9925 32.416 56.9745 32.794C56.9565 33.172 56.9385 33.514 56.9205 33.82C56.8845 34.126 56.8665 34.414 56.8305 34.684C56.7945 34.936 56.6145 35.296 56.3265 35.782C56.2545 35.908 56.0925 35.962 55.8405 35.962C55.7865 35.98 55.2645 35.98 54.2565 35.98C54.0765 35.98 53.9325 35.944 53.8245 35.836C53.7165 35.728 53.6445 35.602 53.6445 35.422L53.5185 33.532C53.5185 33.496 53.5005 33.37 53.4825 33.154C53.4465 32.938 53.4465 32.776 53.4645 32.668C53.5005 32.146 53.5725 31.624 53.6805 31.102C53.7345 30.76 53.7165 30.526 53.6085 30.418C53.5005 30.31 53.2845 30.292 52.9605 30.364C52.4565 30.472 52.0425 30.346 51.7185 30.022C51.3765 29.698 51.2505 29.302 51.3405 28.798C51.4125 28.33 51.6105 27.952 51.9345 27.664C52.2405 27.394 52.6365 27.232 53.1405 27.196C53.3745 27.196 53.5905 27.106 53.7705 26.944C53.9505 26.782 54.0585 26.584 54.0765 26.368C54.0945 26.008 54.1305 25.45 54.2025 24.658C54.2565 23.884 54.2925 23.29 54.3285 22.876C54.3465 22.696 54.4005 22.372 54.5085 21.94C54.5985 21.544 54.8505 21.364 55.2645 21.364C55.7325 21.382 56.1825 21.382 56.5965 21.382C56.5965 21.382 56.7585 21.346 57.0825 21.238ZM44.8965 31.462H48.3525H49.6485C49.9365 31.444 50.1705 31.606 50.3325 31.948C50.6205 32.668 50.6025 33.316 50.2425 33.892C50.0625 34.18 49.7025 34.36 49.1265 34.45C47.4345 34.72 46.2465 34.846 45.5625 34.846C45.5265 34.846 45.3645 34.864 45.0765 34.864C44.7885 34.864 44.6265 34.864 44.5545 34.864C44.4825 34.864 44.3385 34.846 44.1045 34.846C43.8705 34.846 43.6905 34.828 43.5825 34.81C43.4745 34.81 43.3125 34.792 43.1325 34.756C42.9345 34.738 42.7545 34.702 42.6105 34.666C42.4485 34.63 42.2865 34.594 42.1425 34.522C41.8365 34.432 41.6025 34.198 41.4225 33.838C41.2425 33.478 41.1885 33.082 41.2605 32.686C41.3505 32.182 41.4045 31.678 41.4405 31.174C41.4585 30.616 41.4945 29.806 41.5305 28.726C41.5665 27.646 41.5845 26.854 41.6205 26.35C41.6745 25.126 41.7465 24.334 41.8185 23.956C41.8545 23.686 42.0705 23.218 42.4485 22.57C42.4485 22.552 42.4845 22.534 42.5385 22.534C42.5925 22.534 42.6645 22.534 42.7545 22.534C42.8445 22.534 42.8985 22.534 42.9345 22.534C43.8705 22.498 44.4465 22.462 44.6445 22.444C46.1565 22.39 47.0565 22.354 47.3445 22.354C47.9385 22.354 48.6945 22.39 49.6305 22.462C49.8285 22.48 49.9905 22.57 50.0985 22.732C50.4225 23.236 50.5125 23.758 50.3685 24.298C50.2245 24.838 49.8825 25.18 49.3425 25.342C49.0725 25.432 48.8025 25.504 48.5145 25.576C48.2265 25.648 47.8845 25.72 47.4705 25.792C47.0385 25.882 46.7685 25.936 46.6425 25.972C46.4985 26.008 46.2465 26.044 45.8685 26.116C45.4905 26.188 45.2025 26.26 45.0045 26.296C44.6805 26.386 44.5725 26.62 44.6445 26.998C44.7165 27.43 44.8065 27.682 44.8785 27.754C44.9505 27.826 45.1845 27.862 45.5625 27.826C45.7605 27.826 47.0025 27.718 49.2885 27.52H49.3425H49.4145C49.4865 27.538 49.5945 27.538 49.7745 27.52C49.9545 27.502 50.0985 27.52 50.2065 27.556C50.3145 27.592 50.3865 27.7 50.4225 27.844C50.6385 28.744 50.5845 29.374 50.2785 29.716C50.0085 30.004 49.5405 30.202 48.8745 30.292C48.5865 30.346 48.1725 30.382 47.6325 30.4C47.0925 30.418 46.7145 30.436 46.5345 30.436C46.4985 30.436 46.4085 30.454 46.2285 30.454C46.0485 30.472 45.9405 30.49 45.8865 30.49C45.8325 30.508 45.7425 30.526 45.6165 30.562C45.4905 30.598 45.3825 30.634 45.2925 30.688C45.2025 30.742 45.1125 30.814 45.0405 30.886C45.0225 30.904 44.9505 31.03 44.8065 31.246C44.8425 31.336 44.8605 31.408 44.8965 31.462ZM70.8885 20.536C71.5725 20.5 71.9505 20.482 71.9865 20.482C72.3825 20.5 72.7605 20.536 73.1565 20.59C73.5525 20.644 73.8945 20.68 74.2005 20.698C74.5425 20.734 74.7225 20.932 74.7405 21.274C74.7405 21.706 74.7765 22.372 74.8305 23.254C74.8845 24.154 74.9205 24.82 74.9385 25.27C74.9565 25.612 74.9565 26.224 74.9565 27.088C74.9565 27.97 74.9565 28.582 74.9565 28.906C74.9565 29.392 74.9565 30.382 74.9565 31.894C74.9565 33.406 74.9565 34.414 74.9565 34.9V34.936C74.9565 35.188 74.9205 35.44 74.8485 35.656C74.6865 36.106 74.3985 36.322 73.9845 36.304C73.7865 36.304 73.5525 36.322 73.3005 36.322C73.0485 36.322 72.8325 36.322 72.6525 36.286C72.5085 36.286 72.3465 36.232 72.2025 36.142C72.0405 36.07 71.9325 35.962 71.8965 35.854C71.5365 34.99 71.3565 34.324 71.3385 33.856C71.2845 32.812 71.2485 31.03 71.2305 28.546C71.2125 26.062 71.1945 24.37 71.1585 23.452C71.1585 23.164 71.1405 22.876 71.1045 22.552C71.0685 22.228 71.0325 21.868 70.9965 21.454L70.8885 20.536ZM59.8545 22.606C62.2305 22.714 63.5445 22.75 63.7605 22.75C63.9585 22.768 64.3365 22.804 64.8765 22.84C65.4165 22.876 65.8485 22.912 66.1365 22.912C66.6045 22.93 67.1985 22.894 67.9365 22.822C68.2965 22.786 68.6025 22.876 68.8185 23.056C69.0345 23.236 69.1605 23.452 69.2325 23.704C69.2865 23.956 69.3045 24.226 69.2685 24.514C69.2505 24.622 69.2145 24.784 69.1425 24.982C69.0705 25.18 69.0345 25.324 69.0345 25.414C68.9985 25.81 68.7645 26.008 68.3685 26.008C67.4325 26.044 66.6945 26.044 66.1905 26.026C65.9205 26.026 65.0205 25.99 63.4905 25.9L63.1665 25.864C62.7885 25.792 62.5545 25.918 62.4465 26.206C62.3205 26.512 62.2665 26.692 62.2665 26.764C62.2665 28.744 62.3025 30.166 62.3385 31.048C62.3385 31.102 62.3745 31.156 62.4465 31.21C62.5185 31.282 62.5725 31.3 62.6265 31.3C62.8065 31.336 63.0765 31.354 63.4365 31.372C63.7965 31.39 64.0305 31.408 64.1565 31.408C66.1725 31.57 67.5945 31.696 68.4405 31.768C68.4945 31.768 68.5665 31.84 68.6385 31.948C68.7105 32.074 68.7645 32.182 68.7645 32.254C68.7285 32.902 68.6745 33.316 68.6025 33.496C68.5305 33.676 68.2605 34 67.8105 34.504C67.7025 34.612 67.5585 34.684 67.4145 34.684C67.2525 34.702 66.8385 34.72 66.1905 34.756C65.5425 34.792 65.0385 34.846 64.6965 34.882C63.5085 35.044 62.1765 34.918 60.7005 34.522C60.4125 34.45 60.1785 34.324 59.9985 34.162C59.8185 34 59.7105 33.748 59.6385 33.424C59.4945 32.848 59.3865 32.182 59.3505 31.462C59.3145 30.742 59.2965 30.094 59.3145 29.5C59.3325 28.924 59.3325 28.276 59.3145 27.556C59.2785 26.404 59.3865 25.216 59.6565 24.028C59.6565 23.992 59.7285 23.506 59.8545 22.606ZM85.7275 21.274C85.9075 21.274 86.2855 21.274 86.8435 21.31C87.3835 21.346 87.7795 21.346 88.0135 21.328C88.1215 21.328 88.3015 21.328 88.5355 21.328C88.7515 21.346 88.9315 21.346 89.0395 21.328C90.4255 21.256 91.6315 21.31 92.6575 21.526C93.4495 21.706 93.7915 22.228 93.7195 23.092C93.6835 23.398 93.6475 24.046 93.6115 25.018C93.5755 25.558 93.5575 25.99 93.5395 26.314C93.5035 26.638 93.4495 27.016 93.3595 27.484C93.2695 27.952 93.1435 28.348 92.9995 28.708C92.8735 29.014 92.7115 29.23 92.4955 29.356C91.9555 29.698 91.4695 29.932 91.0555 30.058C90.8935 30.094 90.7855 30.094 90.7135 30.094C90.6415 30.094 90.5155 30.094 90.3355 30.076C90.1555 30.058 90.0475 30.04 89.9755 30.04C88.3555 29.986 87.4375 29.95 87.2395 29.932C86.8795 29.914 86.5195 29.734 86.1955 29.374C85.8535 29.014 85.6555 28.654 85.6195 28.294C85.5475 27.826 85.5295 27.304 85.5295 26.728C85.5295 26.152 85.5475 25.72 85.5835 25.396C85.6015 25.09 85.6375 24.568 85.7095 23.83C85.7275 23.578 85.7455 23.326 85.7455 23.038C85.7455 22.768 85.7275 22.444 85.7275 22.084C85.7275 21.724 85.7275 21.454 85.7275 21.274ZM88.1935 23.812V26.17C88.1935 26.458 88.2475 26.656 88.3375 26.728C88.4275 26.818 88.6255 26.872 88.9315 26.872C89.0035 26.872 89.1475 26.89 89.3275 26.89C89.5075 26.89 89.6335 26.89 89.7415 26.89C89.9575 26.89 90.1735 26.836 90.3535 26.692C90.5335 26.548 90.6235 26.386 90.6415 26.17C90.6775 25.144 90.5695 24.298 90.2995 23.632L88.1935 23.812ZM99.0835 26.8V29.122C99.0835 29.32 99.0475 29.68 99.0115 30.184C98.9755 30.472 98.7955 30.634 98.5075 30.634C97.8595 30.652 97.3195 30.652 96.8515 30.616C96.5815 30.616 96.3475 30.508 96.1675 30.328C95.9875 30.148 95.8795 29.932 95.8795 29.68C95.8615 28.636 95.8615 27.34 95.8795 25.792C95.8795 25.702 95.8795 25 95.9155 23.686C95.9335 22.39 95.9515 21.58 95.9695 21.292C95.9695 20.932 96.0955 20.698 96.3475 20.554C96.4015 20.518 96.5095 20.464 96.6715 20.374C96.8335 20.302 96.9595 20.23 97.0495 20.194C97.1215 20.158 97.2295 20.122 97.3735 20.068C97.5175 20.014 97.6435 19.978 97.7695 19.96C97.8955 19.942 98.0215 19.942 98.1655 19.942C98.3815 19.96 98.5435 19.978 98.6515 20.014C98.9035 20.122 99.0295 20.302 99.0295 20.572C99.0295 20.806 99.0295 21.4 99.0655 22.372C99.1015 23.344 99.1195 23.92 99.1555 24.1C99.1735 24.244 99.2815 24.334 99.4975 24.352C100.362 24.424 100.848 24.46 100.956 24.478C101.208 24.55 101.37 24.748 101.406 25.108C101.46 25.648 101.37 26.134 101.118 26.548C101.046 26.674 100.83 26.764 100.506 26.8H99.0835ZM91.6855 33.424C94.1335 33.28 95.5195 33.208 95.8255 33.172C96.1315 33.154 96.4915 33.118 96.9235 33.082C97.3555 33.046 97.7155 33.01 98.0035 32.974C98.2915 32.938 98.5435 32.92 98.7235 32.92C98.9575 32.92 99.1375 33.226 99.2455 33.802C99.2635 33.928 99.2815 34.18 99.2815 34.54C99.2815 34.954 99.1735 35.368 98.9575 35.8C98.8855 35.926 98.7235 36.016 98.4715 36.052C98.2195 36.088 97.3735 36.142 95.9335 36.214C94.4935 36.286 93.6475 36.34 93.3775 36.376C93.3055 36.394 93.2515 36.394 93.1795 36.394C92.8735 36.394 92.2255 36.412 91.2355 36.43C90.2455 36.448 89.5255 36.466 89.0755 36.484C88.9675 36.484 88.7695 36.502 88.5175 36.52C88.2655 36.538 88.0675 36.538 87.9415 36.538C87.5275 36.538 87.1855 36.466 86.9335 36.304C86.8435 36.268 86.7715 36.178 86.6995 36.07C86.6275 35.962 86.6095 35.872 86.6095 35.764C86.5555 35.242 86.5195 34.504 86.4835 33.532C86.4475 32.56 86.4115 31.894 86.3935 31.516L86.3755 31.264C86.3755 31.084 86.3755 30.922 86.3755 30.742L86.3575 30.49C86.3935 30.49 86.4835 30.472 86.6455 30.436C86.8075 30.4 86.9155 30.364 86.9695 30.346C87.0955 30.328 87.3835 30.31 87.8335 30.31C88.3555 30.31 88.6795 30.346 88.8235 30.382C88.9675 30.436 89.0395 30.526 89.0395 30.652C89.0395 30.706 89.0575 30.832 89.0935 31.012C89.1295 31.192 89.1655 31.318 89.1655 31.372C89.1655 31.57 89.2015 31.93 89.3095 32.47C89.3095 32.542 89.3275 32.704 89.3635 32.938C89.3815 33.172 89.4175 33.37 89.4715 33.55L91.6855 33.424ZM111.054 29.464C109.578 29.536 108.786 29.554 108.642 29.554C105.726 29.554 104.088 29.518 103.692 29.41C103.332 29.32 103.134 29.14 103.08 28.888C103.026 28.636 103.062 28.258 103.206 27.754C103.26 27.682 103.296 27.592 103.314 27.466C103.332 27.34 103.386 27.232 103.476 27.16C103.512 27.124 103.602 27.088 103.728 27.088H106.752H109.776C109.866 27.088 110.1 27.106 110.496 27.142C110.892 27.178 111.108 27.214 111.162 27.214C111.27 27.214 112.26 27.232 114.096 27.268C115.932 27.304 116.994 27.322 117.282 27.358C117.336 27.358 117.408 27.412 117.48 27.484C117.552 27.556 117.606 27.628 117.624 27.682C117.696 28.15 117.696 28.51 117.624 28.762C117.516 29.158 117.174 29.374 116.598 29.41C116.418 29.428 115.482 29.446 113.808 29.446C112.116 29.464 111.198 29.482 111.054 29.482V29.464ZM107.49 23.92C109.506 23.812 110.586 23.74 110.73 23.722L112.674 23.596L114.816 23.506L116.058 23.65C116.076 23.668 116.112 23.686 116.148 23.686C116.184 23.704 116.238 23.74 116.328 23.776C116.418 23.83 116.49 23.884 116.562 23.938C116.616 23.992 116.67 24.064 116.706 24.154C116.742 24.244 116.76 24.334 116.742 24.424C116.706 24.604 116.652 24.802 116.58 24.982C116.508 25.162 116.436 25.378 116.346 25.612C116.238 25.864 116.184 26.026 116.148 26.116C113.142 26.188 111.54 26.206 111.324 26.188C111.216 26.188 109.542 26.134 106.266 26.026H105.834H105.402C104.97 26.026 104.7 25.972 104.592 25.864C104.466 25.756 104.412 25.54 104.448 25.234C104.448 25.054 104.484 24.766 104.574 24.406C104.646 24.046 104.7 23.848 104.7 23.794C104.718 23.668 104.754 23.47 104.79 23.218C104.826 22.966 104.844 22.768 104.88 22.642L105.168 21.076L107.076 20.266C108.696 20.338 109.938 20.284 110.766 20.086C110.874 20.05 110.982 20.032 111.108 20.014C111.234 20.014 111.378 20.014 111.54 20.014C111.684 20.014 111.81 20.032 111.918 20.032C112.008 20.032 112.152 20.05 112.35 20.068C112.548 20.086 112.674 20.104 112.746 20.104C113.142 20.14 113.7 20.212 114.456 20.284C115.194 20.374 115.734 20.428 116.058 20.446C116.31 20.482 116.49 20.536 116.598 20.608C116.706 20.68 116.742 20.806 116.706 20.986L116.508 22.102C116.112 22.498 115.734 22.678 115.374 22.678C115.014 22.696 114.492 22.696 113.808 22.696C113.124 22.696 112.638 22.678 112.35 22.678C111.342 22.678 110.442 22.696 109.668 22.732C109.506 22.75 109.254 22.786 108.93 22.822C108.588 22.858 108.336 22.876 108.156 22.876C107.94 22.894 107.796 22.93 107.706 22.984C107.598 23.038 107.562 23.128 107.562 23.254C107.544 23.29 107.526 23.524 107.49 23.92ZM105.834 32.578C105.798 32.578 105.708 32.596 105.564 32.596C105.42 32.614 105.312 32.614 105.258 32.614C105.186 32.614 105.114 32.614 105.006 32.596C104.898 32.578 104.808 32.542 104.772 32.506C104.718 32.47 104.664 32.398 104.61 32.326C104.556 32.254 104.52 32.146 104.52 32.02C104.502 31.948 104.484 31.84 104.448 31.66C104.412 31.48 104.394 31.336 104.394 31.21C104.394 31.048 104.412 30.886 104.466 30.706C104.466 30.634 104.52 30.562 104.628 30.49C104.736 30.418 104.844 30.364 104.97 30.364C109.83 30.364 113.214 30.4 115.158 30.508C115.554 30.544 115.86 30.58 116.094 30.652C116.364 30.742 116.526 30.868 116.58 31.012C116.634 31.228 116.67 31.462 116.67 31.696C116.67 31.966 116.616 32.29 116.544 32.668C116.4 33.298 116.04 33.748 115.446 34C115.122 34.144 114.528 34.252 113.682 34.324C113.376 34.36 112.944 34.378 112.368 34.378C111.792 34.396 111.396 34.414 111.162 34.414C111.126 34.414 110.478 34.432 109.236 34.45C107.976 34.468 107.292 34.486 107.166 34.522L107.184 34.954C107.4 34.954 108.21 34.954 109.614 34.936C111.018 34.918 111.846 34.9 112.062 34.9C112.548 34.9 112.98 34.9 113.358 34.882C113.61 34.882 114.006 34.864 114.528 34.828C115.032 34.792 115.41 34.774 115.662 34.774H115.698C116.022 34.774 116.202 34.882 116.202 35.098V35.188C116.094 35.692 116.004 36.088 115.932 36.34C115.842 36.592 115.698 36.772 115.5 36.88C115.302 36.988 114.978 37.024 114.51 37.024H114.294C113.826 37.024 113.16 36.988 112.314 36.934C111.468 36.88 110.874 36.844 110.532 36.826C109.992 36.808 109.524 36.808 109.11 36.826C108.696 36.844 108.228 36.844 107.724 36.826C107.22 36.808 106.77 36.754 106.374 36.682C105.834 36.574 105.456 36.394 105.24 36.142C105.024 35.89 104.898 35.566 104.826 35.134C104.808 35.062 104.808 34.864 104.808 34.558C104.808 34.54 104.808 34.414 104.826 34.18C104.826 33.838 104.934 33.604 105.114 33.46C105.294 33.334 105.6 33.262 106.068 33.244C107.796 33.208 110.082 33.136 112.944 33.028C113.304 33.028 113.484 32.902 113.484 32.686L113.466 32.596C113.466 32.542 113.466 32.488 113.466 32.434V32.326C113.466 32.308 113.376 32.29 113.196 32.29C113.016 32.29 112.692 32.29 112.224 32.308C111.756 32.326 111.27 32.344 110.748 32.362C110.226 32.398 109.488 32.434 108.552 32.47C107.616 32.506 106.698 32.542 105.834 32.578ZM132.096 20.536C132.78 20.5 133.158 20.482 133.194 20.482C133.59 20.5 133.968 20.536 134.364 20.59C134.76 20.644 135.102 20.68 135.408 20.698C135.75 20.734 135.93 20.932 135.948 21.274C135.948 21.706 135.984 22.372 136.038 23.254C136.092 24.154 136.128 24.82 136.146 25.27C136.164 25.612 136.164 26.224 136.164 27.088C136.164 27.97 136.164 28.582 136.164 28.906C136.164 29.392 136.164 30.382 136.164 31.894C136.164 33.406 136.164 34.414 136.164 34.9V34.936C136.164 35.188 136.128 35.44 136.056 35.656C135.894 36.106 135.606 36.322 135.192 36.304C134.994 36.304 134.76 36.322 134.508 36.322C134.256 36.322 134.04 36.322 133.86 36.286C133.716 36.286 133.554 36.232 133.41 36.142C133.248 36.07 133.14 35.962 133.104 35.854C132.744 34.99 132.564 34.324 132.546 33.856C132.492 32.812 132.456 31.03 132.438 28.546C132.42 26.062 132.402 24.37 132.366 23.452C132.366 23.164 132.348 22.876 132.312 22.552C132.276 22.228 132.24 21.868 132.204 21.454L132.096 20.536ZM120.666 23.308C120.792 23.092 120.99 22.948 121.242 22.894C122.718 22.624 123.852 22.426 124.644 22.318C125.832 22.156 126.93 22.138 127.956 22.282C127.974 22.282 128.028 22.3 128.136 22.3C128.226 22.318 128.298 22.336 128.334 22.336C128.37 22.336 128.442 22.354 128.514 22.372C128.586 22.39 128.64 22.408 128.694 22.444C128.748 22.48 128.802 22.534 128.856 22.57C128.946 22.66 129.036 22.84 129.144 23.11C129.594 24.406 129.792 25.846 129.72 27.466C129.684 28.06 129.594 28.924 129.45 30.076C129.414 30.328 129.378 30.868 129.324 31.732C129.27 32.596 129.18 33.244 129.072 33.694C128.946 34.198 128.784 34.522 128.604 34.702C128.46 34.846 128.028 34.954 127.344 34.99C126.66 35.044 126.03 35.044 125.49 35.008C125.202 35.008 125.058 34.918 125.022 34.738C124.986 34.666 124.986 34.594 125.022 34.486C125.04 34.378 125.076 34.27 125.112 34.144C125.148 34.036 125.166 33.946 125.166 33.892C125.22 33.568 125.274 33.244 125.31 32.902C125.382 32.308 125.418 31.66 125.454 30.958C125.472 30.094 125.454 28.816 125.4 27.106C125.382 26.854 125.346 26.674 125.292 26.566C125.13 26.278 124.752 26.206 124.176 26.332C123.51 26.494 122.322 26.548 120.612 26.476C120.522 26.476 120.468 26.458 120.432 26.422C120.378 26.386 120.36 26.278 120.378 26.134C120.486 24.406 120.576 23.452 120.666 23.308Z" fill="#578246"/>
<path d="M31.3065 37.8C31.0005 37.764 29.9745 37.71 28.2285 37.638C26.4645 37.566 25.4205 37.494 25.0785 37.458C24.9705 37.458 24.7905 37.458 24.5745 37.476C24.3405 37.494 24.1605 37.494 24.0525 37.476C23.9625 37.476 23.8725 37.44 23.7645 37.368C23.6565 37.314 23.6025 37.26 23.6025 37.188C23.4945 36.63 23.4225 35.946 23.3685 35.118C23.3505 35.082 23.3685 35.028 23.4405 34.956C23.5125 34.884 23.5665 34.848 23.6205 34.83C24.0165 34.758 24.7185 34.65 25.7265 34.542C26.7165 34.434 27.7785 34.344 28.8945 34.236C30.0105 34.146 30.7125 34.074 31.0005 34.038C31.5765 33.984 32.7285 33.93 34.4565 33.894C36.1845 33.858 37.1025 33.84 37.2465 33.84C37.3545 33.84 37.5345 33.822 37.7685 33.804C38.0025 33.786 38.1825 33.768 38.2905 33.768C38.3985 33.768 38.5785 33.768 38.8125 33.768C39.3885 33.822 39.6045 34.128 39.4605 34.704C39.2625 35.388 39.0465 36.108 38.7945 36.864C38.7405 37.026 38.6145 37.152 38.3985 37.224C38.1105 37.332 37.8045 37.404 37.4985 37.422C37.0305 37.476 36.0045 37.548 34.4385 37.62C32.8545 37.692 31.8105 37.764 31.3065 37.8ZM29.5965 24.354C31.0545 24.246 31.8645 24.192 32.0445 24.174C32.3505 24.174 32.6925 24.282 33.0525 24.48C33.1245 24.534 33.1965 24.624 33.2685 24.75C33.3225 24.876 33.3585 24.984 33.3585 25.074C33.3405 25.902 33.4485 26.64 33.6645 27.288C33.7545 27.612 33.9525 27.792 34.2405 27.864C35.0685 28.098 36.1305 28.404 37.3905 28.8C37.6065 28.872 37.7505 28.962 37.8405 29.07C37.9125 29.178 37.9125 29.34 37.8225 29.556C37.7505 29.7 37.6965 29.916 37.6605 30.204C37.6065 30.492 37.5705 30.654 37.5525 30.726C37.4445 31.158 37.2285 31.446 36.9405 31.626C36.6345 31.806 36.2385 31.932 35.7705 32.004C35.6985 32.022 35.4645 32.058 35.1045 32.13C34.7445 32.202 34.4565 32.238 34.2765 32.238C33.9885 32.238 33.7185 32.13 33.4305 31.878C33.0885 31.608 32.7825 31.284 32.5125 30.888C32.0985 30.312 31.5945 29.898 30.9825 29.628C30.7305 29.52 30.4605 29.52 30.1365 29.664C29.5245 29.952 28.7685 30.33 27.9045 30.798C27.8685 30.834 27.8145 30.852 27.7605 30.87C27.5085 31.014 27.3105 31.122 27.1665 31.194C27.0225 31.266 26.8245 31.338 26.5905 31.392C26.3385 31.464 26.1225 31.482 25.9065 31.446C25.6365 31.446 25.4565 31.392 25.3665 31.302C25.2585 31.23 25.2045 31.05 25.1685 30.798C25.1325 30.564 25.0785 30.33 25.0065 30.096C24.7185 29.214 24.9885 28.548 25.8345 28.116C27.9225 27.072 29.0025 26.532 29.0925 26.496C29.3085 26.388 29.4705 26.244 29.5425 26.064C29.6145 25.884 29.6685 25.668 29.6865 25.38C29.6865 25.344 29.6505 25.002 29.5965 24.354ZM57.0825 23.238C57.0825 23.256 57.0825 23.274 57.1185 23.274C57.1545 23.31 57.2265 23.328 57.3345 23.364C57.4425 23.4 57.5325 23.418 57.6045 23.454C57.6765 23.49 57.7125 23.526 57.7305 23.562C57.8205 23.904 57.8565 24.3 57.8385 24.732C57.8205 24.876 57.7305 25.83 57.5865 27.594C57.4605 28.926 57.3525 30.258 57.2445 31.59C57.1185 32.886 57.0465 33.66 57.0465 33.912C57.0105 34.128 56.9925 34.416 56.9745 34.794C56.9565 35.172 56.9385 35.514 56.9205 35.82C56.8845 36.126 56.8665 36.414 56.8305 36.684C56.7945 36.936 56.6145 37.296 56.3265 37.782C56.2545 37.908 56.0925 37.962 55.8405 37.962C55.7865 37.98 55.2645 37.98 54.2565 37.98C54.0765 37.98 53.9325 37.944 53.8245 37.836C53.7165 37.728 53.6445 37.602 53.6445 37.422L53.5185 35.532C53.5185 35.496 53.5005 35.37 53.4825 35.154C53.4465 34.938 53.4465 34.776 53.4645 34.668C53.5005 34.146 53.5725 33.624 53.6805 33.102C53.7345 32.76 53.7165 32.526 53.6085 32.418C53.5005 32.31 53.2845 32.292 52.9605 32.364C52.4565 32.472 52.0425 32.346 51.7185 32.022C51.3765 31.698 51.2505 31.302 51.3405 30.798C51.4125 30.33 51.6105 29.952 51.9345 29.664C52.2405 29.394 52.6365 29.232 53.1405 29.196C53.3745 29.196 53.5905 29.106 53.7705 28.944C53.9505 28.782 54.0585 28.584 54.0765 28.368C54.0945 28.008 54.1305 27.45 54.2025 26.658C54.2565 25.884 54.2925 25.29 54.3285 24.876C54.3465 24.696 54.4005 24.372 54.5085 23.94C54.5985 23.544 54.8505 23.364 55.2645 23.364C55.7325 23.382 56.1825 23.382 56.5965 23.382C56.5965 23.382 56.7585 23.346 57.0825 23.238ZM44.8965 33.462H48.3525H49.6485C49.9365 33.444 50.1705 33.606 50.3325 33.948C50.6205 34.668 50.6025 35.316 50.2425 35.892C50.0625 36.18 49.7025 36.36 49.1265 36.45C47.4345 36.72 46.2465 36.846 45.5625 36.846C45.5265 36.846 45.3645 36.864 45.0765 36.864C44.7885 36.864 44.6265 36.864 44.5545 36.864C44.4825 36.864 44.3385 36.846 44.1045 36.846C43.8705 36.846 43.6905 36.828 43.5825 36.81C43.4745 36.81 43.3125 36.792 43.1325 36.756C42.9345 36.738 42.7545 36.702 42.6105 36.666C42.4485 36.63 42.2865 36.594 42.1425 36.522C41.8365 36.432 41.6025 36.198 41.4225 35.838C41.2425 35.478 41.1885 35.082 41.2605 34.686C41.3505 34.182 41.4045 33.678 41.4405 33.174C41.4585 32.616 41.4945 31.806 41.5305 30.726C41.5665 29.646 41.5845 28.854 41.6205 28.35C41.6745 27.126 41.7465 26.334 41.8185 25.956C41.8545 25.686 42.0705 25.218 42.4485 24.57C42.4485 24.552 42.4845 24.534 42.5385 24.534C42.5925 24.534 42.6645 24.534 42.7545 24.534C42.8445 24.534 42.8985 24.534 42.9345 24.534C43.8705 24.498 44.4465 24.462 44.6445 24.444C46.1565 24.39 47.0565 24.354 47.3445 24.354C47.9385 24.354 48.6945 24.39 49.6305 24.462C49.8285 24.48 49.9905 24.57 50.0985 24.732C50.4225 25.236 50.5125 25.758 50.3685 26.298C50.2245 26.838 49.8825 27.18 49.3425 27.342C49.0725 27.432 48.8025 27.504 48.5145 27.576C48.2265 27.648 47.8845 27.72 47.4705 27.792C47.0385 27.882 46.7685 27.936 46.6425 27.972C46.4985 28.008 46.2465 28.044 45.8685 28.116C45.4905 28.188 45.2025 28.26 45.0045 28.296C44.6805 28.386 44.5725 28.62 44.6445 28.998C44.7165 29.43 44.8065 29.682 44.8785 29.754C44.9505 29.826 45.1845 29.862 45.5625 29.826C45.7605 29.826 47.0025 29.718 49.2885 29.52H49.3425H49.4145C49.4865 29.538 49.5945 29.538 49.7745 29.52C49.9545 29.502 50.0985 29.52 50.2065 29.556C50.3145 29.592 50.3865 29.7 50.4225 29.844C50.6385 30.744 50.5845 31.374 50.2785 31.716C50.0085 32.004 49.5405 32.202 48.8745 32.292C48.5865 32.346 48.1725 32.382 47.6325 32.4C47.0925 32.418 46.7145 32.436 46.5345 32.436C46.4985 32.436 46.4085 32.454 46.2285 32.454C46.0485 32.472 45.9405 32.49 45.8865 32.49C45.8325 32.508 45.7425 32.526 45.6165 32.562C45.4905 32.598 45.3825 32.634 45.2925 32.688C45.2025 32.742 45.1125 32.814 45.0405 32.886C45.0225 32.904 44.9505 33.03 44.8065 33.246C44.8425 33.336 44.8605 33.408 44.8965 33.462ZM70.8885 22.536C71.5725 22.5 71.9505 22.482 71.9865 22.482C72.3825 22.5 72.7605 22.536 73.1565 22.59C73.5525 22.644 73.8945 22.68 74.2005 22.698C74.5425 22.734 74.7225 22.932 74.7405 23.274C74.7405 23.706 74.7765 24.372 74.8305 25.254C74.8845 26.154 74.9205 26.82 74.9385 27.27C74.9565 27.612 74.9565 28.224 74.9565 29.088C74.9565 29.97 74.9565 30.582 74.9565 30.906C74.9565 31.392 74.9565 32.382 74.9565 33.894C74.9565 35.406 74.9565 36.414 74.9565 36.9V36.936C74.9565 37.188 74.9205 37.44 74.8485 37.656C74.6865 38.106 74.3985 38.322 73.9845 38.304C73.7865 38.304 73.5525 38.322 73.3005 38.322C73.0485 38.322 72.8325 38.322 72.6525 38.286C72.5085 38.286 72.3465 38.232 72.2025 38.142C72.0405 38.07 71.9325 37.962 71.8965 37.854C71.5365 36.99 71.3565 36.324 71.3385 35.856C71.2845 34.812 71.2485 33.03 71.2305 30.546C71.2125 28.062 71.1945 26.37 71.1585 25.452C71.1585 25.164 71.1405 24.876 71.1045 24.552C71.0685 24.228 71.0325 23.868 70.9965 23.454L70.8885 22.536ZM59.8545 24.606C62.2305 24.714 63.5445 24.75 63.7605 24.75C63.9585 24.768 64.3365 24.804 64.8765 24.84C65.4165 24.876 65.8485 24.912 66.1365 24.912C66.6045 24.93 67.1985 24.894 67.9365 24.822C68.2965 24.786 68.6025 24.876 68.8185 25.056C69.0345 25.236 69.1605 25.452 69.2325 25.704C69.2865 25.956 69.3045 26.226 69.2685 26.514C69.2505 26.622 69.2145 26.784 69.1425 26.982C69.0705 27.18 69.0345 27.324 69.0345 27.414C68.9985 27.81 68.7645 28.008 68.3685 28.008C67.4325 28.044 66.6945 28.044 66.1905 28.026C65.9205 28.026 65.0205 27.99 63.4905 27.9L63.1665 27.864C62.7885 27.792 62.5545 27.918 62.4465 28.206C62.3205 28.512 62.2665 28.692 62.2665 28.764C62.2665 30.744 62.3025 32.166 62.3385 33.048C62.3385 33.102 62.3745 33.156 62.4465 33.21C62.5185 33.282 62.5725 33.3 62.6265 33.3C62.8065 33.336 63.0765 33.354 63.4365 33.372C63.7965 33.39 64.0305 33.408 64.1565 33.408C66.1725 33.57 67.5945 33.696 68.4405 33.768C68.4945 33.768 68.5665 33.84 68.6385 33.948C68.7105 34.074 68.7645 34.182 68.7645 34.254C68.7285 34.902 68.6745 35.316 68.6025 35.496C68.5305 35.676 68.2605 36 67.8105 36.504C67.7025 36.612 67.5585 36.684 67.4145 36.684C67.2525 36.702 66.8385 36.72 66.1905 36.756C65.5425 36.792 65.0385 36.846 64.6965 36.882C63.5085 37.044 62.1765 36.918 60.7005 36.522C60.4125 36.45 60.1785 36.324 59.9985 36.162C59.8185 36 59.7105 35.748 59.6385 35.424C59.4945 34.848 59.3865 34.182 59.3505 33.462C59.3145 32.742 59.2965 32.094 59.3145 31.5C59.3325 30.924 59.3325 30.276 59.3145 29.556C59.2785 28.404 59.3865 27.216 59.6565 26.028C59.6565 25.992 59.7285 25.506 59.8545 24.606ZM85.7275 23.274C85.9075 23.274 86.2855 23.274 86.8435 23.31C87.3835 23.346 87.7795 23.346 88.0135 23.328C88.1215 23.328 88.3015 23.328 88.5355 23.328C88.7515 23.346 88.9315 23.346 89.0395 23.328C90.4255 23.256 91.6315 23.31 92.6575 23.526C93.4495 23.706 93.7915 24.228 93.7195 25.092C93.6835 25.398 93.6475 26.046 93.6115 27.018C93.5755 27.558 93.5575 27.99 93.5395 28.314C93.5035 28.638 93.4495 29.016 93.3595 29.484C93.2695 29.952 93.1435 30.348 92.9995 30.708C92.8735 31.014 92.7115 31.23 92.4955 31.356C91.9555 31.698 91.4695 31.932 91.0555 32.058C90.8935 32.094 90.7855 32.094 90.7135 32.094C90.6415 32.094 90.5155 32.094 90.3355 32.076C90.1555 32.058 90.0475 32.04 89.9755 32.04C88.3555 31.986 87.4375 31.95 87.2395 31.932C86.8795 31.914 86.5195 31.734 86.1955 31.374C85.8535 31.014 85.6555 30.654 85.6195 30.294C85.5475 29.826 85.5295 29.304 85.5295 28.728C85.5295 28.152 85.5475 27.72 85.5835 27.396C85.6015 27.09 85.6375 26.568 85.7095 25.83C85.7275 25.578 85.7455 25.326 85.7455 25.038C85.7455 24.768 85.7275 24.444 85.7275 24.084C85.7275 23.724 85.7275 23.454 85.7275 23.274ZM88.1935 25.812V28.17C88.1935 28.458 88.2475 28.656 88.3375 28.728C88.4275 28.818 88.6255 28.872 88.9315 28.872C89.0035 28.872 89.1475 28.89 89.3275 28.89C89.5075 28.89 89.6335 28.89 89.7415 28.89C89.9575 28.89 90.1735 28.836 90.3535 28.692C90.5335 28.548 90.6235 28.386 90.6415 28.17C90.6775 27.144 90.5695 26.298 90.2995 25.632L88.1935 25.812ZM99.0835 28.8V31.122C99.0835 31.32 99.0475 31.68 99.0115 32.184C98.9755 32.472 98.7955 32.634 98.5075 32.634C97.8595 32.652 97.3195 32.652 96.8515 32.616C96.5815 32.616 96.3475 32.508 96.1675 32.328C95.9875 32.148 95.8795 31.932 95.8795 31.68C95.8615 30.636 95.8615 29.34 95.8795 27.792C95.8795 27.702 95.8795 27 95.9155 25.686C95.9335 24.39 95.9515 23.58 95.9695 23.292C95.9695 22.932 96.0955 22.698 96.3475 22.554C96.4015 22.518 96.5095 22.464 96.6715 22.374C96.8335 22.302 96.9595 22.23 97.0495 22.194C97.1215 22.158 97.2295 22.122 97.3735 22.068C97.5175 22.014 97.6435 21.978 97.7695 21.96C97.8955 21.942 98.0215 21.942 98.1655 21.942C98.3815 21.96 98.5435 21.978 98.6515 22.014C98.9035 22.122 99.0295 22.302 99.0295 22.572C99.0295 22.806 99.0295 23.4 99.0655 24.372C99.1015 25.344 99.1195 25.92 99.1555 26.1C99.1735 26.244 99.2815 26.334 99.4975 26.352C100.362 26.424 100.848 26.46 100.956 26.478C101.208 26.55 101.37 26.748 101.406 27.108C101.46 27.648 101.37 28.134 101.118 28.548C101.046 28.674 100.83 28.764 100.506 28.8H99.0835ZM91.6855 35.424C94.1335 35.28 95.5195 35.208 95.8255 35.172C96.1315 35.154 96.4915 35.118 96.9235 35.082C97.3555 35.046 97.7155 35.01 98.0035 34.974C98.2915 34.938 98.5435 34.92 98.7235 34.92C98.9575 34.92 99.1375 35.226 99.2455 35.802C99.2635 35.928 99.2815 36.18 99.2815 36.54C99.2815 36.954 99.1735 37.368 98.9575 37.8C98.8855 37.926 98.7235 38.016 98.4715 38.052C98.2195 38.088 97.3735 38.142 95.9335 38.214C94.4935 38.286 93.6475 38.34 93.3775 38.376C93.3055 38.394 93.2515 38.394 93.1795 38.394C92.8735 38.394 92.2255 38.412 91.2355 38.43C90.2455 38.448 89.5255 38.466 89.0755 38.484C88.9675 38.484 88.7695 38.502 88.5175 38.52C88.2655 38.538 88.0675 38.538 87.9415 38.538C87.5275 38.538 87.1855 38.466 86.9335 38.304C86.8435 38.268 86.7715 38.178 86.6995 38.07C86.6275 37.962 86.6095 37.872 86.6095 37.764C86.5555 37.242 86.5195 36.504 86.4835 35.532C86.4475 34.56 86.4115 33.894 86.3935 33.516L86.3755 33.264C86.3755 33.084 86.3755 32.922 86.3755 32.742L86.3575 32.49C86.3935 32.49 86.4835 32.472 86.6455 32.436C86.8075 32.4 86.9155 32.364 86.9695 32.346C87.0955 32.328 87.3835 32.31 87.8335 32.31C88.3555 32.31 88.6795 32.346 88.8235 32.382C88.9675 32.436 89.0395 32.526 89.0395 32.652C89.0395 32.706 89.0575 32.832 89.0935 33.012C89.1295 33.192 89.1655 33.318 89.1655 33.372C89.1655 33.57 89.2015 33.93 89.3095 34.47C89.3095 34.542 89.3275 34.704 89.3635 34.938C89.3815 35.172 89.4175 35.37 89.4715 35.55L91.6855 35.424ZM111.054 31.464C109.578 31.536 108.786 31.554 108.642 31.554C105.726 31.554 104.088 31.518 103.692 31.41C103.332 31.32 103.134 31.14 103.08 30.888C103.026 30.636 103.062 30.258 103.206 29.754C103.26 29.682 103.296 29.592 103.314 29.466C103.332 29.34 103.386 29.232 103.476 29.16C103.512 29.124 103.602 29.088 103.728 29.088H106.752H109.776C109.866 29.088 110.1 29.106 110.496 29.142C110.892 29.178 111.108 29.214 111.162 29.214C111.27 29.214 112.26 29.232 114.096 29.268C115.932 29.304 116.994 29.322 117.282 29.358C117.336 29.358 117.408 29.412 117.48 29.484C117.552 29.556 117.606 29.628 117.624 29.682C117.696 30.15 117.696 30.51 117.624 30.762C117.516 31.158 117.174 31.374 116.598 31.41C116.418 31.428 115.482 31.446 113.808 31.446C112.116 31.464 111.198 31.482 111.054 31.482V31.464ZM107.49 25.92C109.506 25.812 110.586 25.74 110.73 25.722L112.674 25.596L114.816 25.506L116.058 25.65C116.076 25.668 116.112 25.686 116.148 25.686C116.184 25.704 116.238 25.74 116.328 25.776C116.418 25.83 116.49 25.884 116.562 25.938C116.616 25.992 116.67 26.064 116.706 26.154C116.742 26.244 116.76 26.334 116.742 26.424C116.706 26.604 116.652 26.802 116.58 26.982C116.508 27.162 116.436 27.378 116.346 27.612C116.238 27.864 116.184 28.026 116.148 28.116C113.142 28.188 111.54 28.206 111.324 28.188C111.216 28.188 109.542 28.134 106.266 28.026H105.834H105.402C104.97 28.026 104.7 27.972 104.592 27.864C104.466 27.756 104.412 27.54 104.448 27.234C104.448 27.054 104.484 26.766 104.574 26.406C104.646 26.046 104.7 25.848 104.7 25.794C104.718 25.668 104.754 25.47 104.79 25.218C104.826 24.966 104.844 24.768 104.88 24.642L105.168 23.076L107.076 22.266C108.696 22.338 109.938 22.284 110.766 22.086C110.874 22.05 110.982 22.032 111.108 22.014C111.234 22.014 111.378 22.014 111.54 22.014C111.684 22.014 111.81 22.032 111.918 22.032C112.008 22.032 112.152 22.05 112.35 22.068C112.548 22.086 112.674 22.104 112.746 22.104C113.142 22.14 113.7 22.212 114.456 22.284C115.194 22.374 115.734 22.428 116.058 22.446C116.31 22.482 116.49 22.536 116.598 22.608C116.706 22.68 116.742 22.806 116.706 22.986L116.508 24.102C116.112 24.498 115.734 24.678 115.374 24.678C115.014 24.696 114.492 24.696 113.808 24.696C113.124 24.696 112.638 24.678 112.35 24.678C111.342 24.678 110.442 24.696 109.668 24.732C109.506 24.75 109.254 24.786 108.93 24.822C108.588 24.858 108.336 24.876 108.156 24.876C107.94 24.894 107.796 24.93 107.706 24.984C107.598 25.038 107.562 25.128 107.562 25.254C107.544 25.29 107.526 25.524 107.49 25.92ZM105.834 34.578C105.798 34.578 105.708 34.596 105.564 34.596C105.42 34.614 105.312 34.614 105.258 34.614C105.186 34.614 105.114 34.614 105.006 34.596C104.898 34.578 104.808 34.542 104.772 34.506C104.718 34.47 104.664 34.398 104.61 34.326C104.556 34.254 104.52 34.146 104.52 34.02C104.502 33.948 104.484 33.84 104.448 33.66C104.412 33.48 104.394 33.336 104.394 33.21C104.394 33.048 104.412 32.886 104.466 32.706C104.466 32.634 104.52 32.562 104.628 32.49C104.736 32.418 104.844 32.364 104.97 32.364C109.83 32.364 113.214 32.4 115.158 32.508C115.554 32.544 115.86 32.58 116.094 32.652C116.364 32.742 116.526 32.868 116.58 33.012C116.634 33.228 116.67 33.462 116.67 33.696C116.67 33.966 116.616 34.29 116.544 34.668C116.4 35.298 116.04 35.748 115.446 36C115.122 36.144 114.528 36.252 113.682 36.324C113.376 36.36 112.944 36.378 112.368 36.378C111.792 36.396 111.396 36.414 111.162 36.414C111.126 36.414 110.478 36.432 109.236 36.45C107.976 36.468 107.292 36.486 107.166 36.522L107.184 36.954C107.4 36.954 108.21 36.954 109.614 36.936C111.018 36.918 111.846 36.9 112.062 36.9C112.548 36.9 112.98 36.9 113.358 36.882C113.61 36.882 114.006 36.864 114.528 36.828C115.032 36.792 115.41 36.774 115.662 36.774H115.698C116.022 36.774 116.202 36.882 116.202 37.098V37.188C116.094 37.692 116.004 38.088 115.932 38.34C115.842 38.592 115.698 38.772 115.5 38.88C115.302 38.988 114.978 39.024 114.51 39.024H114.294C113.826 39.024 113.16 38.988 112.314 38.934C111.468 38.88 110.874 38.844 110.532 38.826C109.992 38.808 109.524 38.808 109.11 38.826C108.696 38.844 108.228 38.844 107.724 38.826C107.22 38.808 106.77 38.754 106.374 38.682C105.834 38.574 105.456 38.394 105.24 38.142C105.024 37.89 104.898 37.566 104.826 37.134C104.808 37.062 104.808 36.864 104.808 36.558C104.808 36.54 104.808 36.414 104.826 36.18C104.826 35.838 104.934 35.604 105.114 35.46C105.294 35.334 105.6 35.262 106.068 35.244C107.796 35.208 110.082 35.136 112.944 35.028C113.304 35.028 113.484 34.902 113.484 34.686L113.466 34.596C113.466 34.542 113.466 34.488 113.466 34.434V34.326C113.466 34.308 113.376 34.29 113.196 34.29C113.016 34.29 112.692 34.29 112.224 34.308C111.756 34.326 111.27 34.344 110.748 34.362C110.226 34.398 109.488 34.434 108.552 34.47C107.616 34.506 106.698 34.542 105.834 34.578ZM132.096 22.536C132.78 22.5 133.158 22.482 133.194 22.482C133.59 22.5 133.968 22.536 134.364 22.59C134.76 22.644 135.102 22.68 135.408 22.698C135.75 22.734 135.93 22.932 135.948 23.274C135.948 23.706 135.984 24.372 136.038 25.254C136.092 26.154 136.128 26.82 136.146 27.27C136.164 27.612 136.164 28.224 136.164 29.088C136.164 29.97 136.164 30.582 136.164 30.906C136.164 31.392 136.164 32.382 136.164 33.894C136.164 35.406 136.164 36.414 136.164 36.9V36.936C136.164 37.188 136.128 37.44 136.056 37.656C135.894 38.106 135.606 38.322 135.192 38.304C134.994 38.304 134.76 38.322 134.508 38.322C134.256 38.322 134.04 38.322 133.86 38.286C133.716 38.286 133.554 38.232 133.41 38.142C133.248 38.07 133.14 37.962 133.104 37.854C132.744 36.99 132.564 36.324 132.546 35.856C132.492 34.812 132.456 33.03 132.438 30.546C132.42 28.062 132.402 26.37 132.366 25.452C132.366 25.164 132.348 24.876 132.312 24.552C132.276 24.228 132.24 23.868 132.204 23.454L132.096 22.536ZM120.666 25.308C120.792 25.092 120.99 24.948 121.242 24.894C122.718 24.624 123.852 24.426 124.644 24.318C125.832 24.156 126.93 24.138 127.956 24.282C127.974 24.282 128.028 24.3 128.136 24.3C128.226 24.318 128.298 24.336 128.334 24.336C128.37 24.336 128.442 24.354 128.514 24.372C128.586 24.39 128.64 24.408 128.694 24.444C128.748 24.48 128.802 24.534 128.856 24.57C128.946 24.66 129.036 24.84 129.144 25.11C129.594 26.406 129.792 27.846 129.72 29.466C129.684 30.06 129.594 30.924 129.45 32.076C129.414 32.328 129.378 32.868 129.324 33.732C129.27 34.596 129.18 35.244 129.072 35.694C128.946 36.198 128.784 36.522 128.604 36.702C128.46 36.846 128.028 36.954 127.344 36.99C126.66 37.044 126.03 37.044 125.49 37.008C125.202 37.008 125.058 36.918 125.022 36.738C124.986 36.666 124.986 36.594 125.022 36.486C125.04 36.378 125.076 36.27 125.112 36.144C125.148 36.036 125.166 35.946 125.166 35.892C125.22 35.568 125.274 35.244 125.31 34.902C125.382 34.308 125.418 33.66 125.454 32.958C125.472 32.094 125.454 30.816 125.4 29.106C125.382 28.854 125.346 28.674 125.292 28.566C125.13 28.278 124.752 28.206 124.176 28.332C123.51 28.494 122.322 28.548 120.612 28.476C120.522 28.476 120.468 28.458 120.432 28.422C120.378 28.386 120.36 28.278 120.378 28.134C120.486 26.406 120.576 25.452 120.666 25.308Z" fill="white"/>
</svg>
