<svg width="106" height="38" viewBox="0 0 106 38" fill="none" xmlns="http://www.w3.org/2000/svg">
<rect width="106" height="38" rx="8" fill="#99C08E"/>
<path d="M20.3348 15.2843C21.3047 15.2127 21.8453 15.173 21.9566 15.165C22.1633 15.165 22.3859 15.2326 22.6244 15.3678C22.68 15.3996 22.7277 15.4592 22.7675 15.5466C22.8072 15.6261 22.8271 15.6977 22.8271 15.7613C22.8191 16.3098 22.8867 16.7988 23.0298 17.2281C23.0934 17.4348 23.2206 17.562 23.4114 17.6097C23.9679 17.7607 24.6635 17.9674 25.4983 18.2298C25.6414 18.2775 25.7408 18.3371 25.7964 18.4086C25.8521 18.4722 25.8481 18.5796 25.7845 18.7306C25.7447 18.826 25.709 18.9691 25.6772 19.1599C25.6454 19.3428 25.6215 19.458 25.6056 19.5057C25.5341 19.784 25.3989 19.9827 25.2002 20.102C25.0014 20.2212 24.743 20.3047 24.425 20.3524C24.3773 20.3604 24.2303 20.3882 23.9838 20.4359C23.7453 20.4756 23.5625 20.4995 23.4353 20.5074C23.2524 20.5074 23.0656 20.4279 22.8748 20.2689C22.6522 20.0861 22.4495 19.8675 22.2666 19.6131C21.9963 19.2315 21.6584 18.9532 21.253 18.7783C21.094 18.6988 20.9072 18.7068 20.6925 18.8022C20.2871 18.985 19.7942 19.2354 19.2138 19.5534C19.19 19.5693 19.1582 19.5852 19.1184 19.6011C18.9515 19.6965 18.8203 19.7681 18.7249 19.8158C18.6295 19.8635 18.5023 19.9072 18.3433 19.947C18.1843 19.9867 18.0332 19.9986 17.8901 19.9827C17.7152 19.9748 17.596 19.943 17.5324 19.8873C17.4688 19.8317 17.4251 19.7204 17.4012 19.5534C17.3774 19.3944 17.3416 19.2394 17.2939 19.0884C17.1031 18.5001 17.2859 18.0628 17.8424 17.7766C19.2257 17.085 19.9452 16.7272 20.0009 16.7034C20.1519 16.6318 20.2513 16.5364 20.299 16.4172C20.3546 16.2979 20.3864 16.1469 20.3944 15.964C20.3944 15.9402 20.3745 15.7136 20.3348 15.2843ZM21.4676 24.1923C21.2689 24.1684 20.5892 24.1287 19.4285 24.073C18.2678 24.0253 17.5721 23.9895 17.3416 23.9657C17.27 23.9577 17.1587 23.9577 17.0077 23.9657C16.8566 23.9816 16.7414 23.9856 16.6619 23.9776C16.6062 23.9697 16.5426 23.9458 16.4711 23.9061C16.4075 23.8663 16.3717 23.8266 16.3637 23.7868C16.3001 23.4132 16.2485 22.956 16.2087 22.4154C16.2008 22.3836 16.2167 22.3479 16.2564 22.3081C16.3041 22.2604 16.3439 22.2326 16.3757 22.2246C16.646 22.169 17.111 22.1054 17.7709 22.0338C18.4307 21.9623 19.1303 21.8947 19.8697 21.8311C20.609 21.7675 21.0741 21.7238 21.2649 21.6999C21.6465 21.6602 22.4097 21.6284 23.5545 21.6045C24.6993 21.5807 25.3154 21.5688 25.4029 21.5688C25.4824 21.5608 25.5977 21.5529 25.7487 21.5449C25.9077 21.529 26.023 21.5211 26.0945 21.5211C26.174 21.5131 26.2893 21.5131 26.4404 21.5211C26.822 21.5529 26.9651 21.7596 26.8697 22.1412C26.7425 22.5943 26.5954 23.0713 26.4284 23.5722C26.3966 23.6755 26.3092 23.755 26.1661 23.8107C25.9753 23.8822 25.7765 23.9259 25.5698 23.9418C25.2598 23.9736 24.584 24.0134 23.5426 24.0611C22.5011 24.1167 21.8095 24.1605 21.4676 24.1923ZM30.471 21.3183H32.7606C33.2933 21.3183 33.5795 21.3183 33.6192 21.3183C33.818 21.3024 33.969 21.4098 34.0724 21.6403C34.2711 22.1094 34.2512 22.5387 34.0127 22.9282C33.9014 23.1111 33.655 23.2343 33.2734 23.2979C32.1604 23.4728 31.3733 23.5602 30.9122 23.5602C30.8884 23.5602 30.7811 23.5602 30.5903 23.5602C30.4074 23.5682 30.2921 23.5682 30.2444 23.5602C30.2047 23.5602 30.1053 23.5563 29.9463 23.5483C29.7953 23.5483 29.68 23.5443 29.6005 23.5364C29.5289 23.5284 29.4296 23.5165 29.3024 23.5006C29.1752 23.4847 29.0599 23.4648 28.9565 23.441C28.8532 23.4171 28.7498 23.3853 28.6465 23.3456C28.4477 23.282 28.2887 23.1309 28.1695 22.8924C28.0582 22.646 28.0224 22.3916 28.0622 22.1292C28.1258 21.7953 28.1655 21.4614 28.1814 21.1275C28.1973 20.7539 28.2172 20.2133 28.241 19.5057C28.2649 18.7902 28.2848 18.2655 28.3007 17.9316C28.3404 17.1207 28.3841 16.5921 28.4318 16.3456C28.4636 16.1628 28.6028 15.8567 28.8492 15.4274C28.8572 15.4115 28.877 15.4035 28.9088 15.4035C28.9486 15.3956 28.9963 15.3956 29.0519 15.4035C29.1155 15.4035 29.1553 15.4035 29.1712 15.4035C29.7992 15.3717 30.1769 15.3519 30.3041 15.3439C31.3137 15.3042 31.91 15.2843 32.0928 15.2843C32.4903 15.2763 32.9951 15.3002 33.6073 15.3558C33.7424 15.3638 33.8458 15.4234 33.9173 15.5347C34.1399 15.8686 34.1996 16.2144 34.0962 16.5722C34.0008 16.922 33.7742 17.1525 33.4165 17.2638C33.2416 17.3195 33.0587 17.3712 32.8679 17.4189C32.6851 17.4586 32.4545 17.5063 32.1763 17.562C31.898 17.6176 31.7152 17.6574 31.6277 17.6812C31.5403 17.6971 31.3694 17.7289 31.115 17.7766C30.8685 17.8243 30.6777 17.8641 30.5426 17.8959C30.3359 17.9515 30.2564 18.1065 30.3041 18.3609C30.3597 18.6471 30.4114 18.8141 30.4591 18.8618C30.5147 18.9095 30.6658 18.9254 30.9122 18.9095C31.0474 18.9015 31.8702 18.834 33.3807 18.7068C33.3966 18.7068 33.4085 18.7068 33.4165 18.7068C33.4324 18.7068 33.4483 18.7068 33.4642 18.7068C33.5119 18.7147 33.5914 18.7147 33.7027 18.7068C33.8219 18.6909 33.9173 18.6988 33.9889 18.7306C34.0604 18.7545 34.1081 18.8181 34.132 18.9214C34.2751 19.5177 34.2433 19.9311 34.0366 20.1616C33.8617 20.3524 33.5516 20.4796 33.1064 20.5432C32.9156 20.575 32.6414 20.5989 32.2836 20.6148C31.9259 20.6227 31.6834 20.6307 31.5562 20.6386C31.5403 20.6386 31.4727 20.6426 31.3535 20.6505C31.2422 20.6585 31.1666 20.6664 31.1269 20.6744C31.0951 20.6823 31.0355 20.6982 30.948 20.7221C30.8685 20.738 30.797 20.7658 30.7334 20.8056C30.6777 20.8374 30.6221 20.8811 30.5664 20.9367C30.5585 20.9447 30.5068 21.0242 30.4114 21.1752C30.4352 21.2309 30.4551 21.2786 30.471 21.3183ZM38.5442 14.5449C38.5442 14.5529 38.5522 14.5608 38.5681 14.5688C38.5999 14.5847 38.6476 14.6046 38.7112 14.6284C38.7827 14.6443 38.8424 14.6642 38.8901 14.688C38.9378 14.7119 38.9656 14.7357 38.9735 14.7596C39.0371 14.9822 39.061 15.2406 39.0451 15.5347C39.0371 15.6222 38.9815 16.2542 38.8781 17.4308C38.7986 18.3132 38.7231 19.1957 38.6516 20.0781C38.5721 20.9288 38.5283 21.4416 38.5204 21.6165C38.5045 21.7516 38.4886 21.9464 38.4727 22.2008C38.4647 22.4472 38.4528 22.6738 38.4369 22.8805C38.421 23.0793 38.4011 23.2701 38.3773 23.4529C38.3534 23.6119 38.2421 23.8544 38.0434 24.1803C37.9957 24.2598 37.8884 24.2996 37.7214 24.2996C37.6896 24.3075 37.3398 24.3115 36.672 24.3115C36.5528 24.3115 36.4574 24.2757 36.3858 24.2042C36.3143 24.1406 36.2745 24.0531 36.2666 23.9418C36.2666 23.9418 36.2387 23.5245 36.1831 22.6897C36.1831 22.6659 36.1751 22.5824 36.1592 22.4393C36.1433 22.2962 36.1394 22.1889 36.1473 22.1173C36.1712 21.7675 36.2189 21.4217 36.2904 21.0798C36.3302 20.8493 36.3143 20.6982 36.2427 20.6267C36.1791 20.5551 36.036 20.5432 35.8134 20.5909C35.4875 20.6545 35.2132 20.579 34.9906 20.3643C34.768 20.1497 34.6845 19.8794 34.7402 19.5534C34.7958 19.2354 34.927 18.985 35.1337 18.8022C35.3404 18.6193 35.6067 18.516 35.9327 18.4921C36.0917 18.4842 36.2308 18.4285 36.35 18.3252C36.4772 18.2139 36.5448 18.0867 36.5528 17.9436C36.5687 17.7051 36.5965 17.3274 36.6362 16.8107C36.676 16.2939 36.7038 15.9004 36.7197 15.6301C36.7356 15.5029 36.7754 15.2962 36.839 15.01C36.9026 14.7477 37.0695 14.6205 37.3398 14.6284C37.6578 14.6364 37.952 14.6403 38.2223 14.6403C38.2302 14.6403 38.3375 14.6085 38.5442 14.5449ZM40.3807 15.4512C41.9627 15.5148 42.8253 15.5466 42.9684 15.5466C43.1036 15.5546 43.35 15.5745 43.7078 15.6063C44.0735 15.6301 44.3517 15.646 44.5425 15.654C44.8526 15.6619 45.2501 15.642 45.735 15.5943C45.9815 15.5705 46.1762 15.6222 46.3193 15.7494C46.4624 15.8686 46.5539 16.0117 46.5936 16.1787C46.6334 16.3456 46.6413 16.5245 46.6175 16.7153C46.6095 16.7868 46.5817 16.8902 46.534 17.0253C46.4942 17.1525 46.4704 17.2479 46.4624 17.3115C46.4386 17.5659 46.2915 17.6971 46.0212 17.7051C45.4011 17.721 44.9201 17.7249 44.5783 17.717C44.4034 17.717 43.8071 17.6892 42.7895 17.6335C42.718 17.6256 42.6464 17.6176 42.5749 17.6097C42.3284 17.562 42.1694 17.6375 42.0979 17.8362C42.0184 18.035 41.9786 18.1582 41.9786 18.2059C41.9866 19.5097 42.0025 20.4558 42.0263 21.0441C42.0263 21.0759 42.0502 21.1116 42.0979 21.1514C42.1456 21.1911 42.1853 21.211 42.2171 21.211C42.3443 21.2269 42.5232 21.2428 42.7538 21.2587C42.9923 21.2667 43.1513 21.2746 43.2308 21.2826C44.5664 21.3859 45.5124 21.4654 46.0689 21.5211C46.1087 21.5211 46.1524 21.5608 46.2001 21.6403C46.2557 21.7198 46.2836 21.7874 46.2836 21.843C46.2597 22.2723 46.2239 22.5466 46.1762 22.6659C46.1285 22.7772 45.9536 22.9998 45.6515 23.3337C45.58 23.4052 45.4925 23.445 45.3892 23.4529C45.2858 23.4609 45.0155 23.4768 44.5783 23.5006C44.149 23.5245 43.8191 23.5523 43.5885 23.5841C42.8015 23.6874 41.919 23.6079 40.9412 23.3456C40.7504 23.2899 40.5953 23.2065 40.4761 23.0952C40.3648 22.9918 40.2853 22.8328 40.2376 22.6182C40.1422 22.2286 40.0786 21.7953 40.0468 21.3183C40.0229 20.8413 40.015 20.4081 40.0229 20.0185C40.0388 19.629 40.0388 19.1997 40.0229 18.7306C39.9991 17.9595 40.0746 17.1804 40.2495 16.3933C40.2575 16.3615 40.3012 16.0475 40.3807 15.4512ZM47.6907 14.0799C48.1518 14.056 48.3943 14.0441 48.4181 14.0441C48.6805 14.052 48.9389 14.0759 49.1933 14.1156C49.4556 14.1474 49.6862 14.1713 49.8849 14.1872C50.1155 14.211 50.2347 14.3382 50.2427 14.5688C50.2506 14.855 50.2705 15.2922 50.3023 15.8805C50.342 16.4688 50.3659 16.914 50.3738 17.2161C50.3897 17.4387 50.3937 17.8402 50.3858 18.4206C50.3858 19.0009 50.3858 19.4024 50.3858 19.625C50.3937 19.943 50.3937 20.6028 50.3858 21.6045C50.3858 22.6062 50.3858 23.2701 50.3858 23.596C50.3858 23.604 50.3858 23.6119 50.3858 23.6199C50.3858 23.7868 50.3619 23.9458 50.3142 24.0969C50.2109 24.391 50.0201 24.5341 49.7418 24.5262C49.6146 24.5262 49.4636 24.5262 49.2887 24.5262C49.1217 24.5341 48.9786 24.5301 48.8594 24.5142C48.764 24.5063 48.6646 24.4745 48.5612 24.4188C48.4579 24.3632 48.3903 24.2996 48.3585 24.228C48.128 23.6556 48.0047 23.2144 47.9888 22.9044C47.957 22.2048 47.9332 21.0321 47.9173 19.3865C47.9093 17.7408 47.8934 16.6159 47.8696 16.0117C47.8696 15.8209 47.8577 15.6222 47.8338 15.4155C47.8179 15.2008 47.7941 14.9583 47.7623 14.688C47.7305 14.4177 47.7066 14.215 47.6907 14.0799ZM61.4688 22.6182C63.0985 22.5228 64.0128 22.4671 64.2115 22.4512C64.4182 22.4353 64.6607 22.4154 64.9389 22.3916C65.2251 22.3598 65.4636 22.3359 65.6544 22.32C65.8532 22.2962 66.0122 22.2843 66.1314 22.2843C66.2904 22.2843 66.4057 22.479 66.4773 22.8686C66.4932 22.9481 66.5011 23.1111 66.5011 23.3575C66.5011 23.6278 66.4296 23.9061 66.2865 24.1923C66.2388 24.2718 66.1314 24.3234 65.9645 24.3473C65.7975 24.3791 65.2371 24.4188 64.2831 24.4665C63.337 24.5142 62.7726 24.55 62.5897 24.5739C62.55 24.5818 62.5062 24.5858 62.4585 24.5858C62.2598 24.5858 61.8305 24.5898 61.1706 24.5977C60.5187 24.6136 60.0417 24.6295 59.7396 24.6454C59.6681 24.6454 59.5449 24.6494 59.37 24.6573C59.203 24.6732 59.0758 24.6812 58.9884 24.6812C58.7181 24.6812 58.4955 24.6295 58.3206 24.5262C58.2649 24.4944 58.2132 24.4427 58.1655 24.3711C58.1258 24.2996 58.1059 24.232 58.1059 24.1684C58.0741 23.8186 58.0463 23.3257 58.0224 22.6897C57.9986 22.0458 57.9787 21.6006 57.9628 21.3541C57.9628 21.3541 57.9588 21.2985 57.9509 21.1872C57.9509 21.0679 57.9509 20.9526 57.9509 20.8413L57.939 20.6744C57.9628 20.6744 58.0264 20.6625 58.1298 20.6386C58.2411 20.6068 58.3126 20.5869 58.3444 20.579C58.4319 20.5631 58.6227 20.5551 58.9168 20.5551C59.2666 20.5551 59.4852 20.571 59.5727 20.6028C59.6681 20.6346 59.7158 20.6943 59.7158 20.7817C59.7158 20.8135 59.7277 20.893 59.7516 21.0202C59.7834 21.1395 59.7993 21.219 59.7993 21.2587C59.7993 21.3859 59.8311 21.6284 59.8947 21.9861C59.9026 22.0338 59.9145 22.1372 59.9304 22.2962C59.9463 22.4472 59.9702 22.5824 60.002 22.7016L61.4688 22.6182ZM66.3699 18.2298C66.3699 19.1838 66.3699 19.6965 66.3699 19.7681C66.3699 19.8953 66.354 20.1298 66.3222 20.4717C66.2984 20.6625 66.1871 20.7618 65.9883 20.7698C65.567 20.7777 65.2013 20.7738 64.8912 20.7579C64.7163 20.7499 64.5653 20.6863 64.4381 20.5671C64.3188 20.4478 64.2552 20.3047 64.2473 20.1378C64.2393 19.4461 64.2393 18.5875 64.2473 17.562C64.2473 17.4984 64.2552 17.0333 64.2711 16.1667C64.287 15.3002 64.299 14.7715 64.3069 14.5807C64.3069 14.3422 64.3904 14.1792 64.5573 14.0918C64.5971 14.0679 64.6686 14.0282 64.772 13.9725C64.8833 13.9169 64.9668 13.8771 65.0224 13.8533C65.0781 13.8294 65.1496 13.8016 65.2371 13.7698C65.3325 13.7301 65.4199 13.7062 65.4994 13.6983C65.5869 13.6824 65.6743 13.6784 65.7618 13.6863C65.9128 13.6943 66.0201 13.7102 66.0837 13.734C66.2507 13.7976 66.3342 13.9209 66.3342 14.1037C66.3342 14.2548 66.3421 14.6523 66.358 15.2962C66.3819 15.9322 66.4017 16.3138 66.4176 16.441C66.4335 16.5364 66.5091 16.5921 66.6442 16.608C67.2166 16.6477 67.5386 16.6755 67.6101 16.6914C67.785 16.7312 67.8844 16.8703 67.9083 17.1088C67.948 17.4666 67.8844 17.7846 67.7175 18.0628C67.6698 18.1423 67.5346 18.198 67.312 18.2298C67.2882 18.2298 66.9741 18.2298 66.3699 18.2298ZM59.1553 16.2502C59.1553 17.2042 59.1553 17.7249 59.1553 17.8124C59.1633 18.0032 59.1951 18.1264 59.2507 18.1821C59.3143 18.2377 59.4455 18.2695 59.6442 18.2775C59.6999 18.2775 59.7873 18.2814 59.9066 18.2894C60.0258 18.2894 60.1173 18.2894 60.1809 18.2894C60.3319 18.2894 60.4671 18.2457 60.5863 18.1582C60.7056 18.0628 60.7692 17.9475 60.7771 17.8124C60.8089 17.1287 60.7334 16.5682 60.5505 16.131L59.1553 16.2502ZM57.5216 14.5688C57.6488 14.5608 57.8952 14.5688 58.2609 14.5926C58.6266 14.6085 58.885 14.6125 59.0361 14.6046C59.1156 14.5966 59.2308 14.5966 59.3819 14.6046C59.5329 14.6125 59.6442 14.6125 59.7158 14.6046C60.638 14.5489 61.437 14.5926 62.1127 14.7357C62.6374 14.855 62.8719 15.2008 62.8163 15.7732C62.8004 15.972 62.7765 16.3973 62.7447 17.0492C62.7288 17.4069 62.7129 17.6931 62.697 17.9078C62.6811 18.1145 62.6414 18.3729 62.5778 18.6829C62.5221 18.985 62.4426 19.2553 62.3393 19.4938C62.2598 19.6926 62.1485 19.8357 62.0054 19.9231C61.6476 20.1457 61.3296 20.3007 61.0514 20.3882C60.948 20.4041 60.8725 20.412 60.8248 20.412C60.7771 20.412 60.6936 20.4081 60.5744 20.4001C60.4631 20.3842 60.3836 20.3763 60.3359 20.3763C59.2626 20.3365 58.6584 20.3127 58.5233 20.3047C58.2848 20.2888 58.0542 20.1656 57.8316 19.935C57.609 19.6965 57.4818 19.458 57.45 19.2195C57.4103 18.9095 57.3904 18.5637 57.3904 18.1821C57.3984 17.8005 57.4103 17.5063 57.4262 17.2996C57.4421 17.0929 57.4699 16.7471 57.5097 16.2621C57.5256 16.0952 57.5335 15.9203 57.5335 15.7374C57.5335 15.5546 57.5295 15.3439 57.5216 15.1054C57.5216 14.8669 57.5216 14.688 57.5216 14.5688ZM70.8418 22.0577C70.818 22.0577 70.7583 22.0617 70.6629 22.0696C70.5675 22.0776 70.5 22.0815 70.4602 22.0815C70.4205 22.0815 70.3648 22.0776 70.2933 22.0696C70.2217 22.0537 70.17 22.0338 70.1382 22.01C70.1064 21.9782 70.0707 21.9384 70.0309 21.8907C69.9991 21.8351 69.9792 21.7675 69.9713 21.688C69.9633 21.6403 69.9474 21.5608 69.9236 21.4495C69.8997 21.3303 69.8878 21.2309 69.8878 21.1514C69.8878 21.0401 69.9037 20.9288 69.9355 20.8175C69.9435 20.7698 69.9792 20.7221 70.0428 20.6744C70.1144 20.6187 70.1899 20.5909 70.2694 20.5909C73.4892 20.583 75.739 20.6148 77.019 20.6863C77.2813 20.7022 77.488 20.734 77.6391 20.7817C77.8219 20.8374 77.9292 20.9169 77.961 21.0202C78.0008 21.1633 78.0207 21.3144 78.0207 21.4734C78.0207 21.6483 77.9928 21.8629 77.9372 22.1173C77.8497 22.5307 77.6073 22.8249 77.2098 22.9998C76.9951 23.0952 76.6056 23.1667 76.0411 23.2144C75.8424 23.2303 75.5522 23.2422 75.1706 23.2502C74.7969 23.2581 74.5306 23.2661 74.3716 23.274C74.3478 23.274 73.9224 23.278 73.0956 23.286C72.2688 23.3019 71.8117 23.3217 71.7243 23.3456L71.7362 23.6318C71.8793 23.6318 72.4159 23.6238 73.3461 23.6079C74.2842 23.6 74.8248 23.596 74.9679 23.596C75.2938 23.596 75.58 23.592 75.8265 23.5841C76.0014 23.5841 76.2597 23.5722 76.6016 23.5483C76.9434 23.5245 77.1939 23.5125 77.3529 23.5125C77.3608 23.5125 77.3688 23.5125 77.3767 23.5125C77.5993 23.5125 77.7106 23.5841 77.7106 23.7272C77.7106 23.751 77.7106 23.7709 77.7106 23.7868C77.647 24.1207 77.5874 24.3751 77.5317 24.55C77.4761 24.717 77.3807 24.8322 77.2455 24.8958C77.1183 24.9674 76.8997 25.0032 76.5897 25.0032C76.542 25.0032 76.4943 25.0032 76.4466 25.0032C76.1365 24.9952 75.6993 24.9714 75.1348 24.9316C74.5783 24.8998 74.1848 24.8799 73.9542 24.872C73.6044 24.8561 73.2904 24.8521 73.0122 24.8601C72.7419 24.876 72.4358 24.876 72.0939 24.8601C71.76 24.8521 71.4619 24.8243 71.1996 24.7766C70.8418 24.705 70.5914 24.5858 70.4483 24.4188C70.3131 24.2519 70.2217 24.0293 70.174 23.751C70.1661 23.6954 70.1621 23.5682 70.1621 23.3694C70.1621 23.3535 70.1661 23.2701 70.174 23.119C70.182 22.8885 70.2456 22.7295 70.3648 22.642C70.4841 22.5546 70.6947 22.5069 70.9968 22.4989C72.1416 22.4751 73.6601 22.4274 75.5522 22.3558C75.7907 22.3479 75.9099 22.2723 75.9099 22.1292C75.9099 22.1292 75.906 22.1094 75.898 22.0696C75.898 22.0299 75.898 21.9941 75.898 21.9623C75.898 21.9225 75.898 21.8987 75.898 21.8907C75.906 21.8748 75.8463 21.8669 75.7191 21.8669C75.5999 21.8589 75.3852 21.8629 75.0752 21.8788C74.7731 21.8868 74.4471 21.8987 74.0973 21.9146C73.7555 21.9305 73.2705 21.9543 72.6425 21.9861C72.0224 22.01 71.4222 22.0338 70.8418 22.0577ZM71.9389 16.3218C73.2745 16.2423 73.99 16.1985 74.0854 16.1906L75.3733 16.1071L76.7924 16.0475L77.6152 16.1429C77.6311 16.1508 77.651 16.1588 77.6748 16.1667C77.6987 16.1747 77.7384 16.1946 77.7941 16.2264C77.8577 16.2582 77.9094 16.2939 77.9491 16.3337C77.9889 16.3655 78.0207 16.4132 78.0445 16.4768C78.0763 16.5324 78.0843 16.5921 78.0684 16.6557C78.0445 16.7749 78.0087 16.8981 77.961 17.0253C77.9213 17.1446 77.8696 17.2837 77.806 17.4427C77.7424 17.6017 77.6987 17.713 77.6748 17.7766C75.6873 17.8164 74.622 17.8323 74.4789 17.8243C74.4153 17.8243 73.2984 17.7885 71.128 17.717C71.1042 17.717 71.0088 17.717 70.8418 17.717C70.6749 17.717 70.5795 17.717 70.5556 17.717C70.2774 17.717 70.0985 17.6812 70.019 17.6097C69.9395 17.5302 69.9077 17.391 69.9236 17.1923C69.9236 17.0651 69.9514 16.8822 70.0071 16.6437C70.0627 16.4052 70.0905 16.2701 70.0905 16.2383C70.1064 16.1508 70.1263 16.0236 70.1502 15.8567C70.174 15.6818 70.1939 15.5546 70.2098 15.4751L70.4006 14.4376L71.6646 13.901C72.7458 13.9487 73.5607 13.9089 74.1093 13.7817C74.1808 13.7579 74.2563 13.742 74.3358 13.734C74.4233 13.7261 74.5187 13.7261 74.622 13.734C74.7254 13.734 74.8089 13.738 74.8725 13.746C74.9361 13.746 75.0315 13.7539 75.1587 13.7698C75.2938 13.7778 75.3813 13.7857 75.421 13.7937C75.6834 13.8175 76.061 13.8573 76.5539 13.9129C77.0468 13.9686 77.4006 14.0043 77.6152 14.0202C77.7822 14.0361 77.9014 14.0719 77.973 14.1276C78.0445 14.1753 78.0684 14.2587 78.0445 14.378L77.9133 15.1173C77.6589 15.3717 77.4085 15.4989 77.1621 15.4989C76.9236 15.5069 76.5777 15.5109 76.1246 15.5109C75.6794 15.5029 75.3574 15.4989 75.1587 15.4989C74.4909 15.4989 73.8986 15.5109 73.3818 15.5347C73.2785 15.5427 73.1155 15.5625 72.8929 15.5943C72.6703 15.6182 72.4994 15.6301 72.3801 15.6301C72.245 15.6381 72.1456 15.6619 72.082 15.7017C72.0184 15.7335 71.9866 15.7931 71.9866 15.8805C71.9787 15.9044 71.9628 16.0515 71.9389 16.3218ZM74.3001 19.9947C73.3302 20.0344 72.7975 20.0543 72.7021 20.0543C70.7782 20.0543 69.6851 20.0225 69.4227 19.9589C69.1922 19.8953 69.057 19.78 69.0173 19.6131C68.9855 19.4461 69.0133 19.1957 69.1008 18.8618C69.1405 18.8141 69.1644 18.7505 69.1723 18.671C69.1882 18.5835 69.224 18.516 69.2796 18.4683C69.3114 18.4365 69.3671 18.4206 69.4466 18.4206C69.5499 18.4206 70.2177 18.4206 71.45 18.4206C72.6822 18.4206 73.35 18.4206 73.4534 18.4206C73.517 18.4206 73.676 18.4325 73.9304 18.4563C74.1927 18.4802 74.3398 18.4961 74.3716 18.504C74.4511 18.504 75.099 18.516 76.3154 18.5398C77.5397 18.5557 78.2433 18.5756 78.4261 18.5994C78.4659 18.5994 78.5096 18.6273 78.5573 18.6829C78.6129 18.7306 78.6447 18.7743 78.6527 18.8141C78.7004 19.1241 78.7004 19.3626 78.6527 19.5296C78.5891 19.7919 78.3625 19.935 77.973 19.9589C77.8537 19.9668 77.2376 19.9748 76.1246 19.9827C75.0116 19.9907 74.4034 19.9986 74.3001 20.0066V19.9947ZM80.668 15.9163C80.7555 15.7653 80.8827 15.6738 81.0496 15.642C82.0354 15.4592 82.7867 15.332 83.3034 15.2604C84.0905 15.1491 84.8219 15.1412 85.4976 15.2366C85.5135 15.2366 85.5533 15.2406 85.6169 15.2485C85.6805 15.2565 85.7242 15.2644 85.7481 15.2724C85.7799 15.2724 85.8196 15.2803 85.8673 15.2962C85.915 15.3042 85.9548 15.3201 85.9866 15.3439C86.0263 15.3678 86.0621 15.3956 86.0939 15.4274C86.1575 15.483 86.2211 15.6023 86.2847 15.7851C86.5868 16.6358 86.714 17.5977 86.6663 18.671C86.6504 19.0605 86.5908 19.6369 86.4874 20.4001C86.4715 20.5591 86.4437 20.9248 86.4039 21.4972C86.3721 22.0617 86.3165 22.4949 86.237 22.797C86.1575 23.123 86.0541 23.3456 85.9269 23.4648C85.8315 23.5602 85.5533 23.6238 85.0922 23.6556C84.639 23.6874 84.2296 23.6914 83.8639 23.6676C83.6811 23.6596 83.5777 23.6 83.5539 23.4887C83.538 23.441 83.538 23.3814 83.5539 23.3098C83.5698 23.2462 83.5896 23.1747 83.6135 23.0952C83.6373 23.0157 83.6493 22.96 83.6493 22.9282C83.689 22.7136 83.7208 22.4949 83.7447 22.2723C83.7924 21.8748 83.8242 21.4455 83.8401 20.9844C83.856 20.412 83.844 19.5614 83.8043 18.4325C83.7963 18.2655 83.7725 18.1463 83.7327 18.0747C83.6294 17.8839 83.3829 17.8323 82.9934 17.9197C82.5561 18.0231 81.7691 18.0549 80.6322 18.0151C80.5766 18.0151 80.5368 18.0032 80.513 17.9793C80.4812 17.9475 80.4693 17.8839 80.4772 17.7885C80.5488 16.6358 80.6124 16.0117 80.668 15.9163ZM88.2404 14.0799C88.7015 14.056 88.944 14.0441 88.9678 14.0441C89.2302 14.052 89.4885 14.0759 89.7429 14.1156C90.0053 14.1474 90.2358 14.1713 90.4346 14.1872C90.6651 14.211 90.7844 14.3382 90.7923 14.5688C90.8003 14.855 90.8202 15.2922 90.852 15.8805C90.8917 16.4688 90.9156 16.914 90.9235 17.2161C90.9394 17.4387 90.9434 17.8402 90.9354 18.4206C90.9354 19.0009 90.9354 19.4024 90.9354 19.625C90.9434 19.943 90.9434 20.6028 90.9354 21.6045C90.9354 22.6062 90.9354 23.2701 90.9354 23.596C90.9354 23.604 90.9354 23.6119 90.9354 23.6199C90.9354 23.7868 90.9116 23.9458 90.8639 24.0969C90.7605 24.391 90.5697 24.5341 90.2915 24.5262C90.1643 24.5262 90.0132 24.5262 89.8383 24.5262C89.6714 24.5341 89.5283 24.5301 89.409 24.5142C89.3136 24.5063 89.2143 24.4745 89.1109 24.4188C89.0076 24.3632 88.94 24.2996 88.9082 24.228C88.6776 23.6556 88.5544 23.2144 88.5385 22.9044C88.5067 22.2048 88.4829 21.0321 88.467 19.3865C88.459 17.7408 88.4431 16.6159 88.4193 16.0117C88.4193 15.8209 88.4073 15.6222 88.3835 15.4155C88.3676 15.2008 88.3437 14.9583 88.3119 14.688C88.2801 14.4177 88.2563 14.215 88.2404 14.0799Z" fill="#578246"/>
<path d="M20.3348 16.6173C21.3047 16.5457 21.8453 16.506 21.9566 16.498C22.1633 16.498 22.3859 16.5656 22.6244 16.7008C22.68 16.7326 22.7277 16.7922 22.7675 16.8796C22.8072 16.9591 22.8271 17.0307 22.8271 17.0943C22.8191 17.6428 22.8867 18.1318 23.0298 18.5611C23.0934 18.7678 23.2206 18.895 23.4114 18.9427C23.9679 19.0937 24.6635 19.3004 25.4983 19.5628C25.6414 19.6105 25.7408 19.6701 25.7964 19.7416C25.8521 19.8052 25.8481 19.9126 25.7845 20.0636C25.7447 20.159 25.709 20.3021 25.6772 20.4929C25.6454 20.6758 25.6215 20.791 25.6056 20.8387C25.5341 21.117 25.3989 21.3157 25.2002 21.435C25.0014 21.5542 24.743 21.6377 24.425 21.6854C24.3773 21.6934 24.2303 21.7212 23.9838 21.7689C23.7453 21.8086 23.5625 21.8325 23.4353 21.8404C23.2524 21.8404 23.0656 21.7609 22.8748 21.6019C22.6522 21.4191 22.4495 21.2005 22.2666 20.9461C21.9963 20.5645 21.6584 20.2862 21.253 20.1113C21.094 20.0318 20.9072 20.0398 20.6925 20.1352C20.2871 20.318 19.7942 20.5684 19.2138 20.8864C19.19 20.9023 19.1582 20.9182 19.1184 20.9341C18.9515 21.0295 18.8203 21.1011 18.7249 21.1488C18.6295 21.1965 18.5023 21.2402 18.3433 21.28C18.1843 21.3197 18.0332 21.3316 17.8901 21.3157C17.7152 21.3078 17.596 21.276 17.5324 21.2203C17.4688 21.1647 17.4251 21.0534 17.4012 20.8864C17.3774 20.7274 17.3416 20.5724 17.2939 20.4214C17.1031 19.8331 17.2859 19.3958 17.8424 19.1096C19.2257 18.418 19.9452 18.0602 20.0009 18.0364C20.1519 17.9648 20.2513 17.8694 20.299 17.7502C20.3546 17.6309 20.3864 17.4799 20.3944 17.297C20.3944 17.2732 20.3745 17.0466 20.3348 16.6173ZM21.4676 25.5253C21.2689 25.5014 20.5892 25.4617 19.4285 25.406C18.2678 25.3583 17.5721 25.3225 17.3416 25.2987C17.27 25.2907 17.1587 25.2907 17.0077 25.2987C16.8566 25.3146 16.7414 25.3186 16.6619 25.3106C16.6062 25.3027 16.5426 25.2788 16.4711 25.2391C16.4075 25.1993 16.3717 25.1596 16.3637 25.1198C16.3001 24.7462 16.2485 24.289 16.2087 23.7484C16.2008 23.7166 16.2167 23.6809 16.2564 23.6411C16.3041 23.5934 16.3439 23.5656 16.3757 23.5576C16.646 23.502 17.111 23.4384 17.7709 23.3668C18.4307 23.2953 19.1303 23.2277 19.8697 23.1641C20.609 23.1005 21.0741 23.0568 21.2649 23.0329C21.6465 22.9932 22.4097 22.9614 23.5545 22.9375C24.6993 22.9137 25.3154 22.9018 25.4029 22.9018C25.4824 22.8938 25.5977 22.8859 25.7487 22.8779C25.9077 22.862 26.023 22.8541 26.0945 22.8541C26.174 22.8461 26.2893 22.8461 26.4404 22.8541C26.822 22.8859 26.9651 23.0926 26.8697 23.4742C26.7425 23.9273 26.5954 24.4043 26.4284 24.9052C26.3966 25.0085 26.3092 25.088 26.1661 25.1437C25.9753 25.2152 25.7765 25.2589 25.5698 25.2748C25.2598 25.3066 24.584 25.3464 23.5426 25.3941C22.5011 25.4497 21.8095 25.4935 21.4676 25.5253ZM30.471 22.6513H32.7606C33.2933 22.6513 33.5795 22.6513 33.6192 22.6513C33.818 22.6354 33.969 22.7428 34.0724 22.9733C34.2711 23.4424 34.2512 23.8717 34.0127 24.2612C33.9014 24.4441 33.655 24.5673 33.2734 24.6309C32.1604 24.8058 31.3733 24.8932 30.9122 24.8932C30.8884 24.8932 30.7811 24.8932 30.5903 24.8932C30.4074 24.9012 30.2921 24.9012 30.2444 24.8932C30.2047 24.8932 30.1053 24.8893 29.9463 24.8813C29.7953 24.8813 29.68 24.8773 29.6005 24.8694C29.5289 24.8614 29.4296 24.8495 29.3024 24.8336C29.1752 24.8177 29.0599 24.7978 28.9565 24.774C28.8532 24.7501 28.7498 24.7183 28.6465 24.6786C28.4477 24.615 28.2887 24.4639 28.1695 24.2254C28.0582 23.979 28.0224 23.7246 28.0622 23.4622C28.1258 23.1283 28.1655 22.7944 28.1814 22.4605C28.1973 22.0869 28.2172 21.5463 28.241 20.8387C28.2649 20.1232 28.2848 19.5985 28.3007 19.2646C28.3404 18.4537 28.3841 17.9251 28.4318 17.6786C28.4636 17.4958 28.6028 17.1897 28.8492 16.7604C28.8572 16.7445 28.877 16.7365 28.9088 16.7365C28.9486 16.7286 28.9963 16.7286 29.0519 16.7365C29.1155 16.7365 29.1553 16.7365 29.1712 16.7365C29.7992 16.7047 30.1769 16.6849 30.3041 16.6769C31.3137 16.6372 31.91 16.6173 32.0928 16.6173C32.4903 16.6093 32.9951 16.6332 33.6073 16.6888C33.7424 16.6968 33.8458 16.7564 33.9173 16.8677C34.1399 17.2016 34.1996 17.5474 34.0962 17.9052C34.0008 18.255 33.7742 18.4855 33.4165 18.5968C33.2416 18.6525 33.0587 18.7042 32.8679 18.7519C32.6851 18.7916 32.4545 18.8393 32.1763 18.895C31.898 18.9506 31.7152 18.9904 31.6277 19.0142C31.5403 19.0301 31.3694 19.0619 31.115 19.1096C30.8685 19.1573 30.6777 19.1971 30.5426 19.2289C30.3359 19.2845 30.2564 19.4395 30.3041 19.6939C30.3597 19.9801 30.4114 20.1471 30.4591 20.1948C30.5147 20.2425 30.6658 20.2584 30.9122 20.2425C31.0474 20.2345 31.8702 20.167 33.3807 20.0398C33.3966 20.0398 33.4085 20.0398 33.4165 20.0398C33.4324 20.0398 33.4483 20.0398 33.4642 20.0398C33.5119 20.0477 33.5914 20.0477 33.7027 20.0398C33.8219 20.0239 33.9173 20.0318 33.9889 20.0636C34.0604 20.0875 34.1081 20.1511 34.132 20.2544C34.2751 20.8507 34.2433 21.2641 34.0366 21.4946C33.8617 21.6854 33.5516 21.8126 33.1064 21.8762C32.9156 21.908 32.6414 21.9319 32.2836 21.9478C31.9259 21.9557 31.6834 21.9637 31.5562 21.9716C31.5403 21.9716 31.4727 21.9756 31.3535 21.9835C31.2422 21.9915 31.1666 21.9994 31.1269 22.0074C31.0951 22.0153 31.0355 22.0312 30.948 22.0551C30.8685 22.071 30.797 22.0988 30.7334 22.1386C30.6777 22.1704 30.6221 22.2141 30.5664 22.2697C30.5585 22.2777 30.5068 22.3572 30.4114 22.5082C30.4352 22.5639 30.4551 22.6116 30.471 22.6513ZM38.5442 15.8779C38.5442 15.8859 38.5522 15.8938 38.5681 15.9018C38.5999 15.9177 38.6476 15.9376 38.7112 15.9614C38.7827 15.9773 38.8424 15.9972 38.8901 16.021C38.9378 16.0449 38.9656 16.0687 38.9735 16.0926C39.0371 16.3152 39.061 16.5736 39.0451 16.8677C39.0371 16.9552 38.9815 17.5872 38.8781 18.7638C38.7986 19.6462 38.7231 20.5287 38.6516 21.4111C38.5721 22.2618 38.5283 22.7746 38.5204 22.9495C38.5045 23.0846 38.4886 23.2794 38.4727 23.5338C38.4647 23.7802 38.4528 24.0068 38.4369 24.2135C38.421 24.4123 38.4011 24.6031 38.3773 24.7859C38.3534 24.9449 38.2421 25.1874 38.0434 25.5133C37.9957 25.5928 37.8884 25.6326 37.7214 25.6326C37.6896 25.6405 37.3398 25.6445 36.672 25.6445C36.5528 25.6445 36.4574 25.6087 36.3858 25.5372C36.3143 25.4736 36.2745 25.3861 36.2666 25.2748C36.2666 25.2748 36.2387 24.8575 36.1831 24.0227C36.1831 23.9989 36.1751 23.9154 36.1592 23.7723C36.1433 23.6292 36.1394 23.5219 36.1473 23.4503C36.1712 23.1005 36.2189 22.7547 36.2904 22.4128C36.3302 22.1823 36.3143 22.0312 36.2427 21.9597C36.1791 21.8881 36.036 21.8762 35.8134 21.9239C35.4875 21.9875 35.2132 21.912 34.9906 21.6973C34.768 21.4827 34.6845 21.2124 34.7402 20.8864C34.7958 20.5684 34.927 20.318 35.1337 20.1352C35.3404 19.9523 35.6067 19.849 35.9327 19.8251C36.0917 19.8172 36.2308 19.7615 36.35 19.6582C36.4772 19.5469 36.5448 19.4197 36.5528 19.2766C36.5687 19.0381 36.5965 18.6604 36.6362 18.1437C36.676 17.6269 36.7038 17.2334 36.7197 16.9631C36.7356 16.8359 36.7754 16.6292 36.839 16.343C36.9026 16.0807 37.0695 15.9535 37.3398 15.9614C37.6578 15.9694 37.952 15.9733 38.2223 15.9733C38.2302 15.9733 38.3375 15.9415 38.5442 15.8779ZM40.3807 16.7842C41.9627 16.8478 42.8253 16.8796 42.9684 16.8796C43.1036 16.8876 43.35 16.9075 43.7078 16.9393C44.0735 16.9631 44.3517 16.979 44.5425 16.987C44.8526 16.9949 45.2501 16.975 45.735 16.9273C45.9815 16.9035 46.1762 16.9552 46.3193 17.0824C46.4624 17.2016 46.5539 17.3447 46.5936 17.5117C46.6334 17.6786 46.6413 17.8575 46.6175 18.0483C46.6095 18.1198 46.5817 18.2232 46.534 18.3583C46.4942 18.4855 46.4704 18.5809 46.4624 18.6445C46.4386 18.8989 46.2915 19.0301 46.0212 19.0381C45.4011 19.054 44.9201 19.0579 44.5783 19.05C44.4034 19.05 43.8071 19.0222 42.7895 18.9665C42.718 18.9586 42.6464 18.9506 42.5749 18.9427C42.3284 18.895 42.1694 18.9705 42.0979 19.1692C42.0184 19.368 41.9786 19.4912 41.9786 19.5389C41.9866 20.8427 42.0025 21.7888 42.0263 22.3771C42.0263 22.4089 42.0502 22.4446 42.0979 22.4844C42.1456 22.5241 42.1853 22.544 42.2171 22.544C42.3443 22.5599 42.5232 22.5758 42.7538 22.5917C42.9923 22.5997 43.1513 22.6076 43.2308 22.6156C44.5664 22.7189 45.5124 22.7984 46.0689 22.8541C46.1087 22.8541 46.1524 22.8938 46.2001 22.9733C46.2557 23.0528 46.2836 23.1204 46.2836 23.176C46.2597 23.6053 46.2239 23.8796 46.1762 23.9989C46.1285 24.1102 45.9536 24.3328 45.6515 24.6667C45.58 24.7382 45.4925 24.778 45.3892 24.7859C45.2858 24.7939 45.0155 24.8098 44.5783 24.8336C44.149 24.8575 43.8191 24.8853 43.5885 24.9171C42.8015 25.0204 41.919 24.9409 40.9412 24.6786C40.7504 24.6229 40.5953 24.5395 40.4761 24.4282C40.3648 24.3248 40.2853 24.1658 40.2376 23.9512C40.1422 23.5616 40.0786 23.1283 40.0468 22.6513C40.0229 22.1743 40.015 21.7411 40.0229 21.3515C40.0388 20.962 40.0388 20.5327 40.0229 20.0636C39.9991 19.2925 40.0746 18.5134 40.2495 17.7263C40.2575 17.6945 40.3012 17.3805 40.3807 16.7842ZM47.6907 15.4129C48.1518 15.389 48.3943 15.3771 48.4181 15.3771C48.6805 15.385 48.9389 15.4089 49.1933 15.4486C49.4556 15.4804 49.6862 15.5043 49.8849 15.5202C50.1155 15.544 50.2347 15.6712 50.2427 15.9018C50.2506 16.188 50.2705 16.6252 50.3023 17.2135C50.342 17.8018 50.3659 18.247 50.3738 18.5491C50.3897 18.7717 50.3937 19.1732 50.3858 19.7536C50.3858 20.3339 50.3858 20.7354 50.3858 20.958C50.3937 21.276 50.3937 21.9358 50.3858 22.9375C50.3858 23.9392 50.3858 24.6031 50.3858 24.929C50.3858 24.937 50.3858 24.9449 50.3858 24.9529C50.3858 25.1198 50.3619 25.2788 50.3142 25.4299C50.2109 25.724 50.0201 25.8671 49.7418 25.8592C49.6146 25.8592 49.4636 25.8592 49.2887 25.8592C49.1217 25.8671 48.9786 25.8631 48.8594 25.8472C48.764 25.8393 48.6646 25.8075 48.5612 25.7518C48.4579 25.6962 48.3903 25.6326 48.3585 25.561C48.128 24.9886 48.0047 24.5474 47.9888 24.2374C47.957 23.5378 47.9332 22.3651 47.9173 20.7195C47.9093 19.0738 47.8934 17.9489 47.8696 17.3447C47.8696 17.1539 47.8577 16.9552 47.8338 16.7485C47.8179 16.5338 47.7941 16.2913 47.7623 16.021C47.7305 15.7507 47.7066 15.548 47.6907 15.4129ZM61.4688 23.9512C63.0985 23.8558 64.0128 23.8001 64.2115 23.7842C64.4182 23.7683 64.6607 23.7484 64.9389 23.7246C65.2251 23.6928 65.4636 23.6689 65.6544 23.653C65.8532 23.6292 66.0122 23.6173 66.1314 23.6173C66.2904 23.6173 66.4057 23.812 66.4773 24.2016C66.4932 24.2811 66.5011 24.4441 66.5011 24.6905C66.5011 24.9608 66.4296 25.2391 66.2865 25.5253C66.2388 25.6048 66.1314 25.6564 65.9645 25.6803C65.7975 25.7121 65.2371 25.7518 64.2831 25.7995C63.337 25.8472 62.7726 25.883 62.5897 25.9069C62.55 25.9148 62.5062 25.9188 62.4585 25.9188C62.2598 25.9188 61.8305 25.9228 61.1706 25.9307C60.5187 25.9466 60.0417 25.9625 59.7396 25.9784C59.6681 25.9784 59.5449 25.9824 59.37 25.9903C59.203 26.0062 59.0758 26.0142 58.9884 26.0142C58.7181 26.0142 58.4955 25.9625 58.3206 25.8592C58.2649 25.8274 58.2132 25.7757 58.1655 25.7041C58.1258 25.6326 58.1059 25.565 58.1059 25.5014C58.0741 25.1516 58.0463 24.6587 58.0224 24.0227C57.9986 23.3788 57.9787 22.9336 57.9628 22.6871C57.9628 22.6871 57.9588 22.6315 57.9509 22.5202C57.9509 22.4009 57.9509 22.2856 57.9509 22.1743L57.939 22.0074C57.9628 22.0074 58.0264 21.9955 58.1298 21.9716C58.2411 21.9398 58.3126 21.9199 58.3444 21.912C58.4319 21.8961 58.6227 21.8881 58.9168 21.8881C59.2666 21.8881 59.4852 21.904 59.5727 21.9358C59.6681 21.9676 59.7158 22.0273 59.7158 22.1147C59.7158 22.1465 59.7277 22.226 59.7516 22.3532C59.7834 22.4725 59.7993 22.552 59.7993 22.5917C59.7993 22.7189 59.8311 22.9614 59.8947 23.3191C59.9026 23.3668 59.9145 23.4702 59.9304 23.6292C59.9463 23.7802 59.9702 23.9154 60.002 24.0346L61.4688 23.9512ZM66.3699 19.5628C66.3699 20.5168 66.3699 21.0295 66.3699 21.1011C66.3699 21.2283 66.354 21.4628 66.3222 21.8047C66.2984 21.9955 66.1871 22.0948 65.9883 22.1028C65.567 22.1107 65.2013 22.1068 64.8912 22.0909C64.7163 22.0829 64.5653 22.0193 64.4381 21.9001C64.3188 21.7808 64.2552 21.6377 64.2473 21.4708C64.2393 20.7791 64.2393 19.9205 64.2473 18.895C64.2473 18.8314 64.2552 18.3663 64.2711 17.4997C64.287 16.6332 64.299 16.1045 64.3069 15.9137C64.3069 15.6752 64.3904 15.5122 64.5573 15.4248C64.5971 15.4009 64.6686 15.3612 64.772 15.3055C64.8833 15.2499 64.9668 15.2101 65.0224 15.1863C65.0781 15.1624 65.1496 15.1346 65.2371 15.1028C65.3325 15.0631 65.4199 15.0392 65.4994 15.0313C65.5869 15.0154 65.6743 15.0114 65.7618 15.0193C65.9128 15.0273 66.0201 15.0432 66.0837 15.067C66.2507 15.1306 66.3342 15.2539 66.3342 15.4367C66.3342 15.5878 66.3421 15.9853 66.358 16.6292C66.3819 17.2652 66.4017 17.6468 66.4176 17.774C66.4335 17.8694 66.5091 17.9251 66.6442 17.941C67.2166 17.9807 67.5386 18.0085 67.6101 18.0244C67.785 18.0642 67.8844 18.2033 67.9083 18.4418C67.948 18.7996 67.8844 19.1176 67.7175 19.3958C67.6698 19.4753 67.5346 19.531 67.312 19.5628C67.2882 19.5628 66.9741 19.5628 66.3699 19.5628ZM59.1553 17.5832C59.1553 18.5372 59.1553 19.0579 59.1553 19.1454C59.1633 19.3362 59.1951 19.4594 59.2507 19.5151C59.3143 19.5707 59.4455 19.6025 59.6442 19.6105C59.6999 19.6105 59.7873 19.6144 59.9066 19.6224C60.0258 19.6224 60.1173 19.6224 60.1809 19.6224C60.3319 19.6224 60.4671 19.5787 60.5863 19.4912C60.7056 19.3958 60.7692 19.2805 60.7771 19.1454C60.8089 18.4617 60.7334 17.9012 60.5505 17.464L59.1553 17.5832ZM57.5216 15.9018C57.6488 15.8938 57.8952 15.9018 58.2609 15.9256C58.6266 15.9415 58.885 15.9455 59.0361 15.9376C59.1156 15.9296 59.2308 15.9296 59.3819 15.9376C59.5329 15.9455 59.6442 15.9455 59.7158 15.9376C60.638 15.8819 61.437 15.9256 62.1127 16.0687C62.6374 16.188 62.8719 16.5338 62.8163 17.1062C62.8004 17.305 62.7765 17.7303 62.7447 18.3822C62.7288 18.7399 62.7129 19.0261 62.697 19.2408C62.6811 19.4475 62.6414 19.7059 62.5778 20.0159C62.5221 20.318 62.4426 20.5883 62.3393 20.8268C62.2598 21.0256 62.1485 21.1687 62.0054 21.2561C61.6476 21.4787 61.3296 21.6337 61.0514 21.7212C60.948 21.7371 60.8725 21.745 60.8248 21.745C60.7771 21.745 60.6936 21.7411 60.5744 21.7331C60.4631 21.7172 60.3836 21.7093 60.3359 21.7093C59.2626 21.6695 58.6584 21.6457 58.5233 21.6377C58.2848 21.6218 58.0542 21.4986 57.8316 21.268C57.609 21.0295 57.4818 20.791 57.45 20.5525C57.4103 20.2425 57.3904 19.8967 57.3904 19.5151C57.3984 19.1335 57.4103 18.8393 57.4262 18.6326C57.4421 18.4259 57.4699 18.0801 57.5097 17.5951C57.5256 17.4282 57.5335 17.2533 57.5335 17.0704C57.5335 16.8876 57.5295 16.6769 57.5216 16.4384C57.5216 16.1999 57.5216 16.021 57.5216 15.9018ZM70.8418 23.3907C70.818 23.3907 70.7583 23.3947 70.6629 23.4026C70.5675 23.4106 70.5 23.4145 70.4602 23.4145C70.4205 23.4145 70.3648 23.4106 70.2933 23.4026C70.2217 23.3867 70.17 23.3668 70.1382 23.343C70.1064 23.3112 70.0707 23.2714 70.0309 23.2237C69.9991 23.1681 69.9792 23.1005 69.9713 23.021C69.9633 22.9733 69.9474 22.8938 69.9236 22.7825C69.8997 22.6633 69.8878 22.5639 69.8878 22.4844C69.8878 22.3731 69.9037 22.2618 69.9355 22.1505C69.9435 22.1028 69.9792 22.0551 70.0428 22.0074C70.1144 21.9517 70.1899 21.9239 70.2694 21.9239C73.4892 21.916 75.739 21.9478 77.019 22.0193C77.2813 22.0352 77.488 22.067 77.6391 22.1147C77.8219 22.1704 77.9292 22.2499 77.961 22.3532C78.0008 22.4963 78.0207 22.6474 78.0207 22.8064C78.0207 22.9813 77.9928 23.1959 77.9372 23.4503C77.8497 23.8637 77.6073 24.1579 77.2098 24.3328C76.9951 24.4282 76.6056 24.4997 76.0411 24.5474C75.8424 24.5633 75.5522 24.5752 75.1706 24.5832C74.7969 24.5911 74.5306 24.5991 74.3716 24.607C74.3478 24.607 73.9224 24.611 73.0956 24.619C72.2688 24.6349 71.8117 24.6547 71.7243 24.6786L71.7362 24.9648C71.8793 24.9648 72.4159 24.9568 73.3461 24.9409C74.2842 24.933 74.8248 24.929 74.9679 24.929C75.2938 24.929 75.58 24.925 75.8265 24.9171C76.0014 24.9171 76.2597 24.9052 76.6016 24.8813C76.9434 24.8575 77.1939 24.8455 77.3529 24.8455C77.3608 24.8455 77.3688 24.8455 77.3767 24.8455C77.5993 24.8455 77.7106 24.9171 77.7106 25.0602C77.7106 25.084 77.7106 25.1039 77.7106 25.1198C77.647 25.4537 77.5874 25.7081 77.5317 25.883C77.4761 26.05 77.3807 26.1652 77.2455 26.2288C77.1183 26.3004 76.8997 26.3362 76.5897 26.3362C76.542 26.3362 76.4943 26.3362 76.4466 26.3362C76.1365 26.3282 75.6993 26.3044 75.1348 26.2646C74.5783 26.2328 74.1848 26.2129 73.9542 26.205C73.6044 26.1891 73.2904 26.1851 73.0122 26.1931C72.7419 26.209 72.4358 26.209 72.0939 26.1931C71.76 26.1851 71.4619 26.1573 71.1996 26.1096C70.8418 26.038 70.5914 25.9188 70.4483 25.7518C70.3131 25.5849 70.2217 25.3623 70.174 25.084C70.1661 25.0284 70.1621 24.9012 70.1621 24.7024C70.1621 24.6865 70.1661 24.6031 70.174 24.452C70.182 24.2215 70.2456 24.0625 70.3648 23.975C70.4841 23.8876 70.6947 23.8399 70.9968 23.8319C72.1416 23.8081 73.6601 23.7604 75.5522 23.6888C75.7907 23.6809 75.9099 23.6053 75.9099 23.4622C75.9099 23.4622 75.906 23.4424 75.898 23.4026C75.898 23.3629 75.898 23.3271 75.898 23.2953C75.898 23.2555 75.898 23.2317 75.898 23.2237C75.906 23.2078 75.8463 23.1999 75.7191 23.1999C75.5999 23.1919 75.3852 23.1959 75.0752 23.2118C74.7731 23.2198 74.4471 23.2317 74.0973 23.2476C73.7555 23.2635 73.2705 23.2873 72.6425 23.3191C72.0224 23.343 71.4222 23.3668 70.8418 23.3907ZM71.9389 17.6548C73.2745 17.5753 73.99 17.5315 74.0854 17.5236L75.3733 17.4401L76.7924 17.3805L77.6152 17.4759C77.6311 17.4838 77.651 17.4918 77.6748 17.4997C77.6987 17.5077 77.7384 17.5276 77.7941 17.5594C77.8577 17.5912 77.9094 17.6269 77.9491 17.6667C77.9889 17.6985 78.0207 17.7462 78.0445 17.8098C78.0763 17.8654 78.0843 17.9251 78.0684 17.9887C78.0445 18.1079 78.0087 18.2311 77.961 18.3583C77.9213 18.4776 77.8696 18.6167 77.806 18.7757C77.7424 18.9347 77.6987 19.046 77.6748 19.1096C75.6873 19.1494 74.622 19.1653 74.4789 19.1573C74.4153 19.1573 73.2984 19.1215 71.128 19.05C71.1042 19.05 71.0088 19.05 70.8418 19.05C70.6749 19.05 70.5795 19.05 70.5556 19.05C70.2774 19.05 70.0985 19.0142 70.019 18.9427C69.9395 18.8632 69.9077 18.724 69.9236 18.5253C69.9236 18.3981 69.9514 18.2152 70.0071 17.9767C70.0627 17.7382 70.0905 17.6031 70.0905 17.5713C70.1064 17.4838 70.1263 17.3566 70.1502 17.1897C70.174 17.0148 70.1939 16.8876 70.2098 16.8081L70.4006 15.7706L71.6646 15.234C72.7458 15.2817 73.5607 15.2419 74.1093 15.1147C74.1808 15.0909 74.2563 15.075 74.3358 15.067C74.4233 15.0591 74.5187 15.0591 74.622 15.067C74.7254 15.067 74.8089 15.071 74.8725 15.079C74.9361 15.079 75.0315 15.0869 75.1587 15.1028C75.2938 15.1108 75.3813 15.1187 75.421 15.1267C75.6834 15.1505 76.061 15.1903 76.5539 15.2459C77.0468 15.3016 77.4006 15.3373 77.6152 15.3532C77.7822 15.3691 77.9014 15.4049 77.973 15.4606C78.0445 15.5083 78.0684 15.5917 78.0445 15.711L77.9133 16.4503C77.6589 16.7047 77.4085 16.8319 77.1621 16.8319C76.9236 16.8399 76.5777 16.8439 76.1246 16.8439C75.6794 16.8359 75.3574 16.8319 75.1587 16.8319C74.4909 16.8319 73.8986 16.8439 73.3818 16.8677C73.2785 16.8757 73.1155 16.8955 72.8929 16.9273C72.6703 16.9512 72.4994 16.9631 72.3801 16.9631C72.245 16.9711 72.1456 16.9949 72.082 17.0347C72.0184 17.0665 71.9866 17.1261 71.9866 17.2135C71.9787 17.2374 71.9628 17.3845 71.9389 17.6548ZM74.3001 21.3277C73.3302 21.3674 72.7975 21.3873 72.7021 21.3873C70.7782 21.3873 69.6851 21.3555 69.4227 21.2919C69.1922 21.2283 69.057 21.113 69.0173 20.9461C68.9855 20.7791 69.0133 20.5287 69.1008 20.1948C69.1405 20.1471 69.1644 20.0835 69.1723 20.004C69.1882 19.9165 69.224 19.849 69.2796 19.8013C69.3114 19.7695 69.3671 19.7536 69.4466 19.7536C69.5499 19.7536 70.2177 19.7536 71.45 19.7536C72.6822 19.7536 73.35 19.7536 73.4534 19.7536C73.517 19.7536 73.676 19.7655 73.9304 19.7893C74.1927 19.8132 74.3398 19.8291 74.3716 19.837C74.4511 19.837 75.099 19.849 76.3154 19.8728C77.5397 19.8887 78.2433 19.9086 78.4261 19.9324C78.4659 19.9324 78.5096 19.9603 78.5573 20.0159C78.6129 20.0636 78.6447 20.1073 78.6527 20.1471C78.7004 20.4571 78.7004 20.6956 78.6527 20.8626C78.5891 21.1249 78.3625 21.268 77.973 21.2919C77.8537 21.2998 77.2376 21.3078 76.1246 21.3157C75.0116 21.3237 74.4034 21.3316 74.3001 21.3396V21.3277ZM80.668 17.2493C80.7555 17.0983 80.8827 17.0068 81.0496 16.975C82.0354 16.7922 82.7867 16.665 83.3034 16.5934C84.0905 16.4821 84.8219 16.4742 85.4976 16.5696C85.5135 16.5696 85.5533 16.5736 85.6169 16.5815C85.6805 16.5895 85.7242 16.5974 85.7481 16.6054C85.7799 16.6054 85.8196 16.6133 85.8673 16.6292C85.915 16.6372 85.9548 16.6531 85.9866 16.6769C86.0263 16.7008 86.0621 16.7286 86.0939 16.7604C86.1575 16.816 86.2211 16.9353 86.2847 17.1181C86.5868 17.9688 86.714 18.9307 86.6663 20.004C86.6504 20.3935 86.5908 20.9699 86.4874 21.7331C86.4715 21.8921 86.4437 22.2578 86.4039 22.8302C86.3721 23.3947 86.3165 23.8279 86.237 24.13C86.1575 24.456 86.0541 24.6786 85.9269 24.7978C85.8315 24.8932 85.5533 24.9568 85.0922 24.9886C84.639 25.0204 84.2296 25.0244 83.8639 25.0006C83.6811 24.9926 83.5777 24.933 83.5539 24.8217C83.538 24.774 83.538 24.7144 83.5539 24.6428C83.5698 24.5792 83.5896 24.5077 83.6135 24.4282C83.6373 24.3487 83.6493 24.293 83.6493 24.2612C83.689 24.0466 83.7208 23.8279 83.7447 23.6053C83.7924 23.2078 83.8242 22.7785 83.8401 22.3174C83.856 21.745 83.844 20.8944 83.8043 19.7655C83.7963 19.5985 83.7725 19.4793 83.7327 19.4077C83.6294 19.2169 83.3829 19.1653 82.9934 19.2527C82.5561 19.3561 81.7691 19.3879 80.6322 19.3481C80.5766 19.3481 80.5368 19.3362 80.513 19.3123C80.4812 19.2805 80.4693 19.2169 80.4772 19.1215C80.5488 17.9688 80.6124 17.3447 80.668 17.2493ZM88.2404 15.4129C88.7015 15.389 88.944 15.3771 88.9678 15.3771C89.2302 15.385 89.4885 15.4089 89.7429 15.4486C90.0053 15.4804 90.2358 15.5043 90.4346 15.5202C90.6651 15.544 90.7844 15.6712 90.7923 15.9018C90.8003 16.188 90.8202 16.6252 90.852 17.2135C90.8917 17.8018 90.9156 18.247 90.9235 18.5491C90.9394 18.7717 90.9434 19.1732 90.9354 19.7536C90.9354 20.3339 90.9354 20.7354 90.9354 20.958C90.9434 21.276 90.9434 21.9358 90.9354 22.9375C90.9354 23.9392 90.9354 24.6031 90.9354 24.929C90.9354 24.937 90.9354 24.9449 90.9354 24.9529C90.9354 25.1198 90.9116 25.2788 90.8639 25.4299C90.7605 25.724 90.5697 25.8671 90.2915 25.8592C90.1643 25.8592 90.0132 25.8592 89.8383 25.8592C89.6714 25.8671 89.5283 25.8631 89.409 25.8472C89.3136 25.8393 89.2143 25.8075 89.1109 25.7518C89.0076 25.6962 88.94 25.6326 88.9082 25.561C88.6776 24.9886 88.5544 24.5474 88.5385 24.2374C88.5067 23.5378 88.4829 22.3651 88.467 20.7195C88.459 19.0738 88.4431 17.9489 88.4193 17.3447C88.4193 17.1539 88.4073 16.9552 88.3835 16.7485C88.3676 16.5338 88.3437 16.2913 88.3119 16.021C88.2801 15.7507 88.2563 15.548 88.2404 15.4129Z" fill="white"/>
</svg>
