<svg width="648" height="58" viewBox="0 0 648 58" fill="none" xmlns="http://www.w3.org/2000/svg">
<rect width="648" height="58" rx="16" fill="#99C08E"/>
<path d="M299.124 22.0108C299.304 22.0108 299.682 22.0108 300.24 22.0468C300.78 22.0828 301.176 22.0828 301.41 22.0648C301.518 22.0648 301.698 22.0648 301.932 22.0648C302.148 22.0828 302.328 22.0828 302.436 22.0648C303.822 21.9928 305.028 22.0468 306.054 22.2628C306.846 22.4428 307.188 22.9648 307.116 23.8288C307.08 24.1348 307.044 24.7828 307.008 25.7548C306.972 26.2948 306.954 26.7268 306.936 27.0508C306.9 27.3748 306.846 27.7528 306.756 28.2208C306.666 28.6888 306.54 29.0848 306.396 29.4448C306.27 29.7508 306.108 29.9668 305.892 30.0928C305.352 30.4348 304.866 30.6688 304.452 30.7948C304.29 30.8308 304.182 30.8308 304.11 30.8308C304.038 30.8308 303.912 30.8308 303.732 30.8128C303.552 30.7948 303.444 30.7768 303.372 30.7768C301.752 30.7228 300.834 30.6868 300.636 30.6688C300.276 30.6508 299.916 30.4708 299.592 30.1108C299.25 29.7508 299.052 29.3908 299.016 29.0308C298.944 28.5628 298.926 28.0408 298.926 27.4648C298.926 26.8888 298.944 26.4568 298.98 26.1328C298.998 25.8268 299.034 25.3048 299.106 24.5668C299.124 24.3148 299.142 24.0628 299.142 23.7748C299.142 23.5048 299.124 23.1808 299.124 22.8208C299.124 22.4608 299.124 22.1908 299.124 22.0108ZM301.59 24.5488V26.9068C301.59 27.1948 301.644 27.3928 301.734 27.4648C301.824 27.5548 302.022 27.6088 302.328 27.6088C302.4 27.6088 302.544 27.6268 302.724 27.6268C302.904 27.6268 303.03 27.6268 303.138 27.6268C303.354 27.6268 303.57 27.5728 303.75 27.4288C303.93 27.2848 304.02 27.1228 304.038 26.9068C304.074 25.8808 303.966 25.0348 303.696 24.3688L301.59 24.5488ZM312.48 27.5368V29.8588C312.48 30.0568 312.444 30.4168 312.408 30.9208C312.372 31.2088 312.192 31.3708 311.904 31.3708C311.256 31.3888 310.716 31.3888 310.248 31.3528C309.978 31.3528 309.744 31.2448 309.564 31.0648C309.384 30.8848 309.276 30.6688 309.276 30.4168C309.258 29.3728 309.258 28.0768 309.276 26.5288C309.276 26.4388 309.276 25.7368 309.312 24.4228C309.33 23.1268 309.348 22.3168 309.366 22.0288C309.366 21.6688 309.492 21.4348 309.744 21.2908C309.798 21.2548 309.906 21.2008 310.068 21.1108C310.23 21.0388 310.356 20.9668 310.446 20.9308C310.518 20.8948 310.626 20.8588 310.77 20.8048C310.914 20.7508 311.04 20.7148 311.166 20.6968C311.292 20.6788 311.418 20.6788 311.562 20.6788C311.778 20.6968 311.94 20.7148 312.048 20.7508C312.3 20.8588 312.426 21.0388 312.426 21.3088C312.426 21.5428 312.426 22.1368 312.462 23.1088C312.498 24.0808 312.516 24.6568 312.552 24.8368C312.57 24.9808 312.678 25.0708 312.894 25.0888C313.758 25.1608 314.244 25.1968 314.352 25.2148C314.604 25.2868 314.766 25.4848 314.802 25.8448C314.856 26.3848 314.766 26.8708 314.514 27.2848C314.442 27.4108 314.226 27.5008 313.902 27.5368H312.48ZM305.082 34.1608C307.53 34.0168 308.916 33.9448 309.222 33.9088C309.528 33.8908 309.888 33.8548 310.32 33.8188C310.752 33.7828 311.112 33.7468 311.4 33.7108C311.688 33.6748 311.94 33.6568 312.12 33.6568C312.354 33.6568 312.534 33.9628 312.642 34.5388C312.66 34.6648 312.678 34.9168 312.678 35.2768C312.678 35.6908 312.57 36.1048 312.354 36.5368C312.282 36.6628 312.12 36.7528 311.868 36.7888C311.616 36.8248 310.77 36.8788 309.33 36.9508C307.89 37.0228 307.044 37.0768 306.774 37.1128C306.702 37.1308 306.648 37.1308 306.576 37.1308C306.27 37.1308 305.622 37.1488 304.632 37.1668C303.642 37.1848 302.922 37.2028 302.472 37.2208C302.364 37.2208 302.166 37.2388 301.914 37.2568C301.662 37.2748 301.464 37.2748 301.338 37.2748C300.924 37.2748 300.582 37.2028 300.33 37.0408C300.24 37.0048 300.168 36.9148 300.096 36.8068C300.024 36.6988 300.006 36.6088 300.006 36.5008C299.952 35.9788 299.916 35.2408 299.88 34.2688C299.844 33.2968 299.808 32.6308 299.79 32.2528L299.772 32.0008C299.772 31.8208 299.772 31.6588 299.772 31.4788L299.754 31.2268C299.79 31.2268 299.88 31.2088 300.042 31.1728C300.204 31.1368 300.312 31.1008 300.366 31.0828C300.492 31.0648 300.78 31.0468 301.23 31.0468C301.752 31.0468 302.076 31.0828 302.22 31.1188C302.364 31.1728 302.436 31.2628 302.436 31.3888C302.436 31.4428 302.454 31.5688 302.49 31.7488C302.526 31.9288 302.562 32.0548 302.562 32.1088C302.562 32.3068 302.598 32.6668 302.706 33.2068C302.706 33.2788 302.724 33.4408 302.76 33.6748C302.778 33.9088 302.814 34.1068 302.868 34.2868L305.082 34.1608ZM324.45 30.2008C322.974 30.2728 322.182 30.2908 322.038 30.2908C319.122 30.2908 317.484 30.2548 317.088 30.1468C316.728 30.0568 316.53 29.8768 316.476 29.6248C316.422 29.3728 316.458 28.9948 316.602 28.4908C316.656 28.4188 316.692 28.3288 316.71 28.2028C316.728 28.0768 316.782 27.9688 316.872 27.8968C316.908 27.8608 316.998 27.8248 317.124 27.8248H320.148H323.172C323.262 27.8248 323.496 27.8428 323.892 27.8788C324.288 27.9148 324.504 27.9508 324.558 27.9508C324.666 27.9508 325.656 27.9688 327.492 28.0048C329.328 28.0408 330.39 28.0588 330.678 28.0948C330.732 28.0948 330.804 28.1488 330.876 28.2208C330.948 28.2928 331.002 28.3648 331.02 28.4188C331.092 28.8868 331.092 29.2468 331.02 29.4988C330.912 29.8948 330.57 30.1108 329.994 30.1468C329.814 30.1648 328.878 30.1828 327.204 30.1828C325.512 30.2008 324.594 30.2188 324.45 30.2188V30.2008ZM320.886 24.6568C322.902 24.5488 323.982 24.4768 324.126 24.4588L326.07 24.3328L328.212 24.2428L329.454 24.3868C329.472 24.4048 329.508 24.4228 329.544 24.4228C329.58 24.4408 329.634 24.4768 329.724 24.5128C329.814 24.5668 329.886 24.6208 329.958 24.6748C330.012 24.7288 330.066 24.8008 330.102 24.8908C330.138 24.9808 330.156 25.0708 330.138 25.1608C330.102 25.3408 330.048 25.5388 329.976 25.7188C329.904 25.8988 329.832 26.1148 329.742 26.3488C329.634 26.6008 329.58 26.7628 329.544 26.8528C326.538 26.9248 324.936 26.9428 324.72 26.9248C324.612 26.9248 322.938 26.8708 319.662 26.7628H319.23H318.798C318.366 26.7628 318.096 26.7088 317.988 26.6008C317.862 26.4928 317.808 26.2768 317.844 25.9708C317.844 25.7908 317.88 25.5028 317.97 25.1428C318.042 24.7828 318.096 24.5848 318.096 24.5308C318.114 24.4048 318.15 24.2068 318.186 23.9548C318.222 23.7028 318.24 23.5048 318.276 23.3788L318.564 21.8128L320.472 21.0028C322.092 21.0748 323.334 21.0208 324.162 20.8228C324.27 20.7868 324.378 20.7688 324.504 20.7508C324.63 20.7508 324.774 20.7508 324.936 20.7508C325.08 20.7508 325.206 20.7688 325.314 20.7688C325.404 20.7688 325.548 20.7868 325.746 20.8048C325.944 20.8228 326.07 20.8408 326.142 20.8408C326.538 20.8768 327.096 20.9488 327.852 21.0208C328.59 21.1108 329.13 21.1648 329.454 21.1828C329.706 21.2188 329.886 21.2728 329.994 21.3448C330.102 21.4168 330.138 21.5428 330.102 21.7228L329.904 22.8388C329.508 23.2348 329.13 23.4148 328.77 23.4148C328.41 23.4328 327.888 23.4328 327.204 23.4328C326.52 23.4328 326.034 23.4148 325.746 23.4148C324.738 23.4148 323.838 23.4328 323.064 23.4688C322.902 23.4868 322.65 23.5228 322.326 23.5588C321.984 23.5948 321.732 23.6128 321.552 23.6128C321.336 23.6308 321.192 23.6668 321.102 23.7208C320.994 23.7748 320.958 23.8648 320.958 23.9908C320.94 24.0268 320.922 24.2608 320.886 24.6568ZM319.23 33.3148C319.194 33.3148 319.104 33.3328 318.96 33.3328C318.816 33.3508 318.708 33.3508 318.654 33.3508C318.582 33.3508 318.51 33.3508 318.402 33.3328C318.294 33.3148 318.204 33.2788 318.168 33.2428C318.114 33.2068 318.06 33.1348 318.006 33.0628C317.952 32.9908 317.916 32.8828 317.916 32.7568C317.898 32.6848 317.88 32.5768 317.844 32.3968C317.808 32.2168 317.79 32.0728 317.79 31.9468C317.79 31.7848 317.808 31.6228 317.862 31.4428C317.862 31.3708 317.916 31.2988 318.024 31.2268C318.132 31.1548 318.24 31.1008 318.366 31.1008C323.226 31.1008 326.61 31.1368 328.554 31.2448C328.95 31.2808 329.256 31.3168 329.49 31.3888C329.76 31.4788 329.922 31.6048 329.976 31.7488C330.03 31.9648 330.066 32.1988 330.066 32.4328C330.066 32.7028 330.012 33.0268 329.94 33.4048C329.796 34.0348 329.436 34.4848 328.842 34.7368C328.518 34.8808 327.924 34.9888 327.078 35.0608C326.772 35.0968 326.34 35.1148 325.764 35.1148C325.188 35.1328 324.792 35.1508 324.558 35.1508C324.522 35.1508 323.874 35.1688 322.632 35.1868C321.372 35.2048 320.688 35.2228 320.562 35.2588L320.58 35.6908C320.796 35.6908 321.606 35.6908 323.01 35.6728C324.414 35.6548 325.242 35.6368 325.458 35.6368C325.944 35.6368 326.376 35.6368 326.754 35.6188C327.006 35.6188 327.402 35.6008 327.924 35.5648C328.428 35.5288 328.806 35.5108 329.058 35.5108H329.094C329.418 35.5108 329.598 35.6188 329.598 35.8348V35.9248C329.49 36.4288 329.4 36.8248 329.328 37.0768C329.238 37.3288 329.094 37.5088 328.896 37.6168C328.698 37.7248 328.374 37.7608 327.906 37.7608H327.69C327.222 37.7608 326.556 37.7248 325.71 37.6708C324.864 37.6168 324.27 37.5808 323.928 37.5628C323.388 37.5448 322.92 37.5448 322.506 37.5628C322.092 37.5808 321.624 37.5808 321.12 37.5628C320.616 37.5448 320.166 37.4908 319.77 37.4188C319.23 37.3108 318.852 37.1308 318.636 36.8788C318.42 36.6268 318.294 36.3028 318.222 35.8708C318.204 35.7988 318.204 35.6008 318.204 35.2948C318.204 35.2768 318.204 35.1508 318.222 34.9168C318.222 34.5748 318.33 34.3408 318.51 34.1968C318.69 34.0708 318.996 33.9988 319.464 33.9808C321.192 33.9448 323.478 33.8728 326.34 33.7648C326.7 33.7648 326.88 33.6388 326.88 33.4228L326.862 33.3328C326.862 33.2788 326.862 33.2248 326.862 33.1708V33.0628C326.862 33.0448 326.772 33.0268 326.592 33.0268C326.412 33.0268 326.088 33.0268 325.62 33.0448C325.152 33.0628 324.666 33.0808 324.144 33.0988C323.622 33.1348 322.884 33.1708 321.948 33.2068C321.012 33.2428 320.094 33.2788 319.23 33.3148ZM345.492 21.2728C346.176 21.2368 346.554 21.2188 346.59 21.2188C346.986 21.2368 347.364 21.2728 347.76 21.3268C348.156 21.3808 348.498 21.4168 348.804 21.4348C349.146 21.4708 349.326 21.6688 349.344 22.0108C349.344 22.4428 349.38 23.1088 349.434 23.9908C349.488 24.8908 349.524 25.5568 349.542 26.0068C349.56 26.3488 349.56 26.9608 349.56 27.8248C349.56 28.7068 349.56 29.3188 349.56 29.6428C349.56 30.1288 349.56 31.1188 349.56 32.6308C349.56 34.1428 349.56 35.1508 349.56 35.6368V35.6728C349.56 35.9248 349.524 36.1768 349.452 36.3928C349.29 36.8428 349.002 37.0588 348.588 37.0408C348.39 37.0408 348.156 37.0588 347.904 37.0588C347.652 37.0588 347.436 37.0588 347.256 37.0228C347.112 37.0228 346.95 36.9688 346.806 36.8788C346.644 36.8068 346.536 36.6988 346.5 36.5908C346.14 35.7268 345.96 35.0608 345.942 34.5928C345.888 33.5488 345.852 31.7668 345.834 29.2828C345.816 26.7988 345.798 25.1068 345.762 24.1888C345.762 23.9008 345.744 23.6128 345.708 23.2888C345.672 22.9648 345.636 22.6048 345.6 22.1908L345.492 21.2728ZM334.062 24.0448C334.188 23.8288 334.386 23.6848 334.638 23.6308C336.114 23.3608 337.248 23.1628 338.04 23.0548C339.228 22.8928 340.326 22.8748 341.352 23.0188C341.37 23.0188 341.424 23.0368 341.532 23.0368C341.622 23.0548 341.694 23.0728 341.73 23.0728C341.766 23.0728 341.838 23.0908 341.91 23.1088C341.982 23.1268 342.036 23.1448 342.09 23.1808C342.144 23.2168 342.198 23.2708 342.252 23.3068C342.342 23.3968 342.432 23.5768 342.54 23.8468C342.99 25.1428 343.188 26.5828 343.116 28.2028C343.08 28.7968 342.99 29.6608 342.846 30.8128C342.81 31.0648 342.774 31.6048 342.72 32.4688C342.666 33.3328 342.576 33.9808 342.468 34.4308C342.342 34.9348 342.18 35.2588 342 35.4388C341.856 35.5828 341.424 35.6908 340.74 35.7268C340.056 35.7808 339.426 35.7808 338.886 35.7448C338.598 35.7448 338.454 35.6548 338.418 35.4748C338.382 35.4028 338.382 35.3308 338.418 35.2228C338.436 35.1148 338.472 35.0068 338.508 34.8808C338.544 34.7728 338.562 34.6828 338.562 34.6288C338.616 34.3048 338.67 33.9808 338.706 33.6388C338.778 33.0448 338.814 32.3968 338.85 31.6948C338.868 30.8308 338.85 29.5528 338.796 27.8428C338.778 27.5908 338.742 27.4108 338.688 27.3028C338.526 27.0148 338.148 26.9428 337.572 27.0688C336.906 27.2308 335.718 27.2848 334.008 27.2128C333.918 27.2128 333.864 27.1948 333.828 27.1588C333.774 27.1228 333.756 27.0148 333.774 26.8708C333.882 25.1428 333.972 24.1888 334.062 24.0448Z" fill="#578246"/>
<path d="M299.124 24.046C299.304 24.046 299.682 24.046 300.24 24.082C300.78 24.118 301.176 24.118 301.41 24.1C301.518 24.1 301.698 24.1 301.932 24.1C302.148 24.118 302.328 24.118 302.436 24.1C303.822 24.028 305.028 24.082 306.054 24.298C306.846 24.478 307.188 25 307.116 25.864C307.08 26.17 307.044 26.818 307.008 27.79C306.972 28.33 306.954 28.762 306.936 29.086C306.9 29.41 306.846 29.788 306.756 30.256C306.666 30.724 306.54 31.12 306.396 31.48C306.27 31.786 306.108 32.002 305.892 32.128C305.352 32.47 304.866 32.704 304.452 32.83C304.29 32.866 304.182 32.866 304.11 32.866C304.038 32.866 303.912 32.866 303.732 32.848C303.552 32.83 303.444 32.812 303.372 32.812C301.752 32.758 300.834 32.722 300.636 32.704C300.276 32.686 299.916 32.506 299.592 32.146C299.25 31.786 299.052 31.426 299.016 31.066C298.944 30.598 298.926 30.076 298.926 29.5C298.926 28.924 298.944 28.492 298.98 28.168C298.998 27.862 299.034 27.34 299.106 26.602C299.124 26.35 299.142 26.098 299.142 25.81C299.142 25.54 299.124 25.216 299.124 24.856C299.124 24.496 299.124 24.226 299.124 24.046ZM301.59 26.584V28.942C301.59 29.23 301.644 29.428 301.734 29.5C301.824 29.59 302.022 29.644 302.328 29.644C302.4 29.644 302.544 29.662 302.724 29.662C302.904 29.662 303.03 29.662 303.138 29.662C303.354 29.662 303.57 29.608 303.75 29.464C303.93 29.32 304.02 29.158 304.038 28.942C304.074 27.916 303.966 27.07 303.696 26.404L301.59 26.584ZM312.48 29.572V31.894C312.48 32.092 312.444 32.452 312.408 32.956C312.372 33.244 312.192 33.406 311.904 33.406C311.256 33.424 310.716 33.424 310.248 33.388C309.978 33.388 309.744 33.28 309.564 33.1C309.384 32.92 309.276 32.704 309.276 32.452C309.258 31.408 309.258 30.112 309.276 28.564C309.276 28.474 309.276 27.772 309.312 26.458C309.33 25.162 309.348 24.352 309.366 24.064C309.366 23.704 309.492 23.47 309.744 23.326C309.798 23.29 309.906 23.236 310.068 23.146C310.23 23.074 310.356 23.002 310.446 22.966C310.518 22.93 310.626 22.894 310.77 22.84C310.914 22.786 311.04 22.75 311.166 22.732C311.292 22.714 311.418 22.714 311.562 22.714C311.778 22.732 311.94 22.75 312.048 22.786C312.3 22.894 312.426 23.074 312.426 23.344C312.426 23.578 312.426 24.172 312.462 25.144C312.498 26.116 312.516 26.692 312.552 26.872C312.57 27.016 312.678 27.106 312.894 27.124C313.758 27.196 314.244 27.232 314.352 27.25C314.604 27.322 314.766 27.52 314.802 27.88C314.856 28.42 314.766 28.906 314.514 29.32C314.442 29.446 314.226 29.536 313.902 29.572H312.48ZM305.082 36.196C307.53 36.052 308.916 35.98 309.222 35.944C309.528 35.926 309.888 35.89 310.32 35.854C310.752 35.818 311.112 35.782 311.4 35.746C311.688 35.71 311.94 35.692 312.12 35.692C312.354 35.692 312.534 35.998 312.642 36.574C312.66 36.7 312.678 36.952 312.678 37.312C312.678 37.726 312.57 38.14 312.354 38.572C312.282 38.698 312.12 38.788 311.868 38.824C311.616 38.86 310.77 38.914 309.33 38.986C307.89 39.058 307.044 39.112 306.774 39.148C306.702 39.166 306.648 39.166 306.576 39.166C306.27 39.166 305.622 39.184 304.632 39.202C303.642 39.22 302.922 39.238 302.472 39.256C302.364 39.256 302.166 39.274 301.914 39.292C301.662 39.31 301.464 39.31 301.338 39.31C300.924 39.31 300.582 39.238 300.33 39.076C300.24 39.04 300.168 38.95 300.096 38.842C300.024 38.734 300.006 38.644 300.006 38.536C299.952 38.014 299.916 37.276 299.88 36.304C299.844 35.332 299.808 34.666 299.79 34.288L299.772 34.036C299.772 33.856 299.772 33.694 299.772 33.514L299.754 33.262C299.79 33.262 299.88 33.244 300.042 33.208C300.204 33.172 300.312 33.136 300.366 33.118C300.492 33.1 300.78 33.082 301.23 33.082C301.752 33.082 302.076 33.118 302.22 33.154C302.364 33.208 302.436 33.298 302.436 33.424C302.436 33.478 302.454 33.604 302.49 33.784C302.526 33.964 302.562 34.09 302.562 34.144C302.562 34.342 302.598 34.702 302.706 35.242C302.706 35.314 302.724 35.476 302.76 35.71C302.778 35.944 302.814 36.142 302.868 36.322L305.082 36.196ZM324.45 32.236C322.974 32.308 322.182 32.326 322.038 32.326C319.122 32.326 317.484 32.29 317.088 32.182C316.728 32.092 316.53 31.912 316.476 31.66C316.422 31.408 316.458 31.03 316.602 30.526C316.656 30.454 316.692 30.364 316.71 30.238C316.728 30.112 316.782 30.004 316.872 29.932C316.908 29.896 316.998 29.86 317.124 29.86H320.148H323.172C323.262 29.86 323.496 29.878 323.892 29.914C324.288 29.95 324.504 29.986 324.558 29.986C324.666 29.986 325.656 30.004 327.492 30.04C329.328 30.076 330.39 30.094 330.678 30.13C330.732 30.13 330.804 30.184 330.876 30.256C330.948 30.328 331.002 30.4 331.02 30.454C331.092 30.922 331.092 31.282 331.02 31.534C330.912 31.93 330.57 32.146 329.994 32.182C329.814 32.2 328.878 32.218 327.204 32.218C325.512 32.236 324.594 32.254 324.45 32.254V32.236ZM320.886 26.692C322.902 26.584 323.982 26.512 324.126 26.494L326.07 26.368L328.212 26.278L329.454 26.422C329.472 26.44 329.508 26.458 329.544 26.458C329.58 26.476 329.634 26.512 329.724 26.548C329.814 26.602 329.886 26.656 329.958 26.71C330.012 26.764 330.066 26.836 330.102 26.926C330.138 27.016 330.156 27.106 330.138 27.196C330.102 27.376 330.048 27.574 329.976 27.754C329.904 27.934 329.832 28.15 329.742 28.384C329.634 28.636 329.58 28.798 329.544 28.888C326.538 28.96 324.936 28.978 324.72 28.96C324.612 28.96 322.938 28.906 319.662 28.798H319.23H318.798C318.366 28.798 318.096 28.744 317.988 28.636C317.862 28.528 317.808 28.312 317.844 28.006C317.844 27.826 317.88 27.538 317.97 27.178C318.042 26.818 318.096 26.62 318.096 26.566C318.114 26.44 318.15 26.242 318.186 25.99C318.222 25.738 318.24 25.54 318.276 25.414L318.564 23.848L320.472 23.038C322.092 23.11 323.334 23.056 324.162 22.858C324.27 22.822 324.378 22.804 324.504 22.786C324.63 22.786 324.774 22.786 324.936 22.786C325.08 22.786 325.206 22.804 325.314 22.804C325.404 22.804 325.548 22.822 325.746 22.84C325.944 22.858 326.07 22.876 326.142 22.876C326.538 22.912 327.096 22.984 327.852 23.056C328.59 23.146 329.13 23.2 329.454 23.218C329.706 23.254 329.886 23.308 329.994 23.38C330.102 23.452 330.138 23.578 330.102 23.758L329.904 24.874C329.508 25.27 329.13 25.45 328.77 25.45C328.41 25.468 327.888 25.468 327.204 25.468C326.52 25.468 326.034 25.45 325.746 25.45C324.738 25.45 323.838 25.468 323.064 25.504C322.902 25.522 322.65 25.558 322.326 25.594C321.984 25.63 321.732 25.648 321.552 25.648C321.336 25.666 321.192 25.702 321.102 25.756C320.994 25.81 320.958 25.9 320.958 26.026C320.94 26.062 320.922 26.296 320.886 26.692ZM319.23 35.35C319.194 35.35 319.104 35.368 318.96 35.368C318.816 35.386 318.708 35.386 318.654 35.386C318.582 35.386 318.51 35.386 318.402 35.368C318.294 35.35 318.204 35.314 318.168 35.278C318.114 35.242 318.06 35.17 318.006 35.098C317.952 35.026 317.916 34.918 317.916 34.792C317.898 34.72 317.88 34.612 317.844 34.432C317.808 34.252 317.79 34.108 317.79 33.982C317.79 33.82 317.808 33.658 317.862 33.478C317.862 33.406 317.916 33.334 318.024 33.262C318.132 33.19 318.24 33.136 318.366 33.136C323.226 33.136 326.61 33.172 328.554 33.28C328.95 33.316 329.256 33.352 329.49 33.424C329.76 33.514 329.922 33.64 329.976 33.784C330.03 34 330.066 34.234 330.066 34.468C330.066 34.738 330.012 35.062 329.94 35.44C329.796 36.07 329.436 36.52 328.842 36.772C328.518 36.916 327.924 37.024 327.078 37.096C326.772 37.132 326.34 37.15 325.764 37.15C325.188 37.168 324.792 37.186 324.558 37.186C324.522 37.186 323.874 37.204 322.632 37.222C321.372 37.24 320.688 37.258 320.562 37.294L320.58 37.726C320.796 37.726 321.606 37.726 323.01 37.708C324.414 37.69 325.242 37.672 325.458 37.672C325.944 37.672 326.376 37.672 326.754 37.654C327.006 37.654 327.402 37.636 327.924 37.6C328.428 37.564 328.806 37.546 329.058 37.546H329.094C329.418 37.546 329.598 37.654 329.598 37.87V37.96C329.49 38.464 329.4 38.86 329.328 39.112C329.238 39.364 329.094 39.544 328.896 39.652C328.698 39.76 328.374 39.796 327.906 39.796H327.69C327.222 39.796 326.556 39.76 325.71 39.706C324.864 39.652 324.27 39.616 323.928 39.598C323.388 39.58 322.92 39.58 322.506 39.598C322.092 39.616 321.624 39.616 321.12 39.598C320.616 39.58 320.166 39.526 319.77 39.454C319.23 39.346 318.852 39.166 318.636 38.914C318.42 38.662 318.294 38.338 318.222 37.906C318.204 37.834 318.204 37.636 318.204 37.33C318.204 37.312 318.204 37.186 318.222 36.952C318.222 36.61 318.33 36.376 318.51 36.232C318.69 36.106 318.996 36.034 319.464 36.016C321.192 35.98 323.478 35.908 326.34 35.8C326.7 35.8 326.88 35.674 326.88 35.458L326.862 35.368C326.862 35.314 326.862 35.26 326.862 35.206V35.098C326.862 35.08 326.772 35.062 326.592 35.062C326.412 35.062 326.088 35.062 325.62 35.08C325.152 35.098 324.666 35.116 324.144 35.134C323.622 35.17 322.884 35.206 321.948 35.242C321.012 35.278 320.094 35.314 319.23 35.35ZM345.492 23.308C346.176 23.272 346.554 23.254 346.59 23.254C346.986 23.272 347.364 23.308 347.76 23.362C348.156 23.416 348.498 23.452 348.804 23.47C349.146 23.506 349.326 23.704 349.344 24.046C349.344 24.478 349.38 25.144 349.434 26.026C349.488 26.926 349.524 27.592 349.542 28.042C349.56 28.384 349.56 28.996 349.56 29.86C349.56 30.742 349.56 31.354 349.56 31.678C349.56 32.164 349.56 33.154 349.56 34.666C349.56 36.178 349.56 37.186 349.56 37.672V37.708C349.56 37.96 349.524 38.212 349.452 38.428C349.29 38.878 349.002 39.094 348.588 39.076C348.39 39.076 348.156 39.094 347.904 39.094C347.652 39.094 347.436 39.094 347.256 39.058C347.112 39.058 346.95 39.004 346.806 38.914C346.644 38.842 346.536 38.734 346.5 38.626C346.14 37.762 345.96 37.096 345.942 36.628C345.888 35.584 345.852 33.802 345.834 31.318C345.816 28.834 345.798 27.142 345.762 26.224C345.762 25.936 345.744 25.648 345.708 25.324C345.672 25 345.636 24.64 345.6 24.226L345.492 23.308ZM334.062 26.08C334.188 25.864 334.386 25.72 334.638 25.666C336.114 25.396 337.248 25.198 338.04 25.09C339.228 24.928 340.326 24.91 341.352 25.054C341.37 25.054 341.424 25.072 341.532 25.072C341.622 25.09 341.694 25.108 341.73 25.108C341.766 25.108 341.838 25.126 341.91 25.144C341.982 25.162 342.036 25.18 342.09 25.216C342.144 25.252 342.198 25.306 342.252 25.342C342.342 25.432 342.432 25.612 342.54 25.882C342.99 27.178 343.188 28.618 343.116 30.238C343.08 30.832 342.99 31.696 342.846 32.848C342.81 33.1 342.774 33.64 342.72 34.504C342.666 35.368 342.576 36.016 342.468 36.466C342.342 36.97 342.18 37.294 342 37.474C341.856 37.618 341.424 37.726 340.74 37.762C340.056 37.816 339.426 37.816 338.886 37.78C338.598 37.78 338.454 37.69 338.418 37.51C338.382 37.438 338.382 37.366 338.418 37.258C338.436 37.15 338.472 37.042 338.508 36.916C338.544 36.808 338.562 36.718 338.562 36.664C338.616 36.34 338.67 36.016 338.706 35.674C338.778 35.08 338.814 34.432 338.85 33.73C338.868 32.866 338.85 31.588 338.796 29.878C338.778 29.626 338.742 29.446 338.688 29.338C338.526 29.05 338.148 28.978 337.572 29.104C336.906 29.266 335.718 29.32 334.008 29.248C333.918 29.248 333.864 29.23 333.828 29.194C333.774 29.158 333.756 29.05 333.774 28.906C333.882 27.178 333.972 26.224 334.062 26.08Z" fill="white"/>
</svg>
