<svg width="312" height="58" viewBox="0 0 312 58" fill="none" xmlns="http://www.w3.org/2000/svg">
<rect width="312" height="58" rx="16" fill="#99C08E"/>
<path d="M131.124 22.0108C131.304 22.0108 131.682 22.0108 132.24 22.0468C132.78 22.0828 133.176 22.0828 133.41 22.0648C133.518 22.0648 133.698 22.0648 133.932 22.0648C134.148 22.0828 134.328 22.0828 134.436 22.0648C135.822 21.9928 137.028 22.0468 138.054 22.2628C138.846 22.4428 139.188 22.9648 139.116 23.8288C139.08 24.1348 139.044 24.7828 139.008 25.7548C138.972 26.2948 138.954 26.7268 138.936 27.0508C138.9 27.3748 138.846 27.7528 138.756 28.2208C138.666 28.6888 138.54 29.0848 138.396 29.4448C138.27 29.7508 138.108 29.9668 137.892 30.0928C137.352 30.4348 136.866 30.6688 136.452 30.7948C136.29 30.8308 136.182 30.8308 136.11 30.8308C136.038 30.8308 135.912 30.8308 135.732 30.8128C135.552 30.7948 135.444 30.7768 135.372 30.7768C133.752 30.7228 132.834 30.6868 132.636 30.6688C132.276 30.6508 131.916 30.4708 131.592 30.1108C131.25 29.7508 131.052 29.3908 131.016 29.0308C130.944 28.5628 130.926 28.0408 130.926 27.4648C130.926 26.8888 130.944 26.4568 130.98 26.1328C130.998 25.8268 131.034 25.3048 131.106 24.5668C131.124 24.3148 131.142 24.0628 131.142 23.7748C131.142 23.5048 131.124 23.1808 131.124 22.8208C131.124 22.4608 131.124 22.1908 131.124 22.0108ZM133.59 24.5488V26.9068C133.59 27.1948 133.644 27.3928 133.734 27.4648C133.824 27.5548 134.022 27.6088 134.328 27.6088C134.4 27.6088 134.544 27.6268 134.724 27.6268C134.904 27.6268 135.03 27.6268 135.138 27.6268C135.354 27.6268 135.57 27.5728 135.75 27.4288C135.93 27.2848 136.02 27.1228 136.038 26.9068C136.074 25.8808 135.966 25.0348 135.696 24.3688L133.59 24.5488ZM144.48 27.5368V29.8588C144.48 30.0568 144.444 30.4168 144.408 30.9208C144.372 31.2088 144.192 31.3708 143.904 31.3708C143.256 31.3888 142.716 31.3888 142.248 31.3528C141.978 31.3528 141.744 31.2448 141.564 31.0648C141.384 30.8848 141.276 30.6688 141.276 30.4168C141.258 29.3728 141.258 28.0768 141.276 26.5288C141.276 26.4388 141.276 25.7368 141.312 24.4228C141.33 23.1268 141.348 22.3168 141.366 22.0288C141.366 21.6688 141.492 21.4348 141.744 21.2908C141.798 21.2548 141.906 21.2008 142.068 21.1108C142.23 21.0388 142.356 20.9668 142.446 20.9308C142.518 20.8948 142.626 20.8588 142.77 20.8048C142.914 20.7508 143.04 20.7148 143.166 20.6968C143.292 20.6788 143.418 20.6788 143.562 20.6788C143.778 20.6968 143.94 20.7148 144.048 20.7508C144.3 20.8588 144.426 21.0388 144.426 21.3088C144.426 21.5428 144.426 22.1368 144.462 23.1088C144.498 24.0808 144.516 24.6568 144.552 24.8368C144.57 24.9808 144.678 25.0708 144.894 25.0888C145.758 25.1608 146.244 25.1968 146.352 25.2148C146.604 25.2868 146.766 25.4848 146.802 25.8448C146.856 26.3848 146.766 26.8708 146.514 27.2848C146.442 27.4108 146.226 27.5008 145.902 27.5368H144.48ZM137.082 34.1608C139.53 34.0168 140.916 33.9448 141.222 33.9088C141.528 33.8908 141.888 33.8548 142.32 33.8188C142.752 33.7828 143.112 33.7468 143.4 33.7108C143.688 33.6748 143.94 33.6568 144.12 33.6568C144.354 33.6568 144.534 33.9628 144.642 34.5388C144.66 34.6648 144.678 34.9168 144.678 35.2768C144.678 35.6908 144.57 36.1048 144.354 36.5368C144.282 36.6628 144.12 36.7528 143.868 36.7888C143.616 36.8248 142.77 36.8788 141.33 36.9508C139.89 37.0228 139.044 37.0768 138.774 37.1128C138.702 37.1308 138.648 37.1308 138.576 37.1308C138.27 37.1308 137.622 37.1488 136.632 37.1668C135.642 37.1848 134.922 37.2028 134.472 37.2208C134.364 37.2208 134.166 37.2388 133.914 37.2568C133.662 37.2748 133.464 37.2748 133.338 37.2748C132.924 37.2748 132.582 37.2028 132.33 37.0408C132.24 37.0048 132.168 36.9148 132.096 36.8068C132.024 36.6988 132.006 36.6088 132.006 36.5008C131.952 35.9788 131.916 35.2408 131.88 34.2688C131.844 33.2968 131.808 32.6308 131.79 32.2528L131.772 32.0008C131.772 31.8208 131.772 31.6588 131.772 31.4788L131.754 31.2268C131.79 31.2268 131.88 31.2088 132.042 31.1728C132.204 31.1368 132.312 31.1008 132.366 31.0828C132.492 31.0648 132.78 31.0468 133.23 31.0468C133.752 31.0468 134.076 31.0828 134.22 31.1188C134.364 31.1728 134.436 31.2628 134.436 31.3888C134.436 31.4428 134.454 31.5688 134.49 31.7488C134.526 31.9288 134.562 32.0548 134.562 32.1088C134.562 32.3068 134.598 32.6668 134.706 33.2068C134.706 33.2788 134.724 33.4408 134.76 33.6748C134.778 33.9088 134.814 34.1068 134.868 34.2868L137.082 34.1608ZM156.45 30.2008C154.974 30.2728 154.182 30.2908 154.038 30.2908C151.122 30.2908 149.484 30.2548 149.088 30.1468C148.728 30.0568 148.53 29.8768 148.476 29.6248C148.422 29.3728 148.458 28.9948 148.602 28.4908C148.656 28.4188 148.692 28.3288 148.71 28.2028C148.728 28.0768 148.782 27.9688 148.872 27.8968C148.908 27.8608 148.998 27.8248 149.124 27.8248H152.148H155.172C155.262 27.8248 155.496 27.8428 155.892 27.8788C156.288 27.9148 156.504 27.9508 156.558 27.9508C156.666 27.9508 157.656 27.9688 159.492 28.0048C161.328 28.0408 162.39 28.0588 162.678 28.0948C162.732 28.0948 162.804 28.1488 162.876 28.2208C162.948 28.2928 163.002 28.3648 163.02 28.4188C163.092 28.8868 163.092 29.2468 163.02 29.4988C162.912 29.8948 162.57 30.1108 161.994 30.1468C161.814 30.1648 160.878 30.1828 159.204 30.1828C157.512 30.2008 156.594 30.2188 156.45 30.2188V30.2008ZM152.886 24.6568C154.902 24.5488 155.982 24.4768 156.126 24.4588L158.07 24.3328L160.212 24.2428L161.454 24.3868C161.472 24.4048 161.508 24.4228 161.544 24.4228C161.58 24.4408 161.634 24.4768 161.724 24.5128C161.814 24.5668 161.886 24.6208 161.958 24.6748C162.012 24.7288 162.066 24.8008 162.102 24.8908C162.138 24.9808 162.156 25.0708 162.138 25.1608C162.102 25.3408 162.048 25.5388 161.976 25.7188C161.904 25.8988 161.832 26.1148 161.742 26.3488C161.634 26.6008 161.58 26.7628 161.544 26.8528C158.538 26.9248 156.936 26.9428 156.72 26.9248C156.612 26.9248 154.938 26.8708 151.662 26.7628H151.23H150.798C150.366 26.7628 150.096 26.7088 149.988 26.6008C149.862 26.4928 149.808 26.2768 149.844 25.9708C149.844 25.7908 149.88 25.5028 149.97 25.1428C150.042 24.7828 150.096 24.5848 150.096 24.5308C150.114 24.4048 150.15 24.2068 150.186 23.9548C150.222 23.7028 150.24 23.5048 150.276 23.3788L150.564 21.8128L152.472 21.0028C154.092 21.0748 155.334 21.0208 156.162 20.8228C156.27 20.7868 156.378 20.7688 156.504 20.7508C156.63 20.7508 156.774 20.7508 156.936 20.7508C157.08 20.7508 157.206 20.7688 157.314 20.7688C157.404 20.7688 157.548 20.7868 157.746 20.8048C157.944 20.8228 158.07 20.8408 158.142 20.8408C158.538 20.8768 159.096 20.9488 159.852 21.0208C160.59 21.1108 161.13 21.1648 161.454 21.1828C161.706 21.2188 161.886 21.2728 161.994 21.3448C162.102 21.4168 162.138 21.5428 162.102 21.7228L161.904 22.8388C161.508 23.2348 161.13 23.4148 160.77 23.4148C160.41 23.4328 159.888 23.4328 159.204 23.4328C158.52 23.4328 158.034 23.4148 157.746 23.4148C156.738 23.4148 155.838 23.4328 155.064 23.4688C154.902 23.4868 154.65 23.5228 154.326 23.5588C153.984 23.5948 153.732 23.6128 153.552 23.6128C153.336 23.6308 153.192 23.6668 153.102 23.7208C152.994 23.7748 152.958 23.8648 152.958 23.9908C152.94 24.0268 152.922 24.2608 152.886 24.6568ZM151.23 33.3148C151.194 33.3148 151.104 33.3328 150.96 33.3328C150.816 33.3508 150.708 33.3508 150.654 33.3508C150.582 33.3508 150.51 33.3508 150.402 33.3328C150.294 33.3148 150.204 33.2788 150.168 33.2428C150.114 33.2068 150.06 33.1348 150.006 33.0628C149.952 32.9908 149.916 32.8828 149.916 32.7568C149.898 32.6848 149.88 32.5768 149.844 32.3968C149.808 32.2168 149.79 32.0728 149.79 31.9468C149.79 31.7848 149.808 31.6228 149.862 31.4428C149.862 31.3708 149.916 31.2988 150.024 31.2268C150.132 31.1548 150.24 31.1008 150.366 31.1008C155.226 31.1008 158.61 31.1368 160.554 31.2448C160.95 31.2808 161.256 31.3168 161.49 31.3888C161.76 31.4788 161.922 31.6048 161.976 31.7488C162.03 31.9648 162.066 32.1988 162.066 32.4328C162.066 32.7028 162.012 33.0268 161.94 33.4048C161.796 34.0348 161.436 34.4848 160.842 34.7368C160.518 34.8808 159.924 34.9888 159.078 35.0608C158.772 35.0968 158.34 35.1148 157.764 35.1148C157.188 35.1328 156.792 35.1508 156.558 35.1508C156.522 35.1508 155.874 35.1688 154.632 35.1868C153.372 35.2048 152.688 35.2228 152.562 35.2588L152.58 35.6908C152.796 35.6908 153.606 35.6908 155.01 35.6728C156.414 35.6548 157.242 35.6368 157.458 35.6368C157.944 35.6368 158.376 35.6368 158.754 35.6188C159.006 35.6188 159.402 35.6008 159.924 35.5648C160.428 35.5288 160.806 35.5108 161.058 35.5108H161.094C161.418 35.5108 161.598 35.6188 161.598 35.8348V35.9248C161.49 36.4288 161.4 36.8248 161.328 37.0768C161.238 37.3288 161.094 37.5088 160.896 37.6168C160.698 37.7248 160.374 37.7608 159.906 37.7608H159.69C159.222 37.7608 158.556 37.7248 157.71 37.6708C156.864 37.6168 156.27 37.5808 155.928 37.5628C155.388 37.5448 154.92 37.5448 154.506 37.5628C154.092 37.5808 153.624 37.5808 153.12 37.5628C152.616 37.5448 152.166 37.4908 151.77 37.4188C151.23 37.3108 150.852 37.1308 150.636 36.8788C150.42 36.6268 150.294 36.3028 150.222 35.8708C150.204 35.7988 150.204 35.6008 150.204 35.2948C150.204 35.2768 150.204 35.1508 150.222 34.9168C150.222 34.5748 150.33 34.3408 150.51 34.1968C150.69 34.0708 150.996 33.9988 151.464 33.9808C153.192 33.9448 155.478 33.8728 158.34 33.7648C158.7 33.7648 158.88 33.6388 158.88 33.4228L158.862 33.3328C158.862 33.2788 158.862 33.2248 158.862 33.1708V33.0628C158.862 33.0448 158.772 33.0268 158.592 33.0268C158.412 33.0268 158.088 33.0268 157.62 33.0448C157.152 33.0628 156.666 33.0808 156.144 33.0988C155.622 33.1348 154.884 33.1708 153.948 33.2068C153.012 33.2428 152.094 33.2788 151.23 33.3148ZM177.492 21.2728C178.176 21.2368 178.554 21.2188 178.59 21.2188C178.986 21.2368 179.364 21.2728 179.76 21.3268C180.156 21.3808 180.498 21.4168 180.804 21.4348C181.146 21.4708 181.326 21.6688 181.344 22.0108C181.344 22.4428 181.38 23.1088 181.434 23.9908C181.488 24.8908 181.524 25.5568 181.542 26.0068C181.56 26.3488 181.56 26.9608 181.56 27.8248C181.56 28.7068 181.56 29.3188 181.56 29.6428C181.56 30.1288 181.56 31.1188 181.56 32.6308C181.56 34.1428 181.56 35.1508 181.56 35.6368V35.6728C181.56 35.9248 181.524 36.1768 181.452 36.3928C181.29 36.8428 181.002 37.0588 180.588 37.0408C180.39 37.0408 180.156 37.0588 179.904 37.0588C179.652 37.0588 179.436 37.0588 179.256 37.0228C179.112 37.0228 178.95 36.9688 178.806 36.8788C178.644 36.8068 178.536 36.6988 178.5 36.5908C178.14 35.7268 177.96 35.0608 177.942 34.5928C177.888 33.5488 177.852 31.7668 177.834 29.2828C177.816 26.7988 177.798 25.1068 177.762 24.1888C177.762 23.9008 177.744 23.6128 177.708 23.2888C177.672 22.9648 177.636 22.6048 177.6 22.1908L177.492 21.2728ZM166.062 24.0448C166.188 23.8288 166.386 23.6848 166.638 23.6308C168.114 23.3608 169.248 23.1628 170.04 23.0548C171.228 22.8928 172.326 22.8748 173.352 23.0188C173.37 23.0188 173.424 23.0368 173.532 23.0368C173.622 23.0548 173.694 23.0728 173.73 23.0728C173.766 23.0728 173.838 23.0908 173.91 23.1088C173.982 23.1268 174.036 23.1448 174.09 23.1808C174.144 23.2168 174.198 23.2708 174.252 23.3068C174.342 23.3968 174.432 23.5768 174.54 23.8468C174.99 25.1428 175.188 26.5828 175.116 28.2028C175.08 28.7968 174.99 29.6608 174.846 30.8128C174.81 31.0648 174.774 31.6048 174.72 32.4688C174.666 33.3328 174.576 33.9808 174.468 34.4308C174.342 34.9348 174.18 35.2588 174 35.4388C173.856 35.5828 173.424 35.6908 172.74 35.7268C172.056 35.7808 171.426 35.7808 170.886 35.7448C170.598 35.7448 170.454 35.6548 170.418 35.4748C170.382 35.4028 170.382 35.3308 170.418 35.2228C170.436 35.1148 170.472 35.0068 170.508 34.8808C170.544 34.7728 170.562 34.6828 170.562 34.6288C170.616 34.3048 170.67 33.9808 170.706 33.6388C170.778 33.0448 170.814 32.3968 170.85 31.6948C170.868 30.8308 170.85 29.5528 170.796 27.8428C170.778 27.5908 170.742 27.4108 170.688 27.3028C170.526 27.0148 170.148 26.9428 169.572 27.0688C168.906 27.2308 167.718 27.2848 166.008 27.2128C165.918 27.2128 165.864 27.1948 165.828 27.1588C165.774 27.1228 165.756 27.0148 165.774 26.8708C165.882 25.1428 165.972 24.1888 166.062 24.0448Z" fill="#578246"/>
<path d="M131.124 24.046C131.304 24.046 131.682 24.046 132.24 24.082C132.78 24.118 133.176 24.118 133.41 24.1C133.518 24.1 133.698 24.1 133.932 24.1C134.148 24.118 134.328 24.118 134.436 24.1C135.822 24.028 137.028 24.082 138.054 24.298C138.846 24.478 139.188 25 139.116 25.864C139.08 26.17 139.044 26.818 139.008 27.79C138.972 28.33 138.954 28.762 138.936 29.086C138.9 29.41 138.846 29.788 138.756 30.256C138.666 30.724 138.54 31.12 138.396 31.48C138.27 31.786 138.108 32.002 137.892 32.128C137.352 32.47 136.866 32.704 136.452 32.83C136.29 32.866 136.182 32.866 136.11 32.866C136.038 32.866 135.912 32.866 135.732 32.848C135.552 32.83 135.444 32.812 135.372 32.812C133.752 32.758 132.834 32.722 132.636 32.704C132.276 32.686 131.916 32.506 131.592 32.146C131.25 31.786 131.052 31.426 131.016 31.066C130.944 30.598 130.926 30.076 130.926 29.5C130.926 28.924 130.944 28.492 130.98 28.168C130.998 27.862 131.034 27.34 131.106 26.602C131.124 26.35 131.142 26.098 131.142 25.81C131.142 25.54 131.124 25.216 131.124 24.856C131.124 24.496 131.124 24.226 131.124 24.046ZM133.59 26.584V28.942C133.59 29.23 133.644 29.428 133.734 29.5C133.824 29.59 134.022 29.644 134.328 29.644C134.4 29.644 134.544 29.662 134.724 29.662C134.904 29.662 135.03 29.662 135.138 29.662C135.354 29.662 135.57 29.608 135.75 29.464C135.93 29.32 136.02 29.158 136.038 28.942C136.074 27.916 135.966 27.07 135.696 26.404L133.59 26.584ZM144.48 29.572V31.894C144.48 32.092 144.444 32.452 144.408 32.956C144.372 33.244 144.192 33.406 143.904 33.406C143.256 33.424 142.716 33.424 142.248 33.388C141.978 33.388 141.744 33.28 141.564 33.1C141.384 32.92 141.276 32.704 141.276 32.452C141.258 31.408 141.258 30.112 141.276 28.564C141.276 28.474 141.276 27.772 141.312 26.458C141.33 25.162 141.348 24.352 141.366 24.064C141.366 23.704 141.492 23.47 141.744 23.326C141.798 23.29 141.906 23.236 142.068 23.146C142.23 23.074 142.356 23.002 142.446 22.966C142.518 22.93 142.626 22.894 142.77 22.84C142.914 22.786 143.04 22.75 143.166 22.732C143.292 22.714 143.418 22.714 143.562 22.714C143.778 22.732 143.94 22.75 144.048 22.786C144.3 22.894 144.426 23.074 144.426 23.344C144.426 23.578 144.426 24.172 144.462 25.144C144.498 26.116 144.516 26.692 144.552 26.872C144.57 27.016 144.678 27.106 144.894 27.124C145.758 27.196 146.244 27.232 146.352 27.25C146.604 27.322 146.766 27.52 146.802 27.88C146.856 28.42 146.766 28.906 146.514 29.32C146.442 29.446 146.226 29.536 145.902 29.572H144.48ZM137.082 36.196C139.53 36.052 140.916 35.98 141.222 35.944C141.528 35.926 141.888 35.89 142.32 35.854C142.752 35.818 143.112 35.782 143.4 35.746C143.688 35.71 143.94 35.692 144.12 35.692C144.354 35.692 144.534 35.998 144.642 36.574C144.66 36.7 144.678 36.952 144.678 37.312C144.678 37.726 144.57 38.14 144.354 38.572C144.282 38.698 144.12 38.788 143.868 38.824C143.616 38.86 142.77 38.914 141.33 38.986C139.89 39.058 139.044 39.112 138.774 39.148C138.702 39.166 138.648 39.166 138.576 39.166C138.27 39.166 137.622 39.184 136.632 39.202C135.642 39.22 134.922 39.238 134.472 39.256C134.364 39.256 134.166 39.274 133.914 39.292C133.662 39.31 133.464 39.31 133.338 39.31C132.924 39.31 132.582 39.238 132.33 39.076C132.24 39.04 132.168 38.95 132.096 38.842C132.024 38.734 132.006 38.644 132.006 38.536C131.952 38.014 131.916 37.276 131.88 36.304C131.844 35.332 131.808 34.666 131.79 34.288L131.772 34.036C131.772 33.856 131.772 33.694 131.772 33.514L131.754 33.262C131.79 33.262 131.88 33.244 132.042 33.208C132.204 33.172 132.312 33.136 132.366 33.118C132.492 33.1 132.78 33.082 133.23 33.082C133.752 33.082 134.076 33.118 134.22 33.154C134.364 33.208 134.436 33.298 134.436 33.424C134.436 33.478 134.454 33.604 134.49 33.784C134.526 33.964 134.562 34.09 134.562 34.144C134.562 34.342 134.598 34.702 134.706 35.242C134.706 35.314 134.724 35.476 134.76 35.71C134.778 35.944 134.814 36.142 134.868 36.322L137.082 36.196ZM156.45 32.236C154.974 32.308 154.182 32.326 154.038 32.326C151.122 32.326 149.484 32.29 149.088 32.182C148.728 32.092 148.53 31.912 148.476 31.66C148.422 31.408 148.458 31.03 148.602 30.526C148.656 30.454 148.692 30.364 148.71 30.238C148.728 30.112 148.782 30.004 148.872 29.932C148.908 29.896 148.998 29.86 149.124 29.86H152.148H155.172C155.262 29.86 155.496 29.878 155.892 29.914C156.288 29.95 156.504 29.986 156.558 29.986C156.666 29.986 157.656 30.004 159.492 30.04C161.328 30.076 162.39 30.094 162.678 30.13C162.732 30.13 162.804 30.184 162.876 30.256C162.948 30.328 163.002 30.4 163.02 30.454C163.092 30.922 163.092 31.282 163.02 31.534C162.912 31.93 162.57 32.146 161.994 32.182C161.814 32.2 160.878 32.218 159.204 32.218C157.512 32.236 156.594 32.254 156.45 32.254V32.236ZM152.886 26.692C154.902 26.584 155.982 26.512 156.126 26.494L158.07 26.368L160.212 26.278L161.454 26.422C161.472 26.44 161.508 26.458 161.544 26.458C161.58 26.476 161.634 26.512 161.724 26.548C161.814 26.602 161.886 26.656 161.958 26.71C162.012 26.764 162.066 26.836 162.102 26.926C162.138 27.016 162.156 27.106 162.138 27.196C162.102 27.376 162.048 27.574 161.976 27.754C161.904 27.934 161.832 28.15 161.742 28.384C161.634 28.636 161.58 28.798 161.544 28.888C158.538 28.96 156.936 28.978 156.72 28.96C156.612 28.96 154.938 28.906 151.662 28.798H151.23H150.798C150.366 28.798 150.096 28.744 149.988 28.636C149.862 28.528 149.808 28.312 149.844 28.006C149.844 27.826 149.88 27.538 149.97 27.178C150.042 26.818 150.096 26.62 150.096 26.566C150.114 26.44 150.15 26.242 150.186 25.99C150.222 25.738 150.24 25.54 150.276 25.414L150.564 23.848L152.472 23.038C154.092 23.11 155.334 23.056 156.162 22.858C156.27 22.822 156.378 22.804 156.504 22.786C156.63 22.786 156.774 22.786 156.936 22.786C157.08 22.786 157.206 22.804 157.314 22.804C157.404 22.804 157.548 22.822 157.746 22.84C157.944 22.858 158.07 22.876 158.142 22.876C158.538 22.912 159.096 22.984 159.852 23.056C160.59 23.146 161.13 23.2 161.454 23.218C161.706 23.254 161.886 23.308 161.994 23.38C162.102 23.452 162.138 23.578 162.102 23.758L161.904 24.874C161.508 25.27 161.13 25.45 160.77 25.45C160.41 25.468 159.888 25.468 159.204 25.468C158.52 25.468 158.034 25.45 157.746 25.45C156.738 25.45 155.838 25.468 155.064 25.504C154.902 25.522 154.65 25.558 154.326 25.594C153.984 25.63 153.732 25.648 153.552 25.648C153.336 25.666 153.192 25.702 153.102 25.756C152.994 25.81 152.958 25.9 152.958 26.026C152.94 26.062 152.922 26.296 152.886 26.692ZM151.23 35.35C151.194 35.35 151.104 35.368 150.96 35.368C150.816 35.386 150.708 35.386 150.654 35.386C150.582 35.386 150.51 35.386 150.402 35.368C150.294 35.35 150.204 35.314 150.168 35.278C150.114 35.242 150.06 35.17 150.006 35.098C149.952 35.026 149.916 34.918 149.916 34.792C149.898 34.72 149.88 34.612 149.844 34.432C149.808 34.252 149.79 34.108 149.79 33.982C149.79 33.82 149.808 33.658 149.862 33.478C149.862 33.406 149.916 33.334 150.024 33.262C150.132 33.19 150.24 33.136 150.366 33.136C155.226 33.136 158.61 33.172 160.554 33.28C160.95 33.316 161.256 33.352 161.49 33.424C161.76 33.514 161.922 33.64 161.976 33.784C162.03 34 162.066 34.234 162.066 34.468C162.066 34.738 162.012 35.062 161.94 35.44C161.796 36.07 161.436 36.52 160.842 36.772C160.518 36.916 159.924 37.024 159.078 37.096C158.772 37.132 158.34 37.15 157.764 37.15C157.188 37.168 156.792 37.186 156.558 37.186C156.522 37.186 155.874 37.204 154.632 37.222C153.372 37.24 152.688 37.258 152.562 37.294L152.58 37.726C152.796 37.726 153.606 37.726 155.01 37.708C156.414 37.69 157.242 37.672 157.458 37.672C157.944 37.672 158.376 37.672 158.754 37.654C159.006 37.654 159.402 37.636 159.924 37.6C160.428 37.564 160.806 37.546 161.058 37.546H161.094C161.418 37.546 161.598 37.654 161.598 37.87V37.96C161.49 38.464 161.4 38.86 161.328 39.112C161.238 39.364 161.094 39.544 160.896 39.652C160.698 39.76 160.374 39.796 159.906 39.796H159.69C159.222 39.796 158.556 39.76 157.71 39.706C156.864 39.652 156.27 39.616 155.928 39.598C155.388 39.58 154.92 39.58 154.506 39.598C154.092 39.616 153.624 39.616 153.12 39.598C152.616 39.58 152.166 39.526 151.77 39.454C151.23 39.346 150.852 39.166 150.636 38.914C150.42 38.662 150.294 38.338 150.222 37.906C150.204 37.834 150.204 37.636 150.204 37.33C150.204 37.312 150.204 37.186 150.222 36.952C150.222 36.61 150.33 36.376 150.51 36.232C150.69 36.106 150.996 36.034 151.464 36.016C153.192 35.98 155.478 35.908 158.34 35.8C158.7 35.8 158.88 35.674 158.88 35.458L158.862 35.368C158.862 35.314 158.862 35.26 158.862 35.206V35.098C158.862 35.08 158.772 35.062 158.592 35.062C158.412 35.062 158.088 35.062 157.62 35.08C157.152 35.098 156.666 35.116 156.144 35.134C155.622 35.17 154.884 35.206 153.948 35.242C153.012 35.278 152.094 35.314 151.23 35.35ZM177.492 23.308C178.176 23.272 178.554 23.254 178.59 23.254C178.986 23.272 179.364 23.308 179.76 23.362C180.156 23.416 180.498 23.452 180.804 23.47C181.146 23.506 181.326 23.704 181.344 24.046C181.344 24.478 181.38 25.144 181.434 26.026C181.488 26.926 181.524 27.592 181.542 28.042C181.56 28.384 181.56 28.996 181.56 29.86C181.56 30.742 181.56 31.354 181.56 31.678C181.56 32.164 181.56 33.154 181.56 34.666C181.56 36.178 181.56 37.186 181.56 37.672V37.708C181.56 37.96 181.524 38.212 181.452 38.428C181.29 38.878 181.002 39.094 180.588 39.076C180.39 39.076 180.156 39.094 179.904 39.094C179.652 39.094 179.436 39.094 179.256 39.058C179.112 39.058 178.95 39.004 178.806 38.914C178.644 38.842 178.536 38.734 178.5 38.626C178.14 37.762 177.96 37.096 177.942 36.628C177.888 35.584 177.852 33.802 177.834 31.318C177.816 28.834 177.798 27.142 177.762 26.224C177.762 25.936 177.744 25.648 177.708 25.324C177.672 25 177.636 24.64 177.6 24.226L177.492 23.308ZM166.062 26.08C166.188 25.864 166.386 25.72 166.638 25.666C168.114 25.396 169.248 25.198 170.04 25.09C171.228 24.928 172.326 24.91 173.352 25.054C173.37 25.054 173.424 25.072 173.532 25.072C173.622 25.09 173.694 25.108 173.73 25.108C173.766 25.108 173.838 25.126 173.91 25.144C173.982 25.162 174.036 25.18 174.09 25.216C174.144 25.252 174.198 25.306 174.252 25.342C174.342 25.432 174.432 25.612 174.54 25.882C174.99 27.178 175.188 28.618 175.116 30.238C175.08 30.832 174.99 31.696 174.846 32.848C174.81 33.1 174.774 33.64 174.72 34.504C174.666 35.368 174.576 36.016 174.468 36.466C174.342 36.97 174.18 37.294 174 37.474C173.856 37.618 173.424 37.726 172.74 37.762C172.056 37.816 171.426 37.816 170.886 37.78C170.598 37.78 170.454 37.69 170.418 37.51C170.382 37.438 170.382 37.366 170.418 37.258C170.436 37.15 170.472 37.042 170.508 36.916C170.544 36.808 170.562 36.718 170.562 36.664C170.616 36.34 170.67 36.016 170.706 35.674C170.778 35.08 170.814 34.432 170.85 33.73C170.868 32.866 170.85 31.588 170.796 29.878C170.778 29.626 170.742 29.446 170.688 29.338C170.526 29.05 170.148 28.978 169.572 29.104C168.906 29.266 167.718 29.32 166.008 29.248C165.918 29.248 165.864 29.23 165.828 29.194C165.774 29.158 165.756 29.05 165.774 28.906C165.882 27.178 165.972 26.224 166.062 26.08Z" fill="white"/>
</svg>
