<svg width="140" height="58" viewBox="0 0 140 58" fill="none" xmlns="http://www.w3.org/2000/svg">
<rect width="140" height="58" rx="16" fill="#DDDDDD"/>
<path d="M60.19 21.814C60.856 21.778 61.234 21.778 61.306 21.778C61.558 21.796 61.792 21.85 62.026 21.958C62.17 22.048 62.242 22.192 62.278 22.39C62.296 22.588 62.314 22.786 62.314 23.002C62.314 23.146 62.296 23.308 62.296 23.452C62.26 23.902 61.99 24.244 61.486 24.46C61.432 24.478 61.108 24.658 60.532 24.982C61.234 26.17 61.612 26.8 61.666 26.89C61.9 27.304 61.954 27.88 61.846 28.618C61.81 28.726 61.684 28.852 61.468 29.032C61.234 29.212 61.072 29.302 60.964 29.302C60.838 29.302 60.694 29.248 60.532 29.104C60.37 28.96 60.262 28.816 60.208 28.654C60.172 28.564 60.082 28.42 59.938 28.24C59.794 28.06 59.704 27.916 59.668 27.826C59.614 27.718 59.452 27.592 59.164 27.412C58.876 27.25 58.678 27.178 58.606 27.214C58.57 27.232 58.498 27.268 58.372 27.304C58.228 27.358 58.138 27.412 58.066 27.448C57.994 27.484 57.886 27.556 57.76 27.646C57.616 27.754 57.508 27.862 57.4 27.97C56.914 28.51 56.554 28.924 56.302 29.194C56.122 29.374 55.816 29.374 55.366 29.158C54.898 28.96 54.52 28.726 54.232 28.474C54.088 28.366 54.016 28.204 54.016 27.97C54.016 27.736 54.052 27.502 54.16 27.286C54.16 27.286 54.304 27.142 54.556 26.836L54.952 26.386C55.168 26.206 55.474 25.99 55.888 25.72C56.284 25.468 56.608 25.234 56.842 25.036C56.896 24.964 56.896 24.892 56.842 24.82C56.77 24.748 56.698 24.694 56.59 24.658C56.518 24.64 56.32 24.586 56.014 24.478C55.69 24.37 55.456 24.298 55.294 24.244C54.628 24.028 54.34 23.668 54.448 23.2C54.448 23.164 54.466 23.056 54.502 22.912C54.538 22.768 54.574 22.642 54.574 22.552C54.574 22.48 54.61 22.408 54.646 22.336C54.682 22.282 54.718 22.246 54.754 22.21C54.79 22.174 54.862 22.156 54.952 22.138L55.132 22.12C55.168 22.12 55.258 22.102 55.366 22.102H55.6C55.672 22.102 55.798 22.102 55.96 22.102C56.104 22.12 56.23 22.12 56.338 22.12C56.446 22.12 56.536 22.084 56.626 22.012C56.806 21.904 56.914 21.508 56.968 20.842C56.968 20.536 57.076 20.32 57.256 20.194C57.436 20.068 57.67 19.978 57.958 19.942C58.606 19.87 59.11 19.906 59.47 20.086C59.722 20.23 59.884 20.428 59.956 20.698C59.974 20.842 60.01 21.058 60.082 21.328C60.136 21.616 60.172 21.778 60.19 21.814ZM68.704 22.012C68.632 22.372 68.578 23.2 68.542 24.496C68.506 25.792 68.506 26.638 68.542 27.016C68.578 27.484 68.56 28.816 68.488 31.03C68.416 33.244 68.344 34.558 68.272 34.954C68.2 35.332 68.056 35.656 67.858 35.908C67.516 36.34 66.904 36.538 66.004 36.502C65.986 36.502 65.968 36.502 65.968 36.502V36.484C65.896 36.484 65.824 36.466 65.734 36.466C65.626 36.466 65.572 36.448 65.536 36.448L65.41 36.412C65.338 36.412 65.302 36.394 65.302 36.376C65.284 36.358 65.266 36.34 65.248 36.304C65.212 36.286 65.194 36.25 65.194 36.196L65.176 36.034C65.176 35.98 65.176 35.908 65.176 35.8C65.158 35.62 65.212 34.306 65.32 31.858C65.428 29.41 65.446 27.988 65.392 27.556C65.302 26.98 65.23 25.936 65.176 24.424C65.104 22.93 65.122 21.868 65.212 21.256C65.248 21.04 65.392 20.842 65.644 20.698C65.896 20.554 66.202 20.482 66.526 20.482C66.67 20.482 66.904 20.464 67.264 20.428C67.498 20.392 67.696 20.374 67.876 20.374C68.056 20.374 68.2 20.446 68.326 20.554C68.434 20.68 68.524 20.878 68.596 21.13C68.596 21.166 68.632 21.454 68.704 22.012ZM55.924 29.86C57.634 29.77 58.57 29.716 58.714 29.698C61.486 29.662 63.25 29.68 64.024 29.77C64.168 29.77 64.294 29.77 64.402 29.788C64.51 29.806 64.582 29.86 64.654 29.932C64.726 30.022 64.78 30.094 64.816 30.166C64.852 30.238 64.87 30.346 64.888 30.508C64.888 30.67 64.906 30.796 64.906 30.886V31.354V31.822C64.852 32.002 64.564 32.074 64.042 32.074C63.502 32.074 62.926 32.056 62.278 31.984C61.63 31.93 61.234 31.912 61.09 31.93C61 31.948 60.73 32.02 60.262 32.146C60.154 32.182 60.064 32.236 59.992 32.308C59.92 32.398 59.848 32.524 59.812 32.668C59.776 32.812 59.74 32.938 59.722 33.028C59.704 33.136 59.686 33.262 59.686 33.424C59.668 33.46 59.65 33.604 59.632 33.82C59.614 34.036 59.596 34.252 59.578 34.432C59.542 34.612 59.524 34.81 59.488 34.99C59.452 35.188 59.434 35.314 59.416 35.386C59.308 35.638 59.11 35.818 58.822 35.926C58.534 36.034 58.228 36.052 57.922 35.98C57.49 35.872 57.256 35.53 57.22 34.936C57.202 34.864 57.184 34.504 57.148 33.82C57.112 33.136 57.094 32.704 57.076 32.506C57.04 32.362 57.004 32.254 56.932 32.182C56.86 32.11 56.752 32.11 56.572 32.146C56.356 32.2 55.312 32.236 53.404 32.236C53.224 32.236 53.044 32.164 52.9 32.02C52.738 31.876 52.666 31.714 52.666 31.534C52.666 31.498 52.648 31.372 52.648 31.192C52.648 31.012 52.648 30.886 52.648 30.796C52.648 30.724 52.684 30.616 52.738 30.49C52.774 30.364 52.846 30.256 52.936 30.148C53.08 30.022 53.512 29.932 54.25 29.878C54.97 29.842 55.528 29.824 55.924 29.86ZM86.956 33.802C86.938 33.946 86.938 34.144 86.974 34.36C87.01 34.594 87.01 34.81 87.01 35.008C87.01 35.206 86.956 35.386 86.884 35.548C86.74 35.818 86.596 35.98 86.416 36.016C86.2 36.07 85.948 36.124 85.624 36.16C85.3 36.214 85.012 36.25 84.778 36.268C84.544 36.286 84.436 36.286 84.436 36.268H74.932C74.608 36.286 74.122 36.304 73.474 36.322C72.826 36.34 72.34 36.34 72.016 36.34C71.656 36.358 71.314 36.286 70.99 36.124L70.756 34.738L70.99 34.054C71.062 33.838 71.206 33.73 71.422 33.712L72.862 33.568C74.302 33.568 75.85 33.532 77.488 33.496C77.344 33.352 77.272 33.19 77.272 33.046C77.236 32.83 77.218 32.524 77.218 32.128C77.2 31.732 77.182 31.444 77.182 31.3C77.182 31.156 77.2 31.048 77.254 30.976C77.29 30.904 77.398 30.868 77.56 30.868C77.74 30.886 78.082 30.886 78.55 30.886C79.018 30.886 79.342 30.868 79.54 30.868C79.918 30.886 80.17 30.976 80.314 31.156C80.458 31.336 80.566 31.678 80.656 32.182C80.71 32.56 80.62 32.974 80.386 33.442C82.33 33.406 83.608 33.37 84.184 33.334C84.886 33.316 85.444 33.316 85.84 33.352C85.948 33.352 86.272 33.46 86.812 33.64C86.83 33.658 86.866 33.676 86.902 33.712C86.938 33.748 86.956 33.784 86.956 33.802ZM77.2 22.354C78.658 22.246 79.468 22.192 79.648 22.174C79.954 22.174 80.296 22.282 80.656 22.48C80.728 22.534 80.8 22.624 80.872 22.75C80.926 22.876 80.962 22.984 80.962 23.074C80.944 23.902 81.052 24.64 81.268 25.288C81.358 25.612 81.556 25.792 81.844 25.864C82.672 26.098 83.734 26.404 84.994 26.8C85.21 26.872 85.354 26.962 85.444 27.07C85.516 27.178 85.516 27.34 85.426 27.556C85.354 27.7 85.3 27.916 85.264 28.204C85.21 28.492 85.174 28.654 85.156 28.726C85.048 29.158 84.832 29.446 84.544 29.626C84.238 29.806 83.842 29.932 83.374 30.004C83.302 30.022 83.068 30.058 82.708 30.13C82.348 30.202 82.06 30.238 81.88 30.238C81.592 30.238 81.322 30.13 81.034 29.878C80.692 29.608 80.386 29.284 80.116 28.888C79.702 28.312 79.198 27.898 78.586 27.628C78.334 27.52 78.064 27.52 77.74 27.664C77.128 27.952 76.372 28.33 75.508 28.798C75.472 28.834 75.418 28.852 75.364 28.87C75.112 29.014 74.914 29.122 74.77 29.194C74.626 29.266 74.428 29.338 74.194 29.392C73.942 29.464 73.726 29.482 73.51 29.446C73.24 29.446 73.06 29.392 72.97 29.302C72.862 29.23 72.808 29.05 72.772 28.798C72.736 28.564 72.682 28.33 72.61 28.096C72.322 27.214 72.592 26.548 73.438 26.116C75.526 25.072 76.606 24.532 76.696 24.496C76.912 24.388 77.074 24.244 77.146 24.064C77.218 23.884 77.272 23.668 77.29 23.38C77.29 23.344 77.254 23.002 77.2 22.354Z" fill="#818181"/>
<path d="M60.19 23.814C60.856 23.778 61.234 23.778 61.306 23.778C61.558 23.796 61.792 23.85 62.026 23.958C62.17 24.048 62.242 24.192 62.278 24.39C62.296 24.588 62.314 24.786 62.314 25.002C62.314 25.146 62.296 25.308 62.296 25.452C62.26 25.902 61.99 26.244 61.486 26.46C61.432 26.478 61.108 26.658 60.532 26.982C61.234 28.17 61.612 28.8 61.666 28.89C61.9 29.304 61.954 29.88 61.846 30.618C61.81 30.726 61.684 30.852 61.468 31.032C61.234 31.212 61.072 31.302 60.964 31.302C60.838 31.302 60.694 31.248 60.532 31.104C60.37 30.96 60.262 30.816 60.208 30.654C60.172 30.564 60.082 30.42 59.938 30.24C59.794 30.06 59.704 29.916 59.668 29.826C59.614 29.718 59.452 29.592 59.164 29.412C58.876 29.25 58.678 29.178 58.606 29.214C58.57 29.232 58.498 29.268 58.372 29.304C58.228 29.358 58.138 29.412 58.066 29.448C57.994 29.484 57.886 29.556 57.76 29.646C57.616 29.754 57.508 29.862 57.4 29.97C56.914 30.51 56.554 30.924 56.302 31.194C56.122 31.374 55.816 31.374 55.366 31.158C54.898 30.96 54.52 30.726 54.232 30.474C54.088 30.366 54.016 30.204 54.016 29.97C54.016 29.736 54.052 29.502 54.16 29.286C54.16 29.286 54.304 29.142 54.556 28.836L54.952 28.386C55.168 28.206 55.474 27.99 55.888 27.72C56.284 27.468 56.608 27.234 56.842 27.036C56.896 26.964 56.896 26.892 56.842 26.82C56.77 26.748 56.698 26.694 56.59 26.658C56.518 26.64 56.32 26.586 56.014 26.478C55.69 26.37 55.456 26.298 55.294 26.244C54.628 26.028 54.34 25.668 54.448 25.2C54.448 25.164 54.466 25.056 54.502 24.912C54.538 24.768 54.574 24.642 54.574 24.552C54.574 24.48 54.61 24.408 54.646 24.336C54.682 24.282 54.718 24.246 54.754 24.21C54.79 24.174 54.862 24.156 54.952 24.138L55.132 24.12C55.168 24.12 55.258 24.102 55.366 24.102H55.6C55.672 24.102 55.798 24.102 55.96 24.102C56.104 24.12 56.23 24.12 56.338 24.12C56.446 24.12 56.536 24.084 56.626 24.012C56.806 23.904 56.914 23.508 56.968 22.842C56.968 22.536 57.076 22.32 57.256 22.194C57.436 22.068 57.67 21.978 57.958 21.942C58.606 21.87 59.11 21.906 59.47 22.086C59.722 22.23 59.884 22.428 59.956 22.698C59.974 22.842 60.01 23.058 60.082 23.328C60.136 23.616 60.172 23.778 60.19 23.814ZM68.704 24.012C68.632 24.372 68.578 25.2 68.542 26.496C68.506 27.792 68.506 28.638 68.542 29.016C68.578 29.484 68.56 30.816 68.488 33.03C68.416 35.244 68.344 36.558 68.272 36.954C68.2 37.332 68.056 37.656 67.858 37.908C67.516 38.34 66.904 38.538 66.004 38.502C65.986 38.502 65.968 38.502 65.968 38.502V38.484C65.896 38.484 65.824 38.466 65.734 38.466C65.626 38.466 65.572 38.448 65.536 38.448L65.41 38.412C65.338 38.412 65.302 38.394 65.302 38.376C65.284 38.358 65.266 38.34 65.248 38.304C65.212 38.286 65.194 38.25 65.194 38.196L65.176 38.034C65.176 37.98 65.176 37.908 65.176 37.8C65.158 37.62 65.212 36.306 65.32 33.858C65.428 31.41 65.446 29.988 65.392 29.556C65.302 28.98 65.23 27.936 65.176 26.424C65.104 24.93 65.122 23.868 65.212 23.256C65.248 23.04 65.392 22.842 65.644 22.698C65.896 22.554 66.202 22.482 66.526 22.482C66.67 22.482 66.904 22.464 67.264 22.428C67.498 22.392 67.696 22.374 67.876 22.374C68.056 22.374 68.2 22.446 68.326 22.554C68.434 22.68 68.524 22.878 68.596 23.13C68.596 23.166 68.632 23.454 68.704 24.012ZM55.924 31.86C57.634 31.77 58.57 31.716 58.714 31.698C61.486 31.662 63.25 31.68 64.024 31.77C64.168 31.77 64.294 31.77 64.402 31.788C64.51 31.806 64.582 31.86 64.654 31.932C64.726 32.022 64.78 32.094 64.816 32.166C64.852 32.238 64.87 32.346 64.888 32.508C64.888 32.67 64.906 32.796 64.906 32.886V33.354V33.822C64.852 34.002 64.564 34.074 64.042 34.074C63.502 34.074 62.926 34.056 62.278 33.984C61.63 33.93 61.234 33.912 61.09 33.93C61 33.948 60.73 34.02 60.262 34.146C60.154 34.182 60.064 34.236 59.992 34.308C59.92 34.398 59.848 34.524 59.812 34.668C59.776 34.812 59.74 34.938 59.722 35.028C59.704 35.136 59.686 35.262 59.686 35.424C59.668 35.46 59.65 35.604 59.632 35.82C59.614 36.036 59.596 36.252 59.578 36.432C59.542 36.612 59.524 36.81 59.488 36.99C59.452 37.188 59.434 37.314 59.416 37.386C59.308 37.638 59.11 37.818 58.822 37.926C58.534 38.034 58.228 38.052 57.922 37.98C57.49 37.872 57.256 37.53 57.22 36.936C57.202 36.864 57.184 36.504 57.148 35.82C57.112 35.136 57.094 34.704 57.076 34.506C57.04 34.362 57.004 34.254 56.932 34.182C56.86 34.11 56.752 34.11 56.572 34.146C56.356 34.2 55.312 34.236 53.404 34.236C53.224 34.236 53.044 34.164 52.9 34.02C52.738 33.876 52.666 33.714 52.666 33.534C52.666 33.498 52.648 33.372 52.648 33.192C52.648 33.012 52.648 32.886 52.648 32.796C52.648 32.724 52.684 32.616 52.738 32.49C52.774 32.364 52.846 32.256 52.936 32.148C53.08 32.022 53.512 31.932 54.25 31.878C54.97 31.842 55.528 31.824 55.924 31.86ZM86.956 35.802C86.938 35.946 86.938 36.144 86.974 36.36C87.01 36.594 87.01 36.81 87.01 37.008C87.01 37.206 86.956 37.386 86.884 37.548C86.74 37.818 86.596 37.98 86.416 38.016C86.2 38.07 85.948 38.124 85.624 38.16C85.3 38.214 85.012 38.25 84.778 38.268C84.544 38.286 84.436 38.286 84.436 38.268H74.932C74.608 38.286 74.122 38.304 73.474 38.322C72.826 38.34 72.34 38.34 72.016 38.34C71.656 38.358 71.314 38.286 70.99 38.124L70.756 36.738L70.99 36.054C71.062 35.838 71.206 35.73 71.422 35.712L72.862 35.568C74.302 35.568 75.85 35.532 77.488 35.496C77.344 35.352 77.272 35.19 77.272 35.046C77.236 34.83 77.218 34.524 77.218 34.128C77.2 33.732 77.182 33.444 77.182 33.3C77.182 33.156 77.2 33.048 77.254 32.976C77.29 32.904 77.398 32.868 77.56 32.868C77.74 32.886 78.082 32.886 78.55 32.886C79.018 32.886 79.342 32.868 79.54 32.868C79.918 32.886 80.17 32.976 80.314 33.156C80.458 33.336 80.566 33.678 80.656 34.182C80.71 34.56 80.62 34.974 80.386 35.442C82.33 35.406 83.608 35.37 84.184 35.334C84.886 35.316 85.444 35.316 85.84 35.352C85.948 35.352 86.272 35.46 86.812 35.64C86.83 35.658 86.866 35.676 86.902 35.712C86.938 35.748 86.956 35.784 86.956 35.802ZM77.2 24.354C78.658 24.246 79.468 24.192 79.648 24.174C79.954 24.174 80.296 24.282 80.656 24.48C80.728 24.534 80.8 24.624 80.872 24.75C80.926 24.876 80.962 24.984 80.962 25.074C80.944 25.902 81.052 26.64 81.268 27.288C81.358 27.612 81.556 27.792 81.844 27.864C82.672 28.098 83.734 28.404 84.994 28.8C85.21 28.872 85.354 28.962 85.444 29.07C85.516 29.178 85.516 29.34 85.426 29.556C85.354 29.7 85.3 29.916 85.264 30.204C85.21 30.492 85.174 30.654 85.156 30.726C85.048 31.158 84.832 31.446 84.544 31.626C84.238 31.806 83.842 31.932 83.374 32.004C83.302 32.022 83.068 32.058 82.708 32.13C82.348 32.202 82.06 32.238 81.88 32.238C81.592 32.238 81.322 32.13 81.034 31.878C80.692 31.608 80.386 31.284 80.116 30.888C79.702 30.312 79.198 29.898 78.586 29.628C78.334 29.52 78.064 29.52 77.74 29.664C77.128 29.952 76.372 30.33 75.508 30.798C75.472 30.834 75.418 30.852 75.364 30.87C75.112 31.014 74.914 31.122 74.77 31.194C74.626 31.266 74.428 31.338 74.194 31.392C73.942 31.464 73.726 31.482 73.51 31.446C73.24 31.446 73.06 31.392 72.97 31.302C72.862 31.23 72.808 31.05 72.772 30.798C72.736 30.564 72.682 30.33 72.61 30.096C72.322 29.214 72.592 28.548 73.438 28.116C75.526 27.072 76.606 26.532 76.696 26.496C76.912 26.388 77.074 26.244 77.146 26.064C77.218 25.884 77.272 25.668 77.29 25.38C77.29 25.344 77.254 25.002 77.2 24.354Z" fill="white"/>
</svg>
