<svg width="140" height="45" viewBox="0 0 140 45" fill="none" xmlns="http://www.w3.org/2000/svg">
<rect width="140" height="45" rx="22.5" fill="#99C08E"/>
<circle cx="31.7818" cy="22.7818" r="7.56" stroke="white" stroke-width="1.68"/>
<rect x="28.7275" y="19.7271" width="6" height="6" rx="1.63636" fill="white"/>
<path d="M66.8828 20.5527C66.8037 19.6299 66.1182 19.0762 64.8965 19.0762C63.6836 19.0762 63.0596 19.6035 63.0508 20.3242C63.0332 21.1152 63.8066 21.502 64.9492 21.748L66.0566 22.0117C68.5088 22.5479 69.9326 23.7695 69.9414 25.8086C69.9326 28.2168 68.0605 29.667 64.8965 29.6758C61.7236 29.667 59.6758 28.2432 59.623 25.3164H62.5059C62.5762 26.5469 63.499 27.1797 64.8613 27.1797C66.127 27.1797 66.8828 26.626 66.9004 25.8086C66.8828 25.0703 66.2324 24.6836 64.8262 24.3672L63.4902 24.0508C61.3018 23.541 59.957 22.4512 59.957 20.5352C59.9482 18.1709 62.0312 16.5977 64.9141 16.5977C67.8496 16.5977 69.7393 18.1973 69.7656 20.5527H66.8828ZM76.7969 19.9551V22.1348H75.0566V26.5117C75.0654 27.1094 75.3643 27.2939 75.8652 27.3027C76.1113 27.3203 76.5859 27.2939 76.9199 27.2676V29.5352C76.6299 29.5791 76.1377 29.6318 75.4434 29.6406C73.3428 29.6318 72.0859 28.7705 72.1035 26.8457V22.1348H70.8203V19.9551H72.1035V17.6699H75.0566V19.9551H76.7969ZM82.6504 29.6758C79.6709 29.6758 77.8516 27.6982 77.8516 24.7539C77.8516 21.8096 79.6709 19.832 82.6504 19.832C85.6387 19.832 87.4492 21.8096 87.4492 24.7539C87.4492 27.6982 85.6387 29.6758 82.6504 29.6758ZM80.875 24.7363C80.8662 26.3359 81.499 27.4346 82.668 27.4434C83.8018 27.4346 84.4346 26.3359 84.4258 24.7363C84.4346 23.1455 83.8018 22.0381 82.668 22.0293C81.499 22.0381 80.8662 23.1455 80.875 24.7363ZM88.9785 33.0859V19.9551H91.9141V21.5898H92.0195C92.3711 20.7285 93.1885 19.832 94.709 19.832C96.7305 19.832 98.5234 21.3877 98.5234 24.7363C98.5234 27.9707 96.8271 29.6406 94.709 29.6406C93.2412 29.6406 92.3887 28.8232 92.0195 27.9531H91.9492V33.0859H88.9785ZM91.8789 24.7188C91.8789 26.3008 92.5469 27.3203 93.6895 27.3203C94.8496 27.3203 95.4912 26.292 95.4824 24.7188C95.4912 23.1631 94.8584 22.1523 93.6895 22.1523C92.5381 22.1523 91.8789 23.1367 91.8789 24.7188ZM103.568 16.7734L103.305 25.6152H100.791L100.527 16.7734H103.568ZM100.457 28.0762C100.439 27.2148 101.169 26.5117 102.039 26.5117C102.883 26.5117 103.63 27.2148 103.639 28.0762C103.63 28.9639 102.883 29.6758 102.039 29.6758C101.169 29.6758 100.439 28.9639 100.457 28.0762Z" fill="white"/>
</svg>
