<svg width="333" height="60" viewBox="0 0 333 60" fill="none" xmlns="http://www.w3.org/2000/svg">
<rect width="333" height="60" rx="30" fill="#99C08E"/>
<circle cx="99.6002" cy="29.5997" r="13.86" stroke="white" stroke-width="3.08"/>
<rect x="94" y="24" width="11" height="11" rx="3" fill="white"/>
<path d="M159.484 25.582C159.361 24.1465 158.295 23.2852 156.395 23.2852C154.508 23.2852 153.537 24.1055 153.523 25.2266C153.496 26.457 154.699 27.0586 156.477 27.4414L158.199 27.8516C162.014 28.6855 164.229 30.5859 164.242 33.7578C164.229 37.5039 161.316 39.7598 156.395 39.7734C151.459 39.7598 148.273 37.5449 148.191 32.9922H152.676C152.785 34.9062 154.221 35.8906 156.34 35.8906C158.309 35.8906 159.484 35.0293 159.512 33.7578C159.484 32.6094 158.473 32.0078 156.285 31.5156L154.207 31.0234C150.803 30.2305 148.711 28.5352 148.711 25.5547C148.697 21.877 151.938 19.4297 156.422 19.4297C160.988 19.4297 163.928 21.918 163.969 25.582H159.484ZM174.906 24.6523V28.043H172.199V34.8516C172.213 35.7812 172.678 36.0684 173.457 36.082C173.84 36.1094 174.578 36.0684 175.098 36.0273V39.5547C174.646 39.623 173.881 39.7051 172.801 39.7188C169.533 39.7051 167.578 38.3652 167.605 35.3711V28.043H165.609V24.6523H167.605V21.0977H172.199V24.6523H174.906ZM184.012 39.7734C179.377 39.7734 176.547 36.6973 176.547 32.1172C176.547 27.5371 179.377 24.4609 184.012 24.4609C188.66 24.4609 191.477 27.5371 191.477 32.1172C191.477 36.6973 188.66 39.7734 184.012 39.7734ZM181.25 32.0898C181.236 34.5781 182.221 36.2871 184.039 36.3008C185.803 36.2871 186.787 34.5781 186.773 32.0898C186.787 29.6152 185.803 27.8926 184.039 27.8789C182.221 27.8926 181.236 29.6152 181.25 32.0898ZM193.855 45.0781V24.6523H198.422V27.1953H198.586C199.133 25.8555 200.404 24.4609 202.77 24.4609C205.914 24.4609 208.703 26.8809 208.703 32.0898C208.703 37.1211 206.064 39.7188 202.77 39.7188C200.486 39.7188 199.16 38.4473 198.586 37.0938H198.477V45.0781H193.855ZM198.367 32.0625C198.367 34.5234 199.406 36.1094 201.184 36.1094C202.988 36.1094 203.986 34.5098 203.973 32.0625C203.986 29.6426 203.002 28.0703 201.184 28.0703C199.393 28.0703 198.367 29.6016 198.367 32.0625ZM216.551 19.7031L216.141 33.457H212.23L211.82 19.7031H216.551ZM211.711 37.2852C211.684 35.9453 212.818 34.8516 214.172 34.8516C215.484 34.8516 216.646 35.9453 216.66 37.2852C216.646 38.666 215.484 39.7734 214.172 39.7734C212.818 39.7734 211.684 38.666 211.711 37.2852Z" fill="white"/>
</svg>
