<svg width="1600" height="800" viewBox="0 0 1600 800" fill="none" xmlns="http://www.w3.org/2000/svg">
<rect width="1600" height="800" fill="#F6F4EF"/>
<path d="M1205.27 387.402C1209.95 378.632 1212.62 368.61 1212.62 357.961C1212.62 323.277 1184.5 295.159 1149.82 295.159C1143.93 295.159 1138.24 295.971 1132.84 297.502C1121.47 278.965 1100.98 266.6 1077.62 266.6C1041.82 266.6 1012.82 295.646 1012.82 331.444C1012.82 339.61 1014.33 347.428 1017.11 354.62C989.227 360.629 968.324 385.476 968.324 415.196C968.324 434.15 976.839 451.156 990.271 462.5C989.668 465.864 989.343 469.344 989.343 472.894C989.343 506.024 1016.21 532.866 1049.32 532.866C1058.76 532.866 1067.67 530.685 1075.6 526.811C1084.49 537.9 1098.17 545 1113.49 545C1132.42 545 1148.84 534.188 1156.87 518.343C1160.28 518.876 1163.81 519.132 1167.4 519.132C1206.8 519.132 1238.74 487.208 1238.74 447.792C1238.74 422.318 1225.38 399.93 1205.24 387.356L1205.27 387.402Z" fill="#578246"/>
<path d="M1205.27 375.802C1209.95 367.033 1212.62 357.01 1212.62 346.362C1212.62 311.678 1184.5 283.559 1149.82 283.559C1143.93 283.559 1138.24 284.371 1132.84 285.902C1121.47 267.366 1100.98 255 1077.62 255C1041.82 255 1012.82 284.046 1012.82 319.844C1012.82 328.01 1014.33 335.829 1017.11 343.021C989.227 349.03 968.324 373.877 968.324 403.596C968.324 422.55 976.839 439.556 990.271 450.901C989.668 454.265 989.343 457.745 989.343 461.294C989.343 494.424 1016.21 521.266 1049.32 521.266C1058.76 521.266 1067.67 519.086 1075.6 515.211C1084.49 526.301 1098.17 533.4 1113.49 533.4C1132.42 533.4 1148.84 522.589 1156.87 506.743C1160.28 507.277 1163.81 507.532 1167.4 507.532C1206.8 507.532 1238.74 475.609 1238.74 436.192C1238.74 410.718 1225.38 388.33 1205.24 375.756L1205.27 375.802Z" fill="#99C08E"/>
<path d="M1064.49 432.919C1063.82 432.919 1062.87 432.966 1061.66 433.082C1060.43 433.198 1059.55 433.244 1058.99 433.244C1056.88 433.244 1055.35 432.687 1054.4 431.574C1053.45 430.46 1052.98 428.674 1052.98 426.238C1052.98 425.565 1053.38 422.062 1054.14 415.705C1061.94 413.153 1069.57 411.854 1077.02 411.854C1077.58 411.854 1078.41 411.877 1079.52 411.947C1080.64 411.993 1081.52 412.039 1082.19 412.039L1093.89 411.367C1093.44 410.369 1093.19 409 1093.14 407.283C1093.1 405.567 1092.89 404.221 1092.56 403.27C1092.24 402.319 1091.5 401.785 1090.38 401.692C1088.71 401.367 1081.87 401.043 1069.83 400.764C1057.81 400.486 1050.78 400.463 1048.78 400.671C1046.23 401.112 1044.03 401.251 1042.2 401.089C1040.36 400.927 1038.99 399.72 1038.11 397.493C1036.44 393.827 1035.93 389.698 1036.6 385.127C1036.84 384.014 1037.76 382.9 1039.44 381.787C1041.11 380.673 1045 379.791 1051.13 379.119C1057.25 378.446 1061.59 378.33 1064.17 378.794H1085.14C1089.08 378.794 1091.84 378.747 1093.4 378.631C1113.88 378.399 1125.69 378.307 1128.8 378.307C1131.91 378.307 1138.71 378.585 1149.17 379.142C1159.63 379.699 1165.16 379.977 1165.71 379.977C1166.27 379.977 1167.27 380.139 1168.73 380.487C1171.07 381.044 1172.65 381.856 1173.48 382.9C1174.32 383.967 1174.58 385.661 1174.23 388.004C1174.11 388.886 1174 389.675 1173.9 390.347C1173.79 391.02 1173.67 391.623 1173.58 392.18C1173.46 392.737 1173.25 393.201 1172.9 393.595C1172.58 393.99 1172.35 394.338 1172.23 394.686C1172.12 395.034 1171.79 395.335 1171.23 395.614C1170.68 395.892 1170.26 396.124 1169.98 396.287C1169.7 396.449 1169.15 396.658 1168.31 396.867C1167.48 397.099 1166.87 397.261 1166.48 397.377C1166.08 397.493 1165.27 397.702 1164.07 398.05C1162.84 398.375 1161.88 398.607 1161.24 398.723C1160.01 399.047 1152.88 399.419 1139.84 399.813C1126.81 400.207 1119.64 400.625 1118.29 401.066C1117.85 401.182 1117.6 401.669 1117.55 402.574C1117.5 403.455 1117.5 404.407 1117.55 405.404C1117.6 406.402 1117.57 407.469 1117.46 408.583C1117.46 408.907 1117.5 409.418 1117.62 410.091C1117.74 410.763 1117.78 411.204 1117.78 411.436C1129.15 411.668 1138.89 411.877 1147.01 412.109C1149.12 412.225 1151.07 412.666 1152.86 413.455C1153.53 413.687 1154.11 414.127 1154.62 414.8C1155.13 415.473 1155.37 416.076 1155.37 416.633V418.976C1155.37 422.201 1154.88 424.823 1153.95 426.818C1153 428.813 1151.03 430.321 1148.01 431.319C1147.45 431.551 1145.69 431.69 1142.74 431.736C1139.8 431.783 1137.08 431.922 1134.65 432.154C1132.19 432.386 1130.98 432.827 1130.98 433.499C1130.87 434.056 1130.91 434.938 1131.14 436.167C1131.38 437.397 1131.47 438.279 1131.47 438.835C1131.47 438.951 1131.52 439.903 1131.63 441.666C1131.75 443.452 1131.79 444.612 1131.79 445.169L1152.67 446.515C1152.56 447.953 1152.49 450.876 1152.42 455.284C1152.35 459.692 1152 463.103 1151.33 465.562C1151.21 466.003 1150.82 466.513 1150.17 467.07C1149.5 467.627 1148.94 467.905 1148.5 467.905C1146.94 468.021 1140.47 468.067 1129.13 468.067C1126.55 468.067 1122.84 468.021 1117.94 467.905C1113.05 467.789 1109.31 467.743 1106.76 467.743C1102.63 467.743 1096.44 467.766 1088.13 467.835C1079.83 467.882 1073.63 467.928 1069.5 467.928H1055.98C1054.42 467.928 1053.22 467.487 1052.38 466.583C1051.55 465.701 1051.13 464.518 1051.13 463.079C1051.13 462.639 1051.17 462.128 1051.29 461.571C1051.29 461.247 1051.38 460.087 1051.55 458.138C1051.71 456.189 1051.96 454.774 1052.29 453.869C1053.17 451.874 1054.72 450.528 1056.97 449.855C1058.97 449.183 1061.85 448.463 1065.58 447.675C1069.32 446.886 1071.52 446.445 1072.17 446.329C1073.72 446.004 1074.86 445.656 1075.6 445.331C1076.32 445.007 1077.09 444.38 1077.85 443.499C1078.62 442.617 1079.01 441.434 1079.01 439.995C1079.01 439.207 1079.13 438.371 1079.34 437.49C1079.57 436.608 1079.87 435.564 1080.27 434.404C1080.66 433.244 1080.92 432.432 1081.01 431.991C1078.9 432.548 1077.78 432.827 1077.67 432.827C1074.33 432.943 1071.22 432.989 1068.32 432.989H1064.47L1064.49 432.919ZM1088.04 314.994C1100.29 314.112 1107.18 313.602 1108.76 313.486C1111.31 313.486 1114.16 314.367 1117.27 316.154C1117.94 316.479 1118.55 317.175 1119.1 318.242C1119.66 319.309 1119.94 320.283 1119.94 321.165C1119.82 328.079 1120.66 334.25 1122.44 339.702C1122.77 340.815 1125.48 342.579 1130.54 344.968C1135.6 347.358 1139.2 348.843 1141.31 349.399C1148.31 351.302 1157.18 353.97 1167.87 357.427C1169.66 357.983 1170.91 358.703 1171.63 359.607C1172.35 360.489 1172.32 361.835 1171.54 363.621C1171.21 364.503 1170.89 365.175 1170.61 365.616C1170.33 366.057 1170.1 366.475 1169.94 366.869C1169.77 367.263 1169.52 367.959 1169.19 368.957C1168.96 370.071 1168.73 371.277 1168.45 372.553C1168.17 373.829 1168.03 374.618 1168.03 374.896C1168.03 375.175 1167.75 375.546 1167.2 375.987C1166.64 376.427 1166.11 376.683 1165.62 376.729C1165.11 376.775 1164.09 376.915 1162.53 377.147C1161.86 377.263 1159.98 377.634 1156.85 378.237C1153.74 378.84 1151.4 379.165 1149.84 379.165C1147.5 379.165 1145.11 378.214 1142.65 376.335C1141.42 375.221 1135.02 371.834 1123.44 366.15C1111.87 360.466 1104 356.684 1099.89 354.782C1097.78 353.9 1095.39 354.063 1092.7 355.292C1087.46 357.519 1081.13 360.698 1073.66 364.804C1070.2 366.707 1066.32 368.423 1062.06 369.978C1057.76 371.532 1054.17 372.205 1051.29 371.973C1049.06 371.741 1047.56 371.3 1046.79 370.627C1046 369.955 1045.44 368.516 1045.12 366.289C1044.79 364.387 1044.28 362.438 1043.61 360.443C1043.05 358.54 1042.73 357.079 1042.61 356.011C1042.5 354.944 1042.87 353.947 1043.7 352.995C1044.54 352.044 1045.35 351.348 1046.12 350.907C1046.88 350.467 1048.46 349.678 1050.8 348.564C1054.38 346.662 1060.36 343.808 1068.76 339.957C1077.16 336.106 1082.22 333.809 1083.89 333.02C1085.79 332.139 1087.06 330.932 1087.74 329.424C1088.41 327.916 1088.8 325.991 1088.9 323.671C1088.9 323.346 1088.62 320.446 1088.06 314.994H1088.04ZM1098.06 443.777C1098.06 445.447 1098.94 446.283 1100.73 446.283H1101.4C1102.17 446.283 1103.88 446.167 1106.51 445.958C1109.13 445.726 1111.15 445.563 1112.61 445.447C1112.93 445.331 1113.35 445.123 1113.86 444.775C1114.37 444.45 1114.6 444.171 1114.6 443.939C1114.72 441.828 1114.77 439.763 1114.77 437.768C1114.77 435.216 1114.72 432.641 1114.6 430.089C1114.6 429.857 1114.3 429.579 1113.68 429.254C1113.07 428.929 1112.54 428.743 1112.1 428.743H1111.94C1110.82 428.859 1106.85 429.416 1100.08 430.414C1098.85 437.977 1098.18 442.153 1098.08 442.942V443.777H1098.06Z" fill="#578246"/>
<path d="M1065.11 442.199C1064.44 442.199 1063.49 442.246 1062.28 442.362C1061.05 442.478 1060.17 442.524 1059.62 442.524C1057.5 442.524 1055.97 441.967 1055.02 440.854C1054.07 439.74 1053.61 437.954 1053.61 435.518C1053.61 434.845 1054 431.342 1054.77 424.985C1062.56 422.433 1070.2 421.134 1077.64 421.134C1078.2 421.134 1079.03 421.157 1080.15 421.226C1081.26 421.273 1082.14 421.319 1082.82 421.319L1094.51 420.646C1094.07 419.649 1093.81 418.28 1093.77 416.563C1093.7 414.846 1093.51 413.501 1093.19 412.55C1092.86 411.598 1092.12 411.065 1091.01 410.972C1089.34 410.647 1082.49 410.322 1070.45 410.044C1058.43 409.766 1051.4 409.742 1049.41 409.951C1046.86 410.392 1044.65 410.531 1042.82 410.369C1040.99 410.206 1039.62 409 1038.74 406.773C1037.07 403.107 1036.56 398.978 1037.23 394.407C1037.46 393.294 1038.39 392.18 1040.06 391.066C1041.73 389.953 1045.63 389.071 1051.75 388.398C1057.88 387.726 1062.21 387.61 1064.79 388.074H1085.76C1089.71 388.074 1092.47 388.027 1094.02 387.911C1114.51 387.679 1126.32 387.586 1129.42 387.586C1132.53 387.586 1139.33 387.865 1149.79 388.422C1160.26 388.978 1165.78 389.257 1166.34 389.257C1166.89 389.257 1167.89 389.419 1169.35 389.767C1171.7 390.324 1173.27 391.136 1174.11 392.18C1174.94 393.247 1175.2 394.941 1174.85 397.284C1174.73 398.166 1174.62 398.954 1174.53 399.627C1174.41 400.3 1174.29 400.903 1174.2 401.46C1174.08 402.017 1173.88 402.481 1173.53 402.875C1173.2 403.27 1172.97 403.618 1172.86 403.966C1172.74 404.29 1172.41 404.615 1171.86 404.894C1171.3 405.172 1170.88 405.404 1170.6 405.566C1170.33 405.729 1169.77 405.938 1168.93 406.146C1168.1 406.378 1167.5 406.541 1167.1 406.657C1166.71 406.773 1165.9 406.982 1164.69 407.33C1163.48 407.678 1162.51 407.886 1161.86 408.002C1160.63 408.327 1153.51 408.698 1140.47 409.093C1127.43 409.487 1120.26 409.905 1118.92 410.346C1118.47 410.462 1118.22 410.949 1118.17 411.854C1118.13 412.735 1118.13 413.686 1118.17 414.684C1118.22 415.682 1118.2 416.749 1118.08 417.862C1118.08 418.187 1118.13 418.698 1118.24 419.37C1118.36 420.043 1118.4 420.484 1118.4 420.716C1129.77 420.948 1139.52 421.157 1147.64 421.389C1149.75 421.505 1151.7 421.946 1153.48 422.734C1154.16 422.966 1154.74 423.407 1155.25 424.08C1155.76 424.753 1155.99 425.356 1155.99 425.913V428.256C1155.99 431.481 1155.52 434.102 1154.57 436.098C1153.62 438.093 1151.65 439.601 1148.63 440.598C1148.08 440.83 1146.31 440.97 1143.37 441.016C1140.42 441.062 1137.71 441.202 1135.27 441.434C1132.81 441.666 1131.61 442.106 1131.61 442.779C1131.49 443.336 1131.56 444.218 1131.77 445.447C1132 446.677 1132.09 447.558 1132.09 448.115C1132.09 448.231 1132.14 449.182 1132.26 450.946C1132.37 452.732 1132.42 453.892 1132.42 454.449L1153.3 455.794C1153.18 457.233 1153.11 460.156 1153.04 464.564C1153 468.972 1152.62 472.382 1151.95 474.842C1151.84 475.282 1151.44 475.793 1150.79 476.35C1150.12 476.906 1149.56 477.185 1149.12 477.185C1147.57 477.301 1141.09 477.347 1129.75 477.347C1127.2 477.347 1123.46 477.301 1118.57 477.185C1113.67 477.069 1109.94 477.022 1107.38 477.022C1103.26 477.022 1097.06 477.046 1088.76 477.115C1080.45 477.162 1074.26 477.208 1070.13 477.208H1056.6C1055.05 477.208 1053.84 476.767 1053 475.862C1052.17 474.981 1051.75 473.798 1051.75 472.359C1051.75 471.918 1051.8 471.408 1051.91 470.851C1051.91 470.526 1052.01 469.366 1052.17 467.418C1052.33 465.469 1052.59 464.054 1052.91 463.149C1053.79 461.154 1055.37 459.808 1057.6 459.135C1059.59 458.462 1062.47 457.743 1066.2 456.954C1069.94 456.166 1072.14 455.725 1072.79 455.609C1074.35 455.284 1075.48 454.936 1076.23 454.611C1076.95 454.286 1077.71 453.66 1078.48 452.778C1079.24 451.897 1079.64 450.714 1079.64 449.275C1079.64 448.486 1079.75 447.651 1079.96 446.77C1080.19 445.888 1080.5 444.844 1080.89 443.684C1081.28 442.524 1081.54 441.712 1081.63 441.271C1079.52 441.828 1078.41 442.106 1078.29 442.106C1074.95 442.222 1071.84 442.269 1068.94 442.269H1065.09L1065.11 442.199ZM1088.66 324.274C1100.91 323.392 1107.8 322.882 1109.38 322.766C1111.93 322.766 1114.79 323.647 1117.89 325.434C1118.57 325.758 1119.17 326.454 1119.73 327.522C1120.28 328.589 1120.56 329.563 1120.56 330.445C1120.45 337.358 1121.28 343.53 1123.07 348.982C1123.39 350.095 1126.11 351.858 1131.16 354.248C1136.22 356.638 1139.82 358.122 1141.93 358.679C1148.94 360.582 1157.8 363.25 1168.49 366.706C1170.28 367.263 1171.53 367.982 1172.25 368.887C1172.97 369.769 1172.95 371.114 1172.16 372.901C1171.83 373.782 1171.51 374.455 1171.23 374.896C1170.95 375.337 1170.72 375.754 1170.56 376.149C1170.4 376.543 1170.14 377.239 1169.82 378.237C1169.58 379.35 1169.33 380.557 1169.07 381.833C1168.8 383.109 1168.66 383.898 1168.66 384.176C1168.66 384.454 1168.38 384.826 1167.82 385.266C1167.26 385.707 1166.73 385.962 1166.24 386.009C1165.73 386.055 1164.71 386.194 1163.16 386.426C1162.48 386.542 1160.58 386.914 1157.47 387.517C1154.36 388.12 1152.02 388.445 1150.47 388.445C1148.12 388.445 1145.73 387.494 1143.28 385.614C1142.05 384.501 1135.64 381.114 1124.07 375.43C1112.49 369.746 1104.62 365.964 1100.52 364.062C1098.41 363.18 1096.02 363.342 1093.33 364.572C1088.08 366.799 1081.75 369.978 1074.28 374.084C1070.82 375.986 1066.95 377.703 1062.68 379.258C1058.39 380.812 1054.79 381.485 1051.91 381.253C1049.69 381.021 1048.18 380.58 1047.41 379.907C1046.62 379.234 1046.07 377.796 1045.74 375.569C1045.42 373.666 1044.91 371.718 1044.23 369.722C1043.68 367.82 1043.35 366.358 1043.24 365.291C1043.12 364.224 1043.49 363.226 1044.33 362.275C1045.16 361.324 1045.97 360.628 1046.74 360.187C1047.53 359.746 1049.08 358.958 1051.43 357.844C1055 355.942 1060.98 353.088 1069.38 349.237C1077.78 345.386 1082.84 343.089 1084.51 342.3C1086.41 341.418 1087.69 340.212 1088.36 338.704C1089.03 337.196 1089.43 335.27 1089.52 332.95C1089.52 332.626 1089.24 329.726 1088.69 324.274H1088.66ZM1098.68 453.057C1098.68 454.727 1099.57 455.562 1101.35 455.562H1102.03C1102.81 455.562 1104.51 455.446 1107.13 455.238C1109.75 455.006 1111.77 454.843 1113.23 454.727C1113.56 454.611 1113.97 454.402 1114.48 454.054C1114.99 453.706 1115.23 453.451 1115.23 453.219C1115.34 451.108 1115.39 449.043 1115.39 447.048C1115.39 444.496 1115.34 441.921 1115.23 439.369C1115.23 439.137 1114.92 438.858 1114.3 438.534C1113.67 438.209 1113.16 438.023 1112.72 438.023H1112.56C1111.44 438.139 1107.5 438.696 1100.7 439.694C1099.47 447.257 1098.8 451.433 1098.71 452.222V453.057H1098.68Z" fill="white"/>
<path d="M460.177 301.538C466.07 301.677 474.143 301.422 482.774 301.538C501.125 301.839 544.602 301.398 553.232 335.433C563.301 375.174 555.158 459.715 551.306 473.774C547.478 487.834 540.774 510.198 505.95 510.198H423.196C417.442 510.198 373.362 507.971 365.683 465.794C358.027 423.639 361.855 365.5 362.737 352.879C363.618 340.282 366.008 305.435 408.812 302.86C435.399 301.282 449.528 301.282 460.177 301.538Z" fill="#BC3C6A"/>
<path d="M460.177 289.938C466.07 290.078 474.143 289.822 482.774 289.938C501.125 290.24 544.602 289.799 553.232 323.834C563.301 363.575 555.158 448.116 551.306 462.175C547.478 476.234 540.774 498.599 505.95 498.599H423.196C417.442 498.599 373.362 496.372 365.683 454.194C358.027 412.04 361.855 353.901 362.737 341.28C363.618 328.682 366.008 293.836 408.812 291.261C435.399 289.683 449.528 289.683 460.177 289.938Z" fill="#F885A7"/>
<path d="M452.125 388.261C451.962 386.22 451.893 384.456 451.939 382.972C451.986 381.487 452.403 380.234 453.215 379.213C454.027 378.192 455.326 377.473 457.113 377.032C461.034 376.174 463.284 375.756 463.887 375.756C465.929 375.594 467.53 375.594 468.666 375.756C469.826 375.919 470.615 376.406 471.079 377.218C471.543 378.03 471.961 379.584 472.286 381.881C472.378 382.044 472.402 382.74 472.402 383.923C472.402 385.106 472.402 386.243 472.471 387.31C472.518 388.377 472.61 388.911 472.796 388.911C475 388.911 480.058 389.05 487.969 389.352C495.88 389.653 500.891 389.792 503.026 389.792L513.86 388.772C514.115 388.864 514.486 389.05 514.95 389.352C515.414 389.653 515.994 390.256 516.667 391.138C517.34 392.043 517.595 392.994 517.433 394.015C517.34 394.525 516.783 397.889 515.786 404.084C514.602 404.176 513.953 404.223 513.86 404.223C513.442 404.223 498.502 404.06 469.084 403.712C467.46 403.712 463.098 403.828 455.93 404.037C448.784 404.246 444.654 404.362 443.564 404.362C441.522 404.455 436.326 404.408 427.997 404.223C419.668 404.06 414.518 403.921 412.546 403.828C412.035 403.828 410.806 403.921 408.857 404.084C406.908 404.246 405.655 404.339 405.145 404.339C404.379 404.339 403.753 404.269 403.242 404.153C402.732 404.014 402.361 403.759 402.152 403.318C401.943 402.9 401.804 402.529 401.758 402.228C401.711 401.926 401.665 401.323 401.642 400.372C401.595 399.444 401.572 398.701 401.572 398.191C401.41 396.66 401.41 394.456 401.572 391.556C401.665 390.024 402.43 389.259 403.869 389.259C406.003 389.166 412.244 389.212 422.614 389.398C432.985 389.56 439.411 389.607 441.894 389.514C442.914 389.514 446.325 389.096 452.102 388.238L452.125 388.261ZM417.162 341.304C417.835 341.212 418.763 341.026 419.9 340.724C421.06 340.423 422.058 340.214 422.893 340.075C423.751 339.959 424.586 339.843 425.445 339.75C440.339 339.24 451.87 338.984 460.036 338.984C469.316 338.984 479.222 339.286 489.778 339.866C492.748 339.866 494.581 339.936 495.254 340.052C495.926 340.191 496.878 340.376 498.061 340.632C499.244 340.887 500.172 341.281 500.798 341.838C501.448 342.395 501.889 343.091 502.144 343.949C502.237 344.297 502.353 344.715 502.538 345.225C502.886 346.594 503.095 347.638 503.165 348.427C503.258 349.355 503.327 350.306 503.42 351.234C503.768 351.396 503.861 354.969 503.745 361.952C503.606 368.936 503.559 372.508 503.559 372.671C503.652 375.223 503.142 377.102 502.028 378.285C500.914 379.468 499.128 380.118 496.669 380.211C495.903 380.211 494.79 380.141 493.351 380.025C491.913 379.886 490.846 379.84 490.15 379.84C486.484 379.932 484.582 375.153 484.396 365.548C484.396 362.486 484.002 360.607 483.19 359.934C482.378 359.261 480.522 358.82 477.645 358.658C477.227 358.658 476.879 358.612 476.624 358.519C469.223 358.101 464.676 357.892 462.959 357.892C450.292 357.637 438.205 357.591 426.721 357.753H423.148C422.382 357.753 421.617 357.637 420.851 357.428C420.086 357.22 419.575 357.08 419.32 357.057C419.065 357.011 418.81 356.663 418.554 356.036C418.299 355.41 418.16 354.923 418.16 354.644C418.16 354.366 418.114 353.6 418.044 352.417C417.951 351.234 417.882 350.236 417.789 349.471C417.371 344.112 417.162 341.397 417.162 341.304ZM455.698 407.656C460.639 407.656 466.416 408.051 473.051 408.863C479.686 409.675 485.301 410.719 489.894 411.995C497.713 414.292 502.051 418.375 502.91 424.244C503.165 425.776 503.304 427.191 503.304 428.467C503.304 434.174 501.054 438.721 496.53 442.108C493.467 444.405 490.938 446.215 488.943 447.537C486.948 448.86 484.419 450.112 481.357 451.296C478.294 452.479 475.232 453.128 472.17 453.221C470.986 453.221 467.901 453.36 462.913 453.662C457.948 453.964 454.607 454.103 452.89 454.103C450.501 454.103 448.39 453.94 446.51 453.592C446.093 453.592 445.49 453.5 444.724 453.337C441.151 452.734 438.437 452.247 436.558 451.876C434.678 451.504 432.405 450.716 429.737 449.509C427.046 448.326 424.772 446.795 422.916 444.916C419.506 441.598 417.812 438.489 417.812 435.589C417.812 429.627 418.67 425.219 420.364 422.319C425.12 414.315 434.91 409.559 449.712 408.028C451.661 407.772 453.679 407.633 455.698 407.633V407.656ZM474.443 437.376C476.578 437.376 478.387 436.517 479.872 434.824C481.357 433.13 482.099 431.042 482.099 428.56C482.099 424.987 480.15 422.783 476.23 421.924C472.054 421.066 463.771 420.648 451.336 420.648H451.22C450.037 420.648 448.993 420.857 448.088 421.275C447.206 421.692 446.464 422.365 445.93 423.247C445.374 424.128 445.002 424.917 444.77 425.613C444.562 426.286 444.283 427.26 443.935 428.536C443.773 429.14 443.68 429.696 443.68 430.207C443.68 431.576 444.167 432.666 445.142 433.524C446.116 434.383 447.322 434.916 448.784 435.195C450.222 435.543 452.194 435.821 454.654 436.076C457.113 436.332 459.294 436.494 461.15 436.587C463.029 436.68 465.418 436.796 468.365 436.958C471.288 437.12 473.19 437.26 474.049 437.352H474.443V437.376Z" fill="#BC3C6A"/>
<path d="M452.125 395.221C451.962 393.18 451.893 391.416 451.939 389.932C451.986 388.447 452.403 387.194 453.215 386.173C454.027 385.152 455.326 384.433 457.113 383.992C461.034 383.134 463.284 382.716 463.887 382.716C465.929 382.554 467.53 382.554 468.666 382.716C469.826 382.879 470.615 383.366 471.079 384.178C471.543 384.99 471.961 386.544 472.286 388.841C472.378 389.004 472.402 389.7 472.402 390.883C472.402 392.066 472.402 393.203 472.471 394.27C472.518 395.337 472.61 395.871 472.796 395.871C475 395.871 480.058 396.01 487.969 396.312C495.88 396.613 500.891 396.752 503.026 396.752L513.86 395.732C514.115 395.824 514.486 396.01 514.95 396.312C515.414 396.613 515.994 397.216 516.667 398.098C517.34 399.003 517.595 399.954 517.433 400.975C517.34 401.485 516.783 404.849 515.786 411.044C514.602 411.136 513.953 411.183 513.86 411.183C513.442 411.183 498.502 411.02 469.084 410.672C467.46 410.672 463.098 410.788 455.93 410.997C448.784 411.206 444.654 411.322 443.564 411.322C441.522 411.415 436.326 411.368 427.997 411.183C419.668 411.02 414.518 410.881 412.546 410.788C412.035 410.788 410.806 410.881 408.857 411.044C406.908 411.206 405.655 411.299 405.145 411.299C404.379 411.299 403.753 411.229 403.242 411.113C402.732 410.974 402.361 410.719 402.152 410.278C401.943 409.86 401.804 409.489 401.758 409.188C401.711 408.886 401.665 408.283 401.642 407.332C401.595 406.404 401.572 405.661 401.572 405.151C401.41 403.62 401.41 401.416 401.572 398.516C401.665 396.984 402.43 396.219 403.869 396.219C406.003 396.126 412.244 396.172 422.614 396.358C432.985 396.52 439.411 396.567 441.894 396.474C442.914 396.474 446.325 396.056 452.102 395.198L452.125 395.221ZM417.162 348.264C417.835 348.172 418.763 347.986 419.9 347.684C421.06 347.383 422.058 347.174 422.893 347.035C423.751 346.919 424.586 346.803 425.445 346.71C440.339 346.2 451.87 345.944 460.036 345.944C469.316 345.944 479.222 346.246 489.778 346.826C492.748 346.826 494.581 346.896 495.254 347.012C495.926 347.151 496.878 347.336 498.061 347.592C499.244 347.847 500.172 348.241 500.798 348.798C501.448 349.355 501.889 350.051 502.144 350.909C502.237 351.257 502.353 351.675 502.538 352.185C502.886 353.554 503.095 354.598 503.165 355.387C503.258 356.315 503.327 357.266 503.42 358.194C503.768 358.356 503.861 361.929 503.745 368.912C503.606 375.896 503.559 379.468 503.559 379.631C503.652 382.183 503.142 384.062 502.028 385.245C500.914 386.428 499.128 387.078 496.669 387.171C495.903 387.171 494.79 387.101 493.351 386.985C491.913 386.846 490.846 386.8 490.15 386.8C486.484 386.892 484.582 382.113 484.396 372.508C484.396 369.446 484.002 367.567 483.19 366.894C482.378 366.221 480.522 365.78 477.645 365.618C477.227 365.618 476.879 365.572 476.624 365.479C469.223 365.061 464.676 364.852 462.959 364.852C450.292 364.597 438.205 364.551 426.721 364.713H423.148C422.382 364.713 421.617 364.597 420.851 364.388C420.086 364.18 419.575 364.04 419.32 364.017C419.065 363.971 418.81 363.623 418.554 362.996C418.299 362.37 418.16 361.883 418.16 361.604C418.16 361.326 418.114 360.56 418.044 359.377C417.951 358.194 417.882 357.196 417.789 356.431C417.371 351.072 417.162 348.357 417.162 348.264ZM455.698 414.616C460.639 414.616 466.416 415.011 473.051 415.823C479.686 416.635 485.301 417.679 489.894 418.955C497.713 421.252 502.051 425.335 502.91 431.204C503.165 432.736 503.304 434.151 503.304 435.427C503.304 441.134 501.054 445.681 496.53 449.068C493.467 451.365 490.938 453.175 488.943 454.497C486.948 455.82 484.419 457.072 481.357 458.256C478.294 459.439 475.232 460.088 472.17 460.181C470.986 460.181 467.901 460.32 462.913 460.622C457.948 460.924 454.607 461.063 452.89 461.063C450.501 461.063 448.39 460.9 446.51 460.552C446.093 460.552 445.49 460.46 444.724 460.297C441.151 459.694 438.437 459.207 436.558 458.836C434.678 458.464 432.405 457.676 429.737 456.469C427.046 455.286 424.772 453.755 422.916 451.876C419.506 448.558 417.812 445.449 417.812 442.549C417.812 436.587 418.67 432.179 420.364 429.279C425.12 421.275 434.91 416.519 449.712 414.988C451.661 414.732 453.679 414.593 455.698 414.593V414.616ZM474.443 444.336C476.578 444.336 478.387 443.477 479.872 441.784C481.357 440.09 482.099 438.002 482.099 435.52C482.099 431.947 480.15 429.743 476.23 428.884C472.054 428.026 463.771 427.608 451.336 427.608H451.22C450.037 427.608 448.993 427.817 448.088 428.235C447.206 428.652 446.464 429.325 445.93 430.207C445.374 431.088 445.002 431.877 444.77 432.573C444.562 433.246 444.283 434.22 443.935 435.496C443.773 436.1 443.68 436.656 443.68 437.167C443.68 438.536 444.167 439.626 445.142 440.484C446.116 441.343 447.322 441.876 448.784 442.155C450.222 442.503 452.194 442.781 454.654 443.036C457.113 443.292 459.294 443.454 461.15 443.547C463.029 443.64 465.418 443.756 468.365 443.918C471.288 444.08 473.19 444.22 474.049 444.312H474.443V444.336Z" fill="white"/>
<path d="M652.551 302.189C648.769 302.189 634.803 302.769 631.044 303.024C617.588 303.998 578.983 309.798 577.452 344.204C575.596 385.894 576.826 452.455 582.115 470.505C587.405 488.554 604.596 504.47 633.434 507.207C657.933 509.527 715.562 514.678 734.841 501.918C760.547 484.912 765.952 472.686 769.061 429.139C772.17 385.593 786.159 324.298 744.167 309.682C710.226 297.874 658.304 302.189 652.527 302.189H652.551Z" fill="#418099"/>
<path d="M652.551 290.589C648.769 290.589 634.803 291.169 631.044 291.424C617.588 292.399 578.983 298.199 577.452 332.604C575.596 374.295 576.826 440.856 582.115 458.905C587.405 476.955 604.596 492.87 633.434 495.608C657.933 497.928 715.562 503.078 734.841 490.318C760.547 473.312 765.952 461.086 769.061 417.54C772.17 373.993 786.159 312.699 744.167 298.083C710.226 286.274 658.304 290.589 652.527 290.589H652.551Z" fill="#97CFDB"/>
<path d="M688.235 435.821C687.98 437.19 687.609 439.278 687.145 442.131C686.681 444.985 686.356 446.748 686.193 447.421C685.845 449.3 684.755 450.391 682.876 450.739C680.997 451.087 676.612 451.342 669.721 451.504C668.028 451.597 667.007 450.576 666.659 448.442V443.082C666.659 442.479 666.659 441.876 666.729 441.227C666.798 440.577 666.729 440.09 666.659 439.765C666.566 439.417 666.543 439.115 666.543 438.814C666.543 438.512 666.427 438.28 666.218 438.118C666.009 437.955 665.824 437.793 665.708 437.677C665.592 437.538 665.29 437.422 664.826 437.283C664.362 437.143 663.968 437.074 663.666 437.027C663.365 436.981 662.831 436.888 662.065 436.702C660.627 436.447 654.386 436.146 643.366 435.821C632.346 435.473 625.688 435.311 623.391 435.311C621.953 435.311 620.793 434.406 619.934 432.642C618.31 428.977 618.194 424.569 619.54 419.372C619.702 418.444 620.862 417.748 622.997 417.331C623.252 417.168 625.804 417.098 630.653 417.145C635.501 417.191 638.053 417.215 638.309 417.215C641.023 417.122 648.911 416.936 661.903 416.635C674.918 416.333 682.528 416.147 684.755 416.055C687.4 415.892 694.522 415.753 706.122 415.66C717.722 415.567 724.218 415.544 725.587 415.544C727.466 415.451 728.951 416.704 730.041 419.233C731.828 422.968 732.222 426.727 731.201 430.462C730.853 431.738 729.833 432.666 728.139 433.269C726.26 434.035 719.625 434.591 708.233 434.916C696.842 435.264 690.88 435.427 690.369 435.427L688.189 435.821H688.235ZM655.314 360.282L695.636 358.101V342.789C697.422 342.371 699.325 342.047 701.366 341.838C703.408 341.629 705.148 341.536 706.586 341.583C708.025 341.629 709.95 341.675 712.34 341.722C714.729 341.768 716.469 341.791 717.56 341.791C718.163 341.791 718.789 342.163 719.485 342.882C720.158 343.601 720.599 344.274 720.761 344.854C723.058 354.969 724.381 361.999 724.729 365.919C724.891 367.288 724.891 368.657 724.729 370.072C724.566 371.464 724.288 373.251 723.893 375.362C723.499 377.496 723.267 378.842 723.197 379.445C723.035 380.211 722.084 385.57 720.39 395.523C714.428 396.033 711.296 396.288 710.948 396.288C686.541 397.216 672.065 397.68 667.564 397.68C660.836 397.68 651.138 396.961 638.471 395.499C634.991 395.082 632.184 393.69 630.119 391.347C628.031 389.003 626.987 386.173 626.987 382.855L626.848 368.703C626.755 366.662 626.523 363.692 626.152 359.771C625.757 355.851 625.525 352.974 625.456 351.095C625.456 350.491 625.572 349.842 625.85 349.123C626.105 348.403 626.453 347.916 626.871 347.661C632.137 345.109 637.218 344.227 642.067 344.993C646.753 345.666 649.259 346.014 649.584 346.014C651.718 346.014 653.18 346.524 653.992 347.545C654.804 348.566 655.245 350.051 655.337 351.999V360.305L655.314 360.282ZM656.961 371.371C656.869 371.789 656.753 372.485 656.567 373.413C656.405 374.341 656.265 375.199 656.173 375.965C656.08 376.731 656.08 377.496 656.173 378.262C656.265 382.09 656.776 384.456 657.704 385.338C658.632 386.243 660.975 386.683 664.733 386.683C674.686 386.521 682.969 386.289 689.604 386.057C693.177 385.964 695.589 385.477 696.819 384.595C698.049 383.691 699 381.811 699.696 378.911C700.369 375.942 699.858 373.436 698.165 371.441C696.471 369.446 693.965 368.518 690.625 368.703C688.583 368.796 677.354 369.678 656.938 371.371H656.961Z" fill="#418099"/>
<path d="M688.235 442.781C687.98 444.15 687.609 446.238 687.145 449.091C686.681 451.945 686.356 453.708 686.193 454.381C685.845 456.26 684.755 457.35 682.876 457.698C680.997 458.046 676.612 458.302 669.721 458.464C668.028 458.557 667.007 457.536 666.659 455.402V450.042C666.659 449.439 666.659 448.836 666.729 448.186C666.798 447.537 666.729 447.05 666.659 446.725C666.566 446.377 666.543 446.075 666.543 445.774C666.543 445.472 666.427 445.24 666.218 445.078C666.009 444.915 665.824 444.753 665.708 444.637C665.592 444.498 665.29 444.382 664.826 444.242C664.362 444.103 663.968 444.034 663.666 443.987C663.365 443.941 662.831 443.848 662.065 443.662C660.627 443.407 654.386 443.106 643.366 442.781C632.346 442.433 625.688 442.27 623.391 442.27C621.953 442.27 620.793 441.366 619.934 439.602C618.31 435.937 618.194 431.529 619.54 426.332C619.702 425.404 620.862 424.708 622.997 424.29C623.252 424.128 625.804 424.058 630.653 424.105C635.501 424.151 638.053 424.174 638.309 424.174C641.023 424.082 648.911 423.896 661.903 423.594C674.918 423.293 682.528 423.107 684.755 423.014C687.4 422.852 694.522 422.713 706.122 422.62C717.722 422.527 724.218 422.504 725.587 422.504C727.466 422.411 728.951 423.664 730.041 426.193C731.828 429.928 732.222 433.686 731.201 437.422C730.853 438.698 729.833 439.626 728.139 440.229C726.26 440.994 719.625 441.551 708.233 441.876C696.842 442.224 690.88 442.386 690.369 442.386L688.189 442.781H688.235ZM655.314 367.242L695.636 365.061V349.749C697.422 349.331 699.325 349.006 701.366 348.798C703.408 348.589 705.148 348.496 706.586 348.542C708.025 348.589 709.95 348.635 712.34 348.682C714.729 348.728 716.469 348.751 717.56 348.751C718.163 348.751 718.789 349.122 719.485 349.842C720.158 350.561 720.599 351.234 720.761 351.814C723.058 361.929 724.381 368.958 724.729 372.879C724.891 374.248 724.891 375.617 724.729 377.032C724.566 378.424 724.288 380.21 723.893 382.322C723.499 384.456 723.267 385.802 723.197 386.405C723.035 387.17 722.084 392.53 720.39 402.482C714.428 402.993 711.296 403.248 710.948 403.248C686.541 404.176 672.065 404.64 667.564 404.64C660.836 404.64 651.138 403.921 638.471 402.459C634.991 402.042 632.184 400.65 630.119 398.306C628.031 395.963 626.987 393.133 626.987 389.815L626.848 375.663C626.755 373.622 626.523 370.652 626.152 366.731C625.757 362.81 625.525 359.934 625.456 358.054C625.456 357.451 625.572 356.802 625.85 356.082C626.105 355.363 626.453 354.876 626.871 354.621C632.137 352.069 637.218 351.187 642.067 351.953C646.753 352.626 649.259 352.974 649.584 352.974C651.718 352.974 653.18 353.484 653.992 354.505C654.804 355.526 655.245 357.01 655.337 358.959V367.265L655.314 367.242ZM656.961 378.331C656.869 378.749 656.753 379.445 656.567 380.373C656.405 381.301 656.265 382.159 656.173 382.925C656.08 383.69 656.08 384.456 656.173 385.222C656.265 389.05 656.776 391.416 657.704 392.298C658.632 393.202 660.975 393.643 664.733 393.643C674.686 393.481 682.969 393.249 689.604 393.017C693.177 392.924 695.589 392.437 696.819 391.555C698.049 390.65 699 388.771 699.696 385.871C700.369 382.902 699.858 380.396 698.165 378.401C696.471 376.406 693.965 375.478 690.625 375.663C688.583 375.756 677.354 376.638 656.938 378.331H656.961Z" fill="white"/>
<path d="M819.661 356.917C819.661 356.917 795.301 366.963 793.074 401.554C790.847 436.145 794.187 470.899 800.15 485.515C806.112 500.131 818.014 509.805 842.188 509.805C866.363 509.805 881.257 508.506 904.318 509.805C918.145 510.594 935.568 512.404 944.871 490.828C954.174 469.252 948.955 399.698 940.974 375.13C935.707 358.959 923.829 346.153 882.394 347.962C844.067 349.633 835.159 349.633 819.707 356.894L819.661 356.917Z" fill="#C18E1B"/>
<path d="M819.661 345.318C819.661 345.318 795.301 355.363 793.074 389.955C790.847 424.546 794.187 459.299 800.15 473.915C806.112 488.531 818.014 498.206 842.188 498.206C866.363 498.206 881.257 496.907 904.318 498.206C918.145 498.995 935.568 500.804 944.871 479.228C954.174 457.652 948.955 388.099 940.974 363.53C935.707 347.359 923.829 334.553 882.394 336.363C844.067 338.033 835.159 338.033 819.707 345.295L819.661 345.318Z" fill="#FED054"/>
<path d="M849.242 374.016C849.822 374.085 850.727 374.201 851.98 374.41C853.21 374.596 854.323 374.781 855.298 374.944C856.272 375.106 857.177 375.315 858.035 375.57C858.29 375.709 859.265 376.034 860.912 376.545C862.559 377.055 863.696 377.426 864.276 377.612C864.856 377.797 865.784 378.122 867.06 378.586C868.336 379.05 869.403 379.491 870.331 379.909C871.236 380.326 872.141 380.767 873.069 381.231C876.456 383.11 878.637 385.639 879.634 388.841C880.632 392.019 880.516 395.406 879.286 398.979C877.662 404.315 875.714 409.233 873.44 413.781C872.86 414.894 872.025 415.915 870.958 416.889C869.89 417.864 868.8 418.537 867.686 418.931C859.822 421.669 853.882 423.177 849.846 423.501C843.605 424.012 838.57 422.504 834.742 418.931C832.469 416.797 830.868 413.34 829.963 408.607C827.759 396.914 830.59 386.985 838.431 378.795C841.354 375.733 844.95 374.155 849.242 374.016ZM891.814 443.384C881.885 444.683 876.549 445.402 875.83 445.518C871.932 446.098 864.647 446.562 853.952 446.887C843.257 447.212 835.902 447.073 831.889 446.493C831.494 446.423 831.1 446.191 830.659 445.82C830.242 445.425 830.033 445.077 830.033 444.753C829.778 440.994 829.778 437.932 830.033 435.589C830.172 433.965 830.845 432.039 832.074 429.835C836.297 428.675 839.22 428.025 840.844 427.886C842.004 427.701 847.572 427.77 857.548 428.118C867.524 428.466 872.999 428.652 873.974 428.652C875.203 428.582 877.059 428.536 879.518 428.513C881.978 428.489 883.834 428.443 885.063 428.373L892.07 427.701C892.534 416.657 892.789 410.556 892.858 409.373L894.413 373.018C894.598 372.763 894.923 372.461 895.387 372.137C895.851 371.812 896.849 371.348 898.403 370.768C899.958 370.188 901.582 369.817 903.275 369.701C904.11 369.631 905.201 369.701 906.5 369.84C907.799 370.002 908.913 370.211 909.818 370.466L911.186 370.768C911.442 371.023 911.79 371.348 912.207 371.696C912.625 372.044 913.112 372.763 913.669 373.83C914.226 374.897 914.365 375.895 914.11 376.8C913.205 379.537 912.509 388.632 912.068 404.129C911.604 419.627 911.326 427.863 911.186 428.837C911.117 429.626 911.094 431.157 911.14 433.454C911.163 435.751 911.047 437.282 910.792 437.978C910.606 438.767 910.537 441.041 910.653 444.799C910.769 448.557 910.653 450.785 910.398 451.434C909.818 453.244 909.006 454.497 907.962 455.146C906.918 455.796 905.386 456.121 903.391 456.121C900.074 456.051 897.614 455.889 895.99 455.633C893.717 455.169 892.719 453.87 892.974 451.736C893.044 451.225 892.858 449.903 892.441 447.792C892.023 445.681 891.814 444.196 891.814 443.361V443.384ZM862.002 398.956C862.002 396.102 861.446 394.061 860.355 392.808C859.242 391.578 857.455 390.952 854.996 390.952C852.142 390.952 849.614 392.065 847.386 394.316C845.182 396.566 844.046 399.141 843.976 402.065C843.976 403.689 844.974 405.405 846.992 407.192C849.01 408.978 850.913 409.767 852.746 409.581C855.158 409.326 857.293 408.213 859.172 406.264C861.051 404.315 862.002 401.879 862.002 398.956Z" fill="#C18E1B"/>
<path d="M849.242 380.975C849.822 381.045 850.727 381.161 851.98 381.37C853.21 381.555 854.323 381.741 855.298 381.903C856.272 382.066 857.177 382.275 858.035 382.53C858.29 382.669 859.265 382.994 860.912 383.504C862.559 384.015 863.696 384.386 864.276 384.571C864.856 384.757 865.784 385.082 867.06 385.546C868.336 386.01 869.403 386.451 870.331 386.868C871.236 387.286 872.141 387.727 873.069 388.191C876.456 390.07 878.637 392.599 879.634 395.8C880.632 398.979 880.516 402.366 879.286 405.939C877.662 411.275 875.714 416.193 873.44 420.74C872.86 421.854 872.025 422.875 870.958 423.849C869.89 424.823 868.8 425.496 867.686 425.891C859.822 428.628 853.882 430.136 849.846 430.461C843.605 430.971 838.57 429.463 834.742 425.891C832.469 423.756 830.868 420.299 829.963 415.567C827.759 403.874 830.59 393.944 838.431 385.755C841.354 382.692 844.95 381.115 849.242 380.975ZM891.814 450.343C881.885 451.643 876.549 452.362 875.83 452.478C871.932 453.058 864.647 453.522 853.952 453.847C843.257 454.171 835.902 454.032 831.889 453.452C831.494 453.383 831.1 453.151 830.659 452.779C830.242 452.385 830.033 452.037 830.033 451.712C829.778 447.954 829.778 444.891 830.033 442.548C830.172 440.924 830.845 438.999 832.074 436.795C836.297 435.635 839.22 434.985 840.844 434.846C842.004 434.66 847.572 434.73 857.548 435.078C867.524 435.426 872.999 435.611 873.974 435.611C875.203 435.542 877.059 435.495 879.518 435.472C881.978 435.449 883.834 435.403 885.063 435.333L892.07 434.66C892.534 423.617 892.789 417.515 892.858 416.332L894.413 379.978C894.598 379.723 894.923 379.421 895.387 379.096C895.851 378.771 896.849 378.307 898.403 377.727C899.958 377.147 901.582 376.776 903.275 376.66C904.11 376.591 905.201 376.66 906.5 376.799C907.799 376.962 908.913 377.171 909.818 377.426L911.186 377.727C911.442 377.983 911.79 378.307 912.207 378.655C912.625 379.003 913.112 379.723 913.669 380.79C914.226 381.857 914.365 382.855 914.11 383.759C913.205 386.497 912.509 395.591 912.068 411.089C911.604 426.587 911.326 434.823 911.186 435.797C911.117 436.586 911.094 438.117 911.14 440.414C911.163 442.711 911.047 444.242 910.792 444.938C910.606 445.727 910.537 448 910.653 451.759C910.769 455.517 910.653 457.744 910.398 458.394C909.818 460.203 909.006 461.456 907.962 462.106C906.918 462.755 905.386 463.08 903.391 463.08C900.074 463.011 897.614 462.848 895.99 462.593C893.717 462.129 892.719 460.83 892.974 458.695C893.044 458.185 892.858 456.863 892.441 454.751C892.023 452.64 891.814 451.155 891.814 450.32V450.343ZM862.002 405.915C862.002 403.062 861.446 401.02 860.355 399.767C859.242 398.538 857.455 397.911 854.996 397.911C852.142 397.911 849.614 399.025 847.386 401.275C845.182 403.526 844.046 406.101 843.976 409.024C843.976 410.648 844.974 412.365 846.992 414.151C849.01 415.938 850.913 416.727 852.746 416.541C855.158 416.286 857.293 415.172 859.172 413.223C861.051 411.275 862.002 408.839 862.002 405.915Z" fill="white"/>
</svg>
