<svg width="140" height="58" viewBox="0 0 140 58" fill="none" xmlns="http://www.w3.org/2000/svg">
<rect width="140" height="58" rx="16" fill="#99C08E"/>
<path d="M67.3285 21.985C67.3645 22.237 67.4005 22.615 67.4185 23.155C67.4185 23.695 67.4185 24.073 67.3825 24.271C67.3825 24.361 67.4005 24.469 67.4365 24.613C67.4725 24.757 67.5085 24.829 67.5085 24.829C67.5265 24.919 67.7065 25.027 68.0305 25.153C68.1025 25.189 68.2465 25.243 68.4265 25.279C68.6065 25.315 68.7325 25.351 68.8045 25.369C69.0025 25.441 69.1285 25.531 69.1825 25.639C69.2185 25.747 69.2185 25.909 69.1825 26.107C69.0205 26.737 68.6425 27.115 68.0485 27.259C67.9405 27.295 67.8325 27.295 67.7425 27.277C67.6345 27.259 67.5805 27.241 67.5625 27.205C67.5265 27.187 67.5085 27.187 67.4725 27.205C67.4365 27.241 67.4545 27.313 67.5085 27.421C67.6885 28.735 67.6885 29.545 67.5085 29.869C67.3465 30.121 67.2205 30.283 67.1125 30.355C66.5545 30.661 66.0145 30.697 65.5105 30.463C65.3665 30.409 65.2765 30.283 65.2585 30.103C65.2225 29.923 65.2405 29.761 65.2765 29.581C65.2765 29.383 65.2405 28.969 65.1685 28.321C65.0965 27.691 65.0605 27.277 65.0605 27.097C65.0785 24.649 65.1325 22.975 65.2225 22.039C65.2585 21.679 65.4565 21.481 65.8345 21.463C66.0505 21.463 66.2845 21.445 66.5185 21.409C66.8425 21.373 67.0405 21.373 67.1125 21.409C67.1845 21.463 67.2205 21.553 67.2565 21.697C67.2745 21.841 67.2925 21.949 67.3285 21.985ZM55.5925 24.415L53.8285 24.271C53.8285 23.515 53.8285 23.065 53.8465 22.921C53.8465 22.885 53.9005 22.831 54.0085 22.777C54.1165 22.723 54.2065 22.687 54.2785 22.687C54.4945 22.687 54.8365 22.705 55.3045 22.723C55.7725 22.759 56.1325 22.759 56.3845 22.759C57.0505 22.741 57.8605 22.669 58.8325 22.543L56.4745 22.417C56.4385 22.255 56.4385 22.039 56.4385 21.751C56.4385 21.463 56.4205 21.229 56.4025 21.031C57.1945 20.905 57.6085 20.833 57.6805 20.833C58.1485 20.797 58.6345 20.761 59.1025 20.743C59.4985 20.743 59.7865 20.815 59.9485 20.959C60.0925 21.103 60.1825 21.391 60.2005 21.787C60.2365 21.895 60.2365 21.967 60.2185 22.039C60.1825 22.111 60.1825 22.147 60.1825 22.165C60.1825 22.201 60.1645 22.219 60.1105 22.255C60.0565 22.291 60.0025 22.309 59.9665 22.309C59.9305 22.309 59.8405 22.345 59.7145 22.381C59.5885 22.417 59.4625 22.471 59.3545 22.525C60.6505 22.723 61.3705 22.831 61.5505 22.849C61.7845 22.885 61.9285 22.993 61.9825 23.191C62.1625 23.857 61.9285 24.307 61.3165 24.541C61.2985 24.559 61.1545 24.613 60.8665 24.721L61.1185 24.883C61.6585 25.171 61.9465 25.549 61.9825 25.981C62.0185 26.413 61.8025 26.827 61.3345 27.205C60.8485 27.601 60.2365 27.817 59.4805 27.835H59.3905C59.6425 27.943 60.2545 28.033 61.1905 28.069C62.1265 28.105 62.6305 28.141 62.7205 28.159C62.9725 28.231 63.0985 28.285 63.1345 28.285C63.3865 28.375 63.5485 28.465 63.6205 28.573C63.6925 28.681 63.7285 28.879 63.7285 29.131C63.7825 29.599 63.7825 29.905 63.7105 30.031C63.6385 30.175 63.4765 30.229 63.2245 30.229C62.3065 30.337 60.2725 30.355 57.1045 30.283C56.7625 30.283 55.6465 30.319 53.7565 30.355C53.3785 30.373 53.1085 30.265 52.9285 30.013C52.7485 29.779 52.7125 29.455 52.7845 29.059C52.7845 28.969 52.8025 28.861 52.8205 28.753C52.8205 28.681 52.8205 28.645 52.8385 28.609C52.8565 28.591 52.9285 28.555 53.0365 28.483C53.0725 28.447 53.1265 28.429 53.1625 28.411L56.6185 27.997C56.6545 27.907 56.6905 27.799 56.7445 27.655C56.4565 27.601 56.1685 27.511 55.9165 27.403C55.4125 27.223 54.9985 26.935 54.7105 26.575C54.4405 26.287 54.3505 25.963 54.4405 25.585C54.5125 25.207 54.7645 24.883 55.1785 24.631L55.5925 24.415ZM57.2485 25.567C57.2305 25.819 57.2665 25.999 57.3385 26.089C57.4105 26.197 57.5725 26.251 57.8245 26.287C58.1485 26.359 58.4365 26.359 58.7065 26.287C58.7785 26.287 58.8505 26.233 58.9225 26.161C58.9945 26.089 59.0485 25.999 59.0665 25.927C59.0665 25.891 59.0485 25.819 58.9945 25.729C58.9225 25.657 58.8685 25.585 58.7965 25.549C58.5445 25.441 58.3825 25.369 58.2745 25.333C58.1665 25.297 58.0045 25.279 57.8065 25.297C57.5905 25.315 57.4105 25.405 57.2485 25.567ZM55.6465 31.633C55.7365 31.543 56.2405 31.489 57.1765 31.489C57.2845 31.489 57.3925 31.507 57.5185 31.525C57.6625 31.561 57.8245 31.579 58.0225 31.579C58.1125 31.579 58.2565 31.579 58.4365 31.561C58.6165 31.561 58.7425 31.543 58.8325 31.543C58.9225 31.543 59.0485 31.561 59.2285 31.561C59.4085 31.579 59.5345 31.579 59.6245 31.579C59.9305 31.579 60.2545 31.561 60.5965 31.525C60.9205 31.489 61.2985 31.417 61.6945 31.345C62.0905 31.273 62.4145 31.237 62.6305 31.201C62.8825 31.165 63.1525 31.147 63.4585 31.147C63.7285 31.147 64.1965 31.183 64.8445 31.219C65.4925 31.255 65.9065 31.273 66.0865 31.273C66.1405 31.273 66.1765 31.309 66.2125 31.345C66.3565 31.633 66.4465 31.849 66.5005 32.011C66.5365 32.191 66.5725 32.407 66.6085 32.695C66.6265 33.001 66.6445 33.235 66.6445 33.397C66.6445 33.685 66.6265 33.955 66.6085 34.207C66.5905 34.477 66.5725 34.783 66.5365 35.143C66.5005 35.503 66.4825 35.773 66.4825 35.935C66.4465 36.133 66.3205 36.475 66.0685 36.961C65.9965 37.105 65.8885 37.231 65.7625 37.303C65.6185 37.375 65.5105 37.429 65.4205 37.429L65.0245 37.483C64.8085 37.501 64.6465 37.519 64.5565 37.537C64.4305 37.573 64.2505 37.591 63.9985 37.627C63.7465 37.663 63.5845 37.681 63.4765 37.699C63.4045 37.717 63.3325 37.717 63.2965 37.717C63.0445 37.717 62.9185 37.573 62.9185 37.267C62.8825 36.007 62.8645 35.125 62.8645 34.603C62.8465 34.207 62.6665 34.009 62.3425 34.009C62.3065 34.009 62.2705 34.027 62.2345 34.027C62.0545 34.045 61.7845 34.081 61.4605 34.153C61.1365 34.225 60.9205 34.261 60.8305 34.261C60.7405 34.279 60.5605 34.315 60.2725 34.351C59.9845 34.405 59.7505 34.441 59.5525 34.459C59.3545 34.495 59.1565 34.495 58.9765 34.495C58.5085 34.495 57.5545 34.441 56.1325 34.315C56.0605 34.315 55.9705 34.279 55.8805 34.225C55.7905 34.171 55.7545 34.117 55.7545 34.063C55.7005 33.847 55.6465 33.577 55.6105 33.253C55.5745 32.929 55.5385 32.605 55.5385 32.245C55.5205 31.903 55.5565 31.705 55.6465 31.633ZM76.5805 30.607C75.2305 30.643 74.0065 30.355 72.8905 29.707C72.2065 29.329 71.7385 28.699 71.5225 27.799C71.2345 26.719 71.1985 25.855 71.4145 25.171C71.5225 24.811 71.7025 24.469 71.9365 24.145C72.3865 23.533 72.7825 23.065 73.1245 22.741C73.6285 22.273 74.2945 22.093 75.0865 22.183C76.1125 22.327 77.2105 22.741 78.3625 23.425C79.0105 23.821 79.4065 24.397 79.5505 25.189C79.7485 26.449 79.7665 27.475 79.5865 28.249C79.4065 29.023 79.0645 29.617 78.5425 30.049C78.0205 30.481 77.3725 30.679 76.5805 30.607ZM74.6185 26.755C74.8345 27.475 74.9785 27.889 75.0325 27.961C75.0685 28.033 75.1225 28.123 75.2125 28.195C75.3025 28.267 75.3745 28.303 75.4465 28.285C75.8425 28.249 76.1845 28.159 76.4545 27.979C76.7065 27.799 76.8865 27.565 76.9585 27.259C77.0305 26.953 76.9585 26.593 76.7425 26.161C76.4185 25.513 75.9145 25.297 75.2305 25.495C74.8345 25.621 74.6365 26.035 74.6185 26.755ZM86.6065 21.103C86.6065 21.265 86.6065 21.571 86.6065 22.003C86.5885 22.435 86.5885 22.723 86.6245 22.867C86.7325 23.695 86.6425 25.567 86.3725 28.465C86.3365 28.681 86.3005 29.203 86.2465 30.013C86.1745 30.841 86.1385 31.381 86.1205 31.633C86.0845 31.921 85.9225 32.065 85.6345 32.065C85.4905 32.065 85.0945 32.065 84.4105 32.065C83.7265 32.065 83.2765 32.047 83.0785 32.047C82.8625 32.047 82.7365 31.885 82.6825 31.561C82.5385 30.841 82.5385 29.653 82.6825 27.997C82.7005 27.835 82.7365 26.647 82.7725 24.433V23.083V21.715C82.7725 21.535 82.8805 21.391 83.0965 21.283C83.2225 21.229 83.3845 21.175 83.5825 21.139C83.7805 21.103 84.0145 21.067 84.3025 21.031C84.5905 21.013 84.8065 20.995 84.9505 20.995C85.0945 20.995 85.3465 20.977 85.6885 20.959L86.1925 20.941C86.2285 20.941 86.3005 20.977 86.4265 21.013C86.5345 21.049 86.6065 21.085 86.6065 21.103ZM78.1285 34.027C80.5765 33.883 81.9625 33.811 82.2685 33.775C82.5745 33.757 82.9345 33.721 83.3665 33.685C83.7985 33.649 84.1585 33.613 84.4465 33.577C84.7345 33.541 84.9865 33.523 85.1665 33.523C85.4005 33.523 85.5805 33.829 85.6885 34.405C85.7065 34.531 85.7245 34.783 85.7245 35.143C85.7245 35.557 85.6165 35.971 85.4005 36.403C85.3285 36.529 85.1665 36.619 84.9145 36.655C84.6625 36.691 83.8165 36.745 82.3765 36.817C80.9365 36.889 80.0905 36.943 79.8205 36.979C79.7485 36.997 79.6945 36.997 79.6225 36.997C79.3165 36.997 78.6685 37.015 77.6785 37.033C76.6885 37.051 75.9685 37.069 75.5185 37.087C75.4105 37.087 75.2125 37.105 74.9605 37.123C74.7085 37.141 74.5105 37.141 74.3845 37.141C73.9705 37.141 73.6285 37.069 73.3765 36.907C73.2865 36.871 73.2145 36.781 73.1425 36.673C73.0705 36.565 73.0525 36.475 73.0525 36.367C72.9985 35.845 72.9625 35.107 72.9265 34.135C72.8905 33.163 72.8545 32.497 72.8365 32.119L72.8185 31.867C72.8185 31.687 72.8185 31.525 72.8185 31.345L72.8005 31.093C72.8365 31.093 72.9265 31.075 73.0885 31.039C73.2505 31.003 73.3585 30.967 73.4125 30.949C73.5385 30.931 73.8265 30.913 74.2765 30.913C74.7985 30.913 75.1225 30.949 75.2665 30.985C75.4105 31.039 75.4825 31.129 75.4825 31.255C75.4825 31.309 75.5005 31.435 75.5365 31.615C75.5725 31.795 75.6085 31.921 75.6085 31.975C75.6085 32.173 75.6445 32.533 75.7525 33.073C75.7525 33.145 75.7705 33.307 75.8065 33.541C75.8245 33.775 75.8605 33.973 75.9145 34.153L78.1285 34.027Z" fill="#578246"/>
<path d="M67.282 23.7756C67.318 24.0276 67.354 24.4056 67.372 24.9456C67.372 25.4856 67.372 25.8636 67.336 26.0616C67.336 26.1516 67.354 26.2596 67.39 26.4036C67.426 26.5476 67.462 26.6196 67.462 26.6196C67.48 26.7096 67.66 26.8176 67.984 26.9436C68.056 26.9796 68.2 27.0336 68.38 27.0696C68.56 27.1056 68.686 27.1416 68.758 27.1596C68.956 27.2316 69.082 27.3216 69.136 27.4296C69.172 27.5376 69.172 27.6996 69.136 27.8976C68.974 28.5276 68.596 28.9056 68.002 29.0496C67.894 29.0856 67.786 29.0856 67.696 29.0676C67.588 29.0496 67.534 29.0316 67.516 28.9956C67.48 28.9776 67.462 28.9776 67.426 28.9956C67.39 29.0316 67.408 29.1036 67.462 29.2116C67.642 30.5256 67.642 31.3356 67.462 31.6596C67.3 31.9116 67.174 32.0736 67.066 32.1456C66.508 32.4516 65.968 32.4876 65.464 32.2536C65.32 32.1996 65.23 32.0736 65.212 31.8936C65.176 31.7136 65.194 31.5516 65.23 31.3716C65.23 31.1736 65.194 30.7596 65.122 30.1116C65.05 29.4816 65.014 29.0676 65.014 28.8876C65.032 26.4396 65.086 24.7656 65.176 23.8296C65.212 23.4696 65.41 23.2716 65.788 23.2536C66.004 23.2536 66.238 23.2356 66.472 23.1996C66.796 23.1636 66.994 23.1636 67.066 23.1996C67.138 23.2536 67.174 23.3436 67.21 23.4876C67.228 23.6316 67.246 23.7396 67.282 23.7756ZM55.546 26.2056L53.782 26.0616C53.782 25.3056 53.782 24.8556 53.8 24.7116C53.8 24.6756 53.854 24.6216 53.962 24.5676C54.07 24.5136 54.16 24.4776 54.232 24.4776C54.448 24.4776 54.79 24.4956 55.258 24.5136C55.726 24.5496 56.086 24.5496 56.338 24.5496C57.004 24.5316 57.814 24.4596 58.786 24.3336L56.428 24.2076C56.392 24.0456 56.392 23.8296 56.392 23.5416C56.392 23.2536 56.374 23.0196 56.356 22.8216C57.148 22.6956 57.562 22.6236 57.634 22.6236C58.102 22.5876 58.588 22.5516 59.056 22.5336C59.452 22.5336 59.74 22.6056 59.902 22.7496C60.046 22.8936 60.136 23.1816 60.154 23.5776C60.19 23.6856 60.19 23.7576 60.172 23.8296C60.136 23.9016 60.136 23.9376 60.136 23.9556C60.136 23.9916 60.118 24.0096 60.064 24.0456C60.01 24.0816 59.956 24.0996 59.92 24.0996C59.884 24.0996 59.794 24.1356 59.668 24.1716C59.542 24.2076 59.416 24.2616 59.308 24.3156C60.604 24.5136 61.324 24.6216 61.504 24.6396C61.738 24.6756 61.882 24.7836 61.936 24.9816C62.116 25.6476 61.882 26.0976 61.27 26.3316C61.252 26.3496 61.108 26.4036 60.82 26.5116L61.072 26.6736C61.612 26.9616 61.9 27.3396 61.936 27.7716C61.972 28.2036 61.756 28.6176 61.288 28.9956C60.802 29.3916 60.19 29.6076 59.434 29.6256H59.344C59.596 29.7336 60.208 29.8236 61.144 29.8596C62.08 29.8956 62.584 29.9316 62.674 29.9496C62.926 30.0216 63.052 30.0756 63.088 30.0756C63.34 30.1656 63.502 30.2556 63.574 30.3636C63.646 30.4716 63.682 30.6696 63.682 30.9216C63.736 31.3896 63.736 31.6956 63.664 31.8216C63.592 31.9656 63.43 32.0196 63.178 32.0196C62.26 32.1276 60.226 32.1456 57.058 32.0736C56.716 32.0736 55.6 32.1096 53.71 32.1456C53.332 32.1636 53.062 32.0556 52.882 31.8036C52.702 31.5696 52.666 31.2456 52.738 30.8496C52.738 30.7596 52.756 30.6516 52.774 30.5436C52.774 30.4716 52.774 30.4356 52.792 30.3996C52.81 30.3816 52.882 30.3456 52.99 30.2736C53.026 30.2376 53.08 30.2196 53.116 30.2016L56.572 29.7876C56.608 29.6976 56.644 29.5896 56.698 29.4456C56.41 29.3916 56.122 29.3016 55.87 29.1936C55.366 29.0136 54.952 28.7256 54.664 28.3656C54.394 28.0776 54.304 27.7536 54.394 27.3756C54.466 26.9976 54.718 26.6736 55.132 26.4216L55.546 26.2056ZM57.202 27.3576C57.184 27.6096 57.22 27.7896 57.292 27.8796C57.364 27.9876 57.526 28.0416 57.778 28.0776C58.102 28.1496 58.39 28.1496 58.66 28.0776C58.732 28.0776 58.804 28.0236 58.876 27.9516C58.948 27.8796 59.002 27.7896 59.02 27.7176C59.02 27.6816 59.002 27.6096 58.948 27.5196C58.876 27.4476 58.822 27.3756 58.75 27.3396C58.498 27.2316 58.336 27.1596 58.228 27.1236C58.12 27.0876 57.958 27.0696 57.76 27.0876C57.544 27.1056 57.364 27.1956 57.202 27.3576ZM55.6 33.4236C55.69 33.3336 56.194 33.2796 57.13 33.2796C57.238 33.2796 57.346 33.2976 57.472 33.3156C57.616 33.3516 57.778 33.3696 57.976 33.3696C58.066 33.3696 58.21 33.3696 58.39 33.3516C58.57 33.3516 58.696 33.3336 58.786 33.3336C58.876 33.3336 59.002 33.3516 59.182 33.3516C59.362 33.3696 59.488 33.3696 59.578 33.3696C59.884 33.3696 60.208 33.3516 60.55 33.3156C60.874 33.2796 61.252 33.2076 61.648 33.1356C62.044 33.0636 62.368 33.0276 62.584 32.9916C62.836 32.9556 63.106 32.9376 63.412 32.9376C63.682 32.9376 64.15 32.9736 64.798 33.0096C65.446 33.0456 65.86 33.0636 66.04 33.0636C66.094 33.0636 66.13 33.0996 66.166 33.1356C66.31 33.4236 66.4 33.6396 66.454 33.8016C66.49 33.9816 66.526 34.1976 66.562 34.4856C66.58 34.7916 66.598 35.0256 66.598 35.1876C66.598 35.4756 66.58 35.7456 66.562 35.9976C66.544 36.2676 66.526 36.5736 66.49 36.9336C66.454 37.2936 66.436 37.5636 66.436 37.7256C66.4 37.9236 66.274 38.2656 66.022 38.7516C65.95 38.8956 65.842 39.0216 65.716 39.0936C65.572 39.1656 65.464 39.2196 65.374 39.2196L64.978 39.2736C64.762 39.2916 64.6 39.3096 64.51 39.3276C64.384 39.3636 64.204 39.3816 63.952 39.4176C63.7 39.4536 63.538 39.4716 63.43 39.4896C63.358 39.5076 63.286 39.5076 63.25 39.5076C62.998 39.5076 62.872 39.3636 62.872 39.0576C62.836 37.7976 62.818 36.9156 62.818 36.3936C62.8 35.9976 62.62 35.7996 62.296 35.7996C62.26 35.7996 62.224 35.8176 62.188 35.8176C62.008 35.8356 61.738 35.8716 61.414 35.9436C61.09 36.0156 60.874 36.0516 60.784 36.0516C60.694 36.0696 60.514 36.1056 60.226 36.1416C59.938 36.1956 59.704 36.2316 59.506 36.2496C59.308 36.2856 59.11 36.2856 58.93 36.2856C58.462 36.2856 57.508 36.2316 56.086 36.1056C56.014 36.1056 55.924 36.0696 55.834 36.0156C55.744 35.9616 55.708 35.9076 55.708 35.8536C55.654 35.6376 55.6 35.3676 55.564 35.0436C55.528 34.7196 55.492 34.3956 55.492 34.0356C55.474 33.6936 55.51 33.4956 55.6 33.4236ZM76.534 32.3976C75.184 32.4336 73.96 32.1456 72.844 31.4976C72.16 31.1196 71.692 30.4896 71.476 29.5896C71.188 28.5096 71.152 27.6456 71.368 26.9616C71.476 26.6016 71.656 26.2596 71.89 25.9356C72.34 25.3236 72.736 24.8556 73.078 24.5316C73.582 24.0636 74.248 23.8836 75.04 23.9736C76.066 24.1176 77.164 24.5316 78.316 25.2156C78.964 25.6116 79.36 26.1876 79.504 26.9796C79.702 28.2396 79.72 29.2656 79.54 30.0396C79.36 30.8136 79.018 31.4076 78.496 31.8396C77.974 32.2716 77.326 32.4696 76.534 32.3976ZM74.572 28.5456C74.788 29.2656 74.932 29.6796 74.986 29.7516C75.022 29.8236 75.076 29.9136 75.166 29.9856C75.256 30.0576 75.328 30.0936 75.4 30.0756C75.796 30.0396 76.138 29.9496 76.408 29.7696C76.66 29.5896 76.84 29.3556 76.912 29.0496C76.984 28.7436 76.912 28.3836 76.696 27.9516C76.372 27.3036 75.868 27.0876 75.184 27.2856C74.788 27.4116 74.59 27.8256 74.572 28.5456ZM86.56 22.8936C86.56 23.0556 86.56 23.3616 86.56 23.7936C86.542 24.2256 86.542 24.5136 86.578 24.6576C86.686 25.4856 86.596 27.3576 86.326 30.2556C86.29 30.4716 86.254 30.9936 86.2 31.8036C86.128 32.6316 86.092 33.1716 86.074 33.4236C86.038 33.7116 85.876 33.8556 85.588 33.8556C85.444 33.8556 85.048 33.8556 84.364 33.8556C83.68 33.8556 83.23 33.8376 83.032 33.8376C82.816 33.8376 82.69 33.6756 82.636 33.3516C82.492 32.6316 82.492 31.4436 82.636 29.7876C82.654 29.6256 82.69 28.4376 82.726 26.2236V24.8736V23.5056C82.726 23.3256 82.834 23.1816 83.05 23.0736C83.176 23.0196 83.338 22.9656 83.536 22.9296C83.734 22.8936 83.968 22.8576 84.256 22.8216C84.544 22.8036 84.76 22.7856 84.904 22.7856C85.048 22.7856 85.3 22.7676 85.642 22.7496L86.146 22.7316C86.182 22.7316 86.254 22.7676 86.38 22.8036C86.488 22.8396 86.56 22.8756 86.56 22.8936ZM78.082 35.8176C80.53 35.6736 81.916 35.6016 82.222 35.5656C82.528 35.5476 82.888 35.5116 83.32 35.4756C83.752 35.4396 84.112 35.4036 84.4 35.3676C84.688 35.3316 84.94 35.3136 85.12 35.3136C85.354 35.3136 85.534 35.6196 85.642 36.1956C85.66 36.3216 85.678 36.5736 85.678 36.9336C85.678 37.3476 85.57 37.7616 85.354 38.1936C85.282 38.3196 85.12 38.4096 84.868 38.4456C84.616 38.4816 83.77 38.5356 82.33 38.6076C80.89 38.6796 80.044 38.7336 79.774 38.7696C79.702 38.7876 79.648 38.7876 79.576 38.7876C79.27 38.7876 78.622 38.8056 77.632 38.8236C76.642 38.8416 75.922 38.8596 75.472 38.8776C75.364 38.8776 75.166 38.8956 74.914 38.9136C74.662 38.9316 74.464 38.9316 74.338 38.9316C73.924 38.9316 73.582 38.8596 73.33 38.6976C73.24 38.6616 73.168 38.5716 73.096 38.4636C73.024 38.3556 73.006 38.2656 73.006 38.1576C72.952 37.6356 72.916 36.8976 72.88 35.9256C72.844 34.9536 72.808 34.2876 72.79 33.9096L72.772 33.6576C72.772 33.4776 72.772 33.3156 72.772 33.1356L72.754 32.8836C72.79 32.8836 72.88 32.8656 73.042 32.8296C73.204 32.7936 73.312 32.7576 73.366 32.7396C73.492 32.7216 73.78 32.7036 74.23 32.7036C74.752 32.7036 75.076 32.7396 75.22 32.7756C75.364 32.8296 75.436 32.9196 75.436 33.0456C75.436 33.0996 75.454 33.2256 75.49 33.4056C75.526 33.5856 75.562 33.7116 75.562 33.7656C75.562 33.9636 75.598 34.3236 75.706 34.8636C75.706 34.9356 75.724 35.0976 75.76 35.3316C75.778 35.5656 75.814 35.7636 75.868 35.9436L78.082 35.8176Z" fill="white"/>
</svg>
