<svg width="56" height="31" viewBox="0 0 56 31" fill="none" xmlns="http://www.w3.org/2000/svg">
<rect width="56" height="31" rx="15.5" fill="black" fill-opacity="0.5"/>
<path d="M8 23.62H24V7.62H8V23.62Z" fill="#414141"/>
<path d="M33.9688 21.1562C31.7188 21.1562 30.1094 19.9531 30.0312 18.1562H31.4531C31.5312 19.2344 32.6094 19.9062 33.9531 19.9062C35.4375 19.9062 36.5312 19.0938 36.5312 17.9219C36.5312 16.6875 35.5469 15.8125 33.7812 15.8125H32.8594V14.5781H33.7812C35.1562 14.5781 36.1094 13.8125 36.1094 12.6406C36.1094 11.5156 35.2812 10.75 34 10.75C32.7969 10.75 31.6875 11.4219 31.625 12.5312H30.2656C30.3438 10.7344 32 9.53125 34.0156 9.53125C36.1719 9.53125 37.4844 10.9375 37.4688 12.5625C37.4844 13.8438 36.7344 14.7969 35.5469 15.125V15.2031C37.0156 15.4375 37.9219 16.4844 37.9062 17.9219C37.9219 19.7812 36.2188 21.1562 33.9688 21.1562ZM40.2969 21L45.4844 11.0156V10.9375H39.5V9.6875H46.9375V11L41.7656 21H40.2969Z" fill="white"/>
</svg>
