<svg width="48" height="26" viewBox="0 0 48 26" fill="none" xmlns="http://www.w3.org/2000/svg">
<rect width="48" height="26" rx="13" fill="black" fill-opacity="0.4"/>
<path d="M8 18.84H20V6.84H8V18.84Z" fill="#414141"/>
<path d="M28.7266 17.1172C27.0391 17.1172 25.832 16.2148 25.7734 14.8672H26.8398C26.8984 15.6758 27.707 16.1797 28.7148 16.1797C29.8281 16.1797 30.6484 15.5703 30.6484 14.6914C30.6484 13.7656 29.9102 13.1094 28.5859 13.1094H27.8945V12.1836H28.5859C29.6172 12.1836 30.332 11.6094 30.332 10.7305C30.332 9.88672 29.7109 9.3125 28.75 9.3125C27.8477 9.3125 27.0156 9.81641 26.9688 10.6484H25.9492C26.0078 9.30078 27.25 8.39844 28.7617 8.39844C30.3789 8.39844 31.3633 9.45312 31.3516 10.6719C31.3633 11.6328 30.8008 12.3477 29.9102 12.5938V12.6523C31.0117 12.8281 31.6914 13.6133 31.6797 14.6914C31.6914 16.0859 30.4141 17.1172 28.7266 17.1172ZM33.4727 17L37.3633 9.51172V9.45312H32.875V8.51562H38.4531V9.5L34.5742 17H33.4727Z" fill="white"/>
</svg>
