<svg width="94" height="22" viewBox="0 0 94 22" fill="none" xmlns="http://www.w3.org/2000/svg">
<rect width="94" height="22" rx="11" fill="black" fill-opacity="0.5"/>
<rect x="0.5" y="0.5" width="93" height="21" rx="10.5" stroke="black" stroke-opacity="0.1"/>
<g clip-path="url(#clip0_1_37950)">
<path d="M23.1952 4.24152C22.7063 4.00155 20.2281 4.27564 18.4404 5.98977C15.6251 8.80158 15.6927 12.5046 15.6927 12.5046C15.6927 12.5046 15.6 12.8859 15.2032 12.3331C14.3352 11.2273 14.7899 8.68236 14.8407 8.32755C14.9124 7.82858 14.5942 7.81327 14.4614 7.97864C11.3256 12.3329 14.1578 15.8987 16.0125 17.0305C18.1834 18.3551 22.4668 18.3546 24.1732 14.5963C26.2975 9.91568 23.8075 4.54186 23.1952 4.24152Z" fill="#79AC6A"/>
<path d="M23.1468 8.37136C23.3645 6.91164 23.3658 5.50552 23.1868 4.23852C22.6815 4.00489 20.2195 4.28402 18.4408 5.98983C15.6255 8.80164 15.6931 12.5046 15.6931 12.5046C15.6931 12.5046 15.6004 12.8859 15.2036 12.3331C14.3356 11.2274 14.7903 8.68242 14.8411 8.32761C14.9128 7.82864 14.5946 7.81333 14.4618 7.9787C12.5665 10.6103 12.8524 12.9526 13.7836 14.6451C14.7157 15.6459 15.7765 16.3037 16.7589 16.4502C19.5589 16.868 22.4184 13.251 23.1468 8.37136Z" fill="#CAE5C2"/>
<path d="M23.1465 8.37132C23.3641 6.9116 23.3654 5.50548 23.1865 4.23848C22.6812 4.00485 20.7201 4.81641 18.9412 6.52266C16.1259 9.33426 15.6928 12.5046 15.6928 12.5046C15.6928 12.5046 15.6 12.8859 15.2032 12.3331C14.3352 11.2273 14.6336 9.31698 14.6846 8.96238C14.7565 8.46319 14.438 8.4481 14.3053 8.61348C12.4102 11.245 12.8523 12.9528 13.7838 14.6451C14.7159 15.6459 15.7766 16.3036 16.759 16.4502C19.5585 16.868 22.418 13.251 23.1465 8.37132Z" fill="#99C08E"/>
</g>
<path d="M33.7617 15.1172C32.0039 15.1172 30.75 14.168 30.7031 12.7852H32.0156C32.0625 13.5352 32.8008 14.0039 33.75 14.0039C34.7695 14.0039 35.5195 13.4414 35.5195 12.6211C35.5195 11.7891 34.8164 11.1797 33.6094 11.1797H32.8828V10.125H33.6094C34.5703 10.125 35.25 9.58594 35.25 8.77734C35.25 8.00391 34.6758 7.47656 33.7734 7.47656C32.918 7.47656 32.168 7.94531 32.1328 8.71875H30.8906C30.9258 7.33594 32.2031 6.39844 33.7852 6.39844C35.4492 6.39844 36.5039 7.45312 36.4922 8.70703C36.5039 9.66797 35.9062 10.3711 34.9922 10.5938V10.6523C36.1523 10.8164 36.8203 11.5898 36.8203 12.668C36.8203 14.0859 35.5195 15.1172 33.7617 15.1172ZM41.4609 6.51562V15H40.1602V7.80469H40.1133L38.0859 9.12891V7.89844L40.1953 6.51562H41.4609ZM46.5703 15.1172C44.6016 15.1172 43.4531 13.5352 43.4531 10.7578C43.4531 8.00391 44.625 6.39844 46.5703 6.39844C48.5156 6.39844 49.6875 8.00391 49.6875 10.7578C49.6875 13.5352 48.5273 15.1172 46.5703 15.1172ZM46.5703 14.0039C47.7188 14.0039 48.3984 12.8789 48.3984 10.7578C48.3984 8.64844 47.707 7.48828 46.5703 7.48828C45.4336 7.48828 44.7422 8.64844 44.7422 10.7578C44.7422 12.8789 45.4219 14.0039 46.5703 14.0039ZM51.1406 15V6.51562H54.1641C56.1328 6.51562 57.1055 7.69922 57.1055 9.26953C57.1055 10.8281 56.1328 12.0234 54.1641 12.0234H52.4297V15H51.1406ZM52.4297 10.9219H54.0352C55.2891 10.9219 55.8047 10.2188 55.8047 9.26953C55.8047 8.30859 55.2891 7.61719 54.0352 7.61719H52.4297V10.9219ZM67.5117 6.39844V7.23047H61.3008V6.39844H63.8438V5.42578H64.957V6.39844H67.5117ZM64.4062 7.58203C65.9297 7.57031 66.9609 8.17969 66.9609 9.15234C66.9609 9.99023 66.1758 10.5527 64.957 10.6758V11.3086C65.8887 11.2617 66.8262 11.1914 67.6992 11.0742L67.7812 11.8477C65.5078 12.2227 63 12.2578 61.1133 12.2578L60.9609 11.3906C61.8223 11.3906 62.8184 11.3848 63.8438 11.3555V10.6758C62.625 10.5527 61.8516 9.99023 61.8633 9.15234C61.8516 8.17969 62.8711 7.57031 64.4062 7.58203ZM64.4062 8.34375C63.5039 8.33203 62.918 8.63672 62.918 9.15234C62.918 9.63281 63.5039 9.9375 64.4062 9.9375C65.2969 9.9375 65.8945 9.63281 65.8945 9.15234C65.8945 8.63672 65.2969 8.33203 64.4062 8.34375ZM69.6211 5.51953V12.5508H68.5078V5.51953H69.6211ZM69.6211 13.0195V15.9961H68.5078V13.8867H62.4727V13.0195H69.6211ZM80.8711 10.5586V11.4609H71.2852V10.5586H80.8711ZM79.6992 12.5977V16.0312H78.5977V13.5H72.3516V12.5977H79.6992ZM79.793 8.60156V9.49219H72.4805V5.88281H79.6875V6.78516H73.5938V8.60156H79.793Z" fill="white"/>
<defs>
<clipPath id="clip0_1_37950">
<rect width="14" height="14" fill="white" transform="translate(12 4)"/>
</clipPath>
</defs>
</svg>
