<svg width="116" height="31" viewBox="0 0 116 31" fill="none" xmlns="http://www.w3.org/2000/svg">
<rect width="116" height="31" rx="15.5" fill="white" fill-opacity="0.3"/>
<rect x="0.5" y="0.5" width="115" height="30" rx="15" stroke="black" stroke-opacity="0.1"/>
<path d="M27.194 6.32784C26.5305 6.00217 23.1672 6.37415 20.7412 8.70046C16.9204 12.5165 17.0121 17.542 17.0121 17.542C17.0121 17.542 16.8862 18.0594 16.3477 17.3092C15.1697 15.8085 15.7869 12.3547 15.8558 11.8732C15.9532 11.196 15.5212 11.1752 15.341 11.3997C11.0853 17.3089 14.9289 22.1483 17.4461 23.6843C20.3923 25.4819 26.2054 25.4813 28.5214 20.3807C31.4043 14.0285 28.025 6.73545 27.194 6.32784Z" fill="#79AC6A"/>
<path d="M27.128 11.9326C27.4234 9.95152 27.4252 8.04321 27.1823 6.32371C26.4966 6.00665 23.1552 6.38546 20.7413 8.70049C16.9206 12.5165 17.0123 17.542 17.0123 17.542C17.0123 17.542 16.8864 18.0595 16.3479 17.3093C15.1699 15.8086 15.7871 12.3547 15.856 11.8732C15.9533 11.196 15.5214 11.1752 15.3412 11.3997C12.7691 14.9711 13.1571 18.15 14.4209 20.4469C15.6859 21.8051 17.1254 22.6979 18.4587 22.8968C22.2587 23.4638 26.1394 18.555 27.128 11.9326Z" fill="#CAE5C2"/>
<path d="M27.1274 11.9324C27.4228 9.9514 27.4245 8.04308 27.1817 6.32358C26.4959 6.00652 23.8344 7.10793 21.4202 9.42355C17.5995 13.2393 17.0116 17.5419 17.0116 17.5419C17.0116 17.5419 16.8858 18.0594 16.3472 17.3091C15.1692 15.8084 15.5742 13.2158 15.6433 12.7346C15.741 12.0571 15.3088 12.0366 15.1286 12.2611C12.5567 15.8325 13.1567 18.1502 14.4208 20.4468C15.6858 21.805 17.1253 22.6977 18.4586 22.8966C22.258 23.4637 26.1388 18.5548 27.1274 11.9324Z" fill="#99C08E"/>
<path d="M40.0156 21.1562C37.6719 21.1562 36 19.8906 35.9375 18.0469H37.6875C37.75 19.0469 38.7344 19.6719 40 19.6719C41.3594 19.6719 42.3594 18.9219 42.3594 17.8281C42.3594 16.7188 41.4219 15.9062 39.8125 15.9062H38.8438V14.5H39.8125C41.0938 14.5 42 13.7812 42 12.7031C42 11.6719 41.2344 10.9688 40.0312 10.9688C38.8906 10.9688 37.8906 11.5938 37.8438 12.625H36.1875C36.2344 10.7812 37.9375 9.53125 40.0469 9.53125C42.2656 9.53125 43.6719 10.9375 43.6562 12.6094C43.6719 13.8906 42.875 14.8281 41.6562 15.125V15.2031C43.2031 15.4219 44.0938 16.4531 44.0938 17.8906C44.0938 19.7812 42.3594 21.1562 40.0156 21.1562ZM50.2812 9.6875V21H48.5469V11.4062H48.4844L45.7812 13.1719V11.5312L48.5938 9.6875H50.2812ZM57.0938 21.1562C54.4688 21.1562 52.9375 19.0469 52.9375 15.3438C52.9375 11.6719 54.5 9.53125 57.0938 9.53125C59.6875 9.53125 61.25 11.6719 61.25 15.3438C61.25 19.0469 59.7031 21.1562 57.0938 21.1562ZM57.0938 19.6719C58.625 19.6719 59.5312 18.1719 59.5312 15.3438C59.5312 12.5312 58.6094 10.9844 57.0938 10.9844C55.5781 10.9844 54.6562 12.5312 54.6562 15.3438C54.6562 18.1719 55.5625 19.6719 57.0938 19.6719ZM63.1875 21V9.6875H67.2188C69.8438 9.6875 71.1406 11.2656 71.1406 13.3594C71.1406 15.4375 69.8438 17.0312 67.2188 17.0312H64.9062V21H63.1875ZM64.9062 15.5625H67.0469C68.7188 15.5625 69.4062 14.625 69.4062 13.3594C69.4062 12.0781 68.7188 11.1562 67.0469 11.1562H64.9062V15.5625ZM85.0156 9.53125V10.6406H76.7344V9.53125H80.125V8.23438H81.6094V9.53125H85.0156ZM80.875 11.1094C82.9062 11.0938 84.2812 11.9062 84.2812 13.2031C84.2812 14.3203 83.2344 15.0703 81.6094 15.2344V16.0781C82.8516 16.0156 84.1016 15.9219 85.2656 15.7656L85.375 16.7969C82.3438 17.2969 79 17.3438 76.4844 17.3438L76.2812 16.1875C77.4297 16.1875 78.7578 16.1797 80.125 16.1406V15.2344C78.5 15.0703 77.4688 14.3203 77.4844 13.2031C77.4688 11.9062 78.8281 11.0938 80.875 11.1094ZM80.875 12.125C79.6719 12.1094 78.8906 12.5156 78.8906 13.2031C78.8906 13.8438 79.6719 14.25 80.875 14.25C82.0625 14.25 82.8594 13.8438 82.8594 13.2031C82.8594 12.5156 82.0625 12.1094 80.875 12.125ZM87.8281 8.35938V17.7344H86.3438V8.35938H87.8281ZM87.8281 18.3594V22.3281H86.3438V19.5156H78.2969V18.3594H87.8281ZM102.828 15.0781V16.2812H90.0469V15.0781H102.828ZM101.266 17.7969V22.375H99.7969V19H91.4688V17.7969H101.266ZM101.391 12.4688V13.6562H91.6406V8.84375H101.25V10.0469H93.125V12.4688H101.391Z" fill="#414141"/>
</svg>
