<svg width="140" height="58" viewBox="0 0 140 58" fill="none" xmlns="http://www.w3.org/2000/svg">
<rect width="140" height="58" rx="16" fill="#99C08E"/>
<path d="M41.2325 32.848C41.1965 33.028 41.1425 33.496 41.0705 34.234C40.9985 34.972 40.9625 35.404 40.9445 35.512C40.8905 35.782 40.7285 35.944 40.4765 35.98C40.2065 36.034 39.5945 36.07 38.6225 36.088C38.4785 36.088 38.3885 36.052 38.3165 35.98C38.2445 35.908 38.1905 35.8 38.1905 35.656C38.1725 35.35 38.1725 35.062 38.1905 34.792C38.1905 34.54 38.1905 34.306 38.1905 34.09C38.1725 33.874 38.1545 33.694 38.1185 33.532C38.0825 33.388 38.0285 33.262 37.9385 33.154C37.8305 33.064 37.7045 33.01 37.5425 32.974C37.3265 32.938 36.4445 32.902 34.8965 32.848C33.3485 32.812 32.4125 32.776 32.0885 32.776C31.8725 32.776 31.7105 32.65 31.6025 32.38C31.3685 31.876 31.3505 31.264 31.5485 30.526C31.5665 30.4 31.7285 30.31 32.0345 30.238C32.0705 30.22 32.4305 30.22 33.1145 30.22C33.7985 30.22 34.1585 30.22 34.1945 30.22C34.5725 30.202 35.6885 30.166 37.5245 30.13C39.3605 30.094 40.4225 30.058 40.7465 30.04C41.1065 30.04 42.1145 30.022 43.7525 30.004C45.3905 30.004 46.3085 29.986 46.5065 29.986C46.7585 29.986 46.9745 30.148 47.1365 30.508C47.3885 31.048 47.4425 31.57 47.2985 32.074C47.2445 32.254 47.1005 32.398 46.8665 32.488C46.5965 32.596 45.6605 32.686 44.0585 32.722C42.4385 32.758 41.6105 32.794 41.5385 32.794L41.2325 32.848ZM37.5965 21.436C39.0545 21.346 39.8645 21.292 40.0445 21.274C40.3505 21.274 40.6925 21.382 41.0525 21.562C41.1245 21.598 41.1965 21.688 41.2685 21.796C41.3225 21.904 41.3585 22.012 41.3585 22.084C41.3405 22.84 41.4485 23.488 41.6645 24.064C41.7545 24.352 41.9525 24.532 42.2405 24.604C43.0685 24.802 44.1305 25.072 45.3905 25.432C45.6065 25.504 45.7505 25.576 45.8405 25.666C45.9125 25.774 45.9125 25.918 45.8225 26.116C45.7505 26.26 45.6965 26.44 45.6605 26.692C45.6065 26.944 45.5705 27.106 45.5525 27.178C45.4445 27.556 45.2285 27.826 44.9405 27.988C44.6345 28.15 44.2385 28.258 43.7705 28.312C43.6985 28.33 43.4645 28.366 43.1045 28.438C42.7445 28.51 42.4565 28.528 42.2765 28.528C41.9885 28.528 41.7185 28.438 41.4305 28.222C41.0885 27.97 40.7825 27.664 40.5125 27.304C40.0985 26.8 39.5945 26.44 38.9825 26.188C38.7305 26.08 38.4605 26.098 38.1365 26.224C37.5245 26.476 36.7685 26.818 35.9045 27.25C35.8685 27.268 35.8145 27.286 35.7605 27.304C35.5085 27.448 35.3105 27.538 35.1665 27.592C35.0225 27.664 34.8245 27.718 34.5905 27.772C34.3385 27.826 34.1225 27.844 33.9065 27.826C33.6365 27.808 33.4565 27.754 33.3665 27.682C33.2585 27.61 33.2045 27.466 33.1685 27.232C33.1325 27.016 33.0785 26.818 33.0065 26.602C32.7185 25.81 32.9885 25.216 33.8345 24.838C35.9225 23.902 37.0025 23.398 37.0925 23.362C37.3085 23.272 37.4705 23.146 37.5425 22.984C37.6145 22.822 37.6685 22.624 37.6865 22.372C37.6865 22.336 37.6505 22.03 37.5965 21.436ZM65.3165 26.782C65.2985 27.538 65.1185 28.06 64.7765 28.348C64.6325 28.456 64.4525 28.546 64.2365 28.582C64.0205 28.618 63.8225 28.636 63.6605 28.618H63.4265L63.0305 28.51C62.7785 28.456 62.6705 28.294 62.6705 28.042C62.6705 26.026 62.6705 24.64 62.6345 23.92C62.5805 23.128 62.5625 22.156 62.5625 21.004C62.5625 20.77 62.6345 20.572 62.8145 20.41C62.9765 20.266 63.1925 20.176 63.4445 20.176L64.7225 20.302L64.9025 20.446C64.9745 20.5 65.0645 20.608 65.2085 20.77C65.3345 20.932 65.4065 21.094 65.4065 21.238V23.02C65.3885 23.02 65.3705 23.236 65.3705 23.65C65.3705 24.082 65.3525 24.64 65.3525 25.324C65.3345 26.008 65.3165 26.494 65.3165 26.782ZM61.3565 23.182C61.6985 23.254 61.9325 23.344 62.0585 23.452C62.1845 23.56 62.2565 23.776 62.2925 24.064C62.2925 24.208 62.3105 24.424 62.3105 24.712V25.198C62.3105 25.504 62.1125 25.72 61.6985 25.864C61.4105 25.972 61.0685 26.044 60.6725 26.098C60.2045 26.17 59.9345 26.008 59.8625 25.612C59.6825 24.856 59.7905 24.1 60.2225 23.344C60.2585 23.308 60.3125 23.272 60.3845 23.236C60.4565 23.218 60.5825 23.2 60.7445 23.182C60.8885 23.164 60.9965 23.146 61.0325 23.128C61.0325 23.128 61.1405 23.146 61.3565 23.182ZM54.4265 22.786C53.7785 22.642 52.9685 22.66 51.9965 22.84C51.0245 23.02 50.3405 23.11 49.9805 23.092C50.1065 22.012 50.1965 21.238 50.2685 20.77C51.2225 20.644 51.7265 20.572 51.7985 20.572C53.4185 20.482 54.4625 20.446 54.9665 20.464C55.2185 20.482 55.4705 20.518 55.7225 20.554C55.9745 20.608 56.2985 20.68 56.6945 20.77C57.0725 20.878 57.3245 20.932 57.4685 20.95C57.9005 21.058 58.0625 21.364 57.9185 21.85C57.7745 22.336 57.6665 22.678 57.5945 22.894C57.5225 23.11 57.3785 23.38 57.1985 23.74C57.0185 24.1 56.8025 24.388 56.5505 24.622C56.4785 24.694 56.3885 24.784 56.2805 24.892C56.1545 25 56.0645 25.09 56.0285 25.126C55.9925 25.162 55.9385 25.216 55.9025 25.288C55.8665 25.36 55.8485 25.432 55.8665 25.468C55.8845 25.522 55.9205 25.576 55.9925 25.648C56.0465 25.72 56.1365 25.792 56.2625 25.864C56.3345 25.918 56.4425 26.026 56.6225 26.17C56.7845 26.314 56.8925 26.422 56.9285 26.476C57.0905 26.71 57.3065 26.944 57.5585 27.196C57.8105 27.448 58.0085 27.682 58.1705 27.916C58.4585 28.348 58.4045 28.672 57.9725 28.888C57.8285 28.978 57.6305 29.104 57.3785 29.284C57.1265 29.464 56.9465 29.572 56.8565 29.626C56.7665 29.698 56.6945 29.734 56.6225 29.752C56.5505 29.77 56.4605 29.77 56.3705 29.734C56.2805 29.698 56.2265 29.68 56.1905 29.662C56.1545 29.662 56.0825 29.608 55.9565 29.518C55.8305 29.446 55.7585 29.392 55.7405 29.374C55.6505 29.338 55.5965 29.302 55.5785 29.266C55.5425 29.23 55.5245 29.212 55.5245 29.194C55.5245 29.176 55.4885 29.122 55.4345 29.05C55.3625 28.978 55.2725 28.87 55.1465 28.744C55.0925 28.708 55.0025 28.6 54.8585 28.402C54.7145 28.222 54.5705 28.06 54.4625 27.952C54.1025 27.592 53.7065 27.43 53.2745 27.43C52.8425 27.43 52.3205 27.646 51.6725 28.078C51.3125 28.312 50.9345 28.618 50.5385 28.996C50.1785 29.32 49.9625 29.248 49.8545 28.798C49.6205 27.862 49.4945 27.286 49.4585 27.052C49.3865 26.656 49.4405 26.296 49.6205 25.99C49.8005 25.702 50.1065 25.486 50.5205 25.342C51.1325 25.162 51.7085 24.91 52.2305 24.55C52.7345 24.19 53.3285 23.722 54.0125 23.128C54.0125 23.128 54.1565 23.02 54.4265 22.786ZM59.5025 34.63C59.7905 34.63 60.0425 34.522 60.2585 34.27C60.4745 34.036 60.5825 33.748 60.5825 33.388C60.5825 32.884 60.2945 32.578 59.7545 32.452C59.1605 32.344 57.9905 32.272 56.2445 32.272H56.2265C56.0465 32.272 55.9025 32.308 55.7765 32.362C55.6505 32.434 55.5425 32.524 55.4705 32.65C55.3985 32.776 55.3445 32.884 55.3085 32.974C55.2725 33.082 55.2365 33.208 55.2005 33.388C55.1645 33.478 55.1645 33.55 55.1645 33.622C55.1645 33.82 55.2185 33.982 55.3625 34.09C55.5065 34.216 55.6685 34.288 55.8845 34.324C56.0825 34.378 56.3525 34.414 56.7125 34.45C57.0545 34.486 57.3605 34.522 57.6305 34.522C57.8825 34.54 58.2245 34.558 58.6385 34.576C59.0525 34.612 59.3225 34.63 59.4485 34.63H59.5025ZM56.8565 30.436C57.5405 30.436 58.3685 30.508 59.3045 30.616C60.2405 30.724 61.0325 30.868 61.6805 31.048C62.7785 31.372 63.3905 31.948 63.5165 32.776C63.5525 32.992 63.5705 33.19 63.5705 33.37C63.5705 34.18 63.2465 34.828 62.6165 35.296C62.1845 35.62 61.8245 35.89 61.5365 36.07C61.2485 36.25 60.9065 36.43 60.4745 36.592C60.0425 36.772 59.6105 36.862 59.1785 36.862C58.9985 36.862 58.5665 36.898 57.8645 36.934C57.1625 36.97 56.6945 36.988 56.4605 36.988C56.1185 36.988 55.8125 36.97 55.5605 36.916C55.4885 36.916 55.4165 36.916 55.3085 36.88C54.8045 36.808 54.4085 36.736 54.1565 36.682C53.8865 36.628 53.5625 36.52 53.1845 36.34C52.8065 36.178 52.4825 35.962 52.2305 35.692C51.7445 35.224 51.5105 34.792 51.5105 34.378C51.5105 33.55 51.6185 32.92 51.8705 32.506C52.5365 31.39 53.9225 30.706 56.0105 30.49C56.2805 30.454 56.5685 30.436 56.8565 30.436ZM88.8855 21.184C88.9215 21.436 88.9575 21.994 88.9755 22.894C88.9755 23.794 88.9755 24.352 88.9395 24.568C88.9395 24.64 88.9575 24.748 88.9935 24.892C89.0295 25.036 89.0655 25.108 89.0655 25.108C89.0835 25.198 89.2635 25.306 89.5875 25.432C89.6595 25.486 89.8035 25.522 89.9835 25.558C90.1635 25.594 90.2895 25.63 90.3615 25.648C90.5595 25.72 90.6855 25.81 90.7395 25.918C90.7755 26.026 90.7755 26.188 90.7395 26.386C90.5775 27.016 90.1995 27.394 89.6055 27.538C89.4975 27.574 89.3895 27.574 89.2995 27.556C89.1915 27.538 89.1375 27.52 89.1195 27.484C89.0835 27.466 89.0655 27.466 89.0295 27.484C88.9935 27.52 89.0115 27.592 89.0655 27.718C89.1015 27.934 89.1195 28.474 89.1015 29.302C89.0655 30.148 88.9935 30.67 88.8855 30.868C88.7235 31.138 88.5975 31.3 88.4895 31.354C87.9315 31.66 87.3915 31.696 86.8875 31.462C86.7435 31.408 86.6535 31.282 86.6355 31.102C86.5995 30.922 86.6175 30.76 86.6535 30.598C86.6535 30.382 86.6535 29.806 86.6355 28.888C86.6175 27.97 86.6175 27.466 86.6175 27.376C86.6355 24.172 86.6895 22.138 86.7795 21.238C86.8155 20.878 87.0135 20.68 87.3915 20.662C87.6075 20.662 87.8415 20.644 88.0755 20.608C88.3995 20.572 88.5975 20.572 88.6695 20.608C88.7415 20.662 88.7775 20.77 88.8135 20.914C88.8315 21.058 88.8495 21.148 88.8855 21.184ZM85.2855 29.05C85.3395 29.518 85.3395 29.824 85.2675 29.95C85.1955 30.094 85.0335 30.148 84.7815 30.148C83.8635 30.256 81.8295 30.292 78.6615 30.22C78.3195 30.22 77.2035 30.238 75.3135 30.274C74.9355 30.292 74.6655 30.184 74.4855 29.932C74.3055 29.698 74.2695 29.374 74.3415 28.978L74.3775 28.69C74.3775 28.618 74.3775 28.564 74.3955 28.528C74.4135 28.51 74.4855 28.474 74.5935 28.402C74.6295 28.366 74.6835 28.348 74.7195 28.33L78.1755 27.916C78.3915 27.268 78.6255 26.818 78.8775 26.584C78.8955 26.584 78.9135 26.566 78.9495 26.566C77.9775 26.422 76.9695 26.152 75.8895 25.756C74.8815 25.396 74.3595 24.82 74.3235 24.046C74.2515 23.038 74.5755 22.282 75.3315 21.796C75.7455 21.526 76.0875 21.31 76.3575 21.166C76.6275 21.022 76.9695 20.878 77.3835 20.752C77.7975 20.644 78.2115 20.59 78.6075 20.59C78.7695 20.608 79.0395 20.608 79.4175 20.608C79.7955 20.608 80.1375 20.626 80.4255 20.644C80.7135 20.662 80.9835 20.698 81.2355 20.752C81.2715 20.77 81.3795 20.806 81.5775 20.842C81.7755 20.896 81.9015 20.932 81.9555 20.932C81.9915 20.95 82.1175 20.986 82.2975 21.022C82.4775 21.076 82.5855 21.112 82.6575 21.148C82.7295 21.184 82.8375 21.22 82.9815 21.274C83.1255 21.346 83.2515 21.4 83.3415 21.436C83.4135 21.49 83.5215 21.544 83.6295 21.616C83.7375 21.688 83.8455 21.778 83.9355 21.85C84.0255 21.94 84.1155 22.03 84.2055 22.12C84.5655 22.552 84.7455 22.912 84.7635 23.236C84.7815 23.56 84.6015 23.974 84.2415 24.514C83.6655 25.306 83.1075 25.864 82.5675 26.188C82.0095 26.512 81.3075 26.656 80.4795 26.656H80.4255C80.4795 26.746 80.5335 26.908 80.6055 27.16C80.6595 27.412 80.7135 27.556 80.7675 27.628C80.8395 27.772 81.1455 27.862 81.6495 27.916C82.1535 27.97 82.6935 28.006 83.2695 28.024C83.8275 28.042 84.1695 28.06 84.2775 28.078C84.5295 28.168 84.6555 28.204 84.6915 28.204C84.9435 28.312 85.1055 28.402 85.1775 28.51C85.2495 28.618 85.2855 28.798 85.2855 29.05ZM79.8675 25H80.0475H80.2275C80.5335 25 80.7675 24.928 80.9295 24.784C81.0735 24.64 81.2175 24.388 81.3255 24.028C81.4515 23.56 81.2355 23.254 80.6955 23.11C79.9755 22.93 79.1295 22.768 78.1935 22.642C77.9055 22.606 77.6715 22.696 77.4555 22.876C77.2395 23.056 77.1135 23.308 77.0775 23.596C77.0055 24.136 77.2575 24.478 77.8335 24.622C78.0315 24.694 78.3015 24.748 78.6435 24.82C78.9675 24.892 79.2555 24.928 79.5075 24.964C79.7415 25 79.8675 25.018 79.8675 25ZM81.7755 33.532H83.6295H85.6095C87.3015 33.532 88.4175 33.55 88.9395 33.55C88.9755 33.55 89.0295 33.568 89.0655 33.568C89.1015 33.586 89.1195 33.604 89.1555 33.604C89.1735 33.622 89.1915 33.64 89.2275 33.676L89.2815 33.766C89.2815 33.784 89.2995 33.82 89.3175 33.856C89.3175 33.91 89.3355 33.946 89.3355 33.964C89.3355 33.982 89.3535 34.018 89.3715 34.072C89.3715 34.126 89.3895 34.162 89.3895 34.162C89.4075 34.288 89.4255 34.414 89.4255 34.54C89.4255 35.08 89.2995 35.548 89.0835 35.98C89.0115 36.106 88.8675 36.196 88.6155 36.232C88.3635 36.268 87.4635 36.304 85.9155 36.304C84.3675 36.322 83.4495 36.34 83.1615 36.376C83.0895 36.394 83.0175 36.394 82.9635 36.394C82.6575 36.394 82.0095 36.412 81.0195 36.43C80.0295 36.448 79.3095 36.466 78.8595 36.484C78.7515 36.484 78.5535 36.502 78.3015 36.52C78.0495 36.538 77.8515 36.538 77.7255 36.538C77.3115 36.538 76.9695 36.466 76.6995 36.304C76.6275 36.268 76.5555 36.178 76.4835 36.07C76.4115 35.962 76.3755 35.872 76.3755 35.764C76.3395 35.224 76.2855 34.36 76.2315 33.136C76.1595 31.93 76.1235 31.174 76.1235 30.886H76.1415C76.3755 30.886 76.6095 30.886 76.8255 30.868C76.8435 30.868 76.9335 30.868 77.0775 30.832C77.2215 30.814 77.3115 30.796 77.3835 30.796C77.5995 30.796 77.9235 30.868 78.3555 31.012C78.4995 31.066 78.5715 31.156 78.5715 31.282C78.5715 31.336 78.5535 31.408 78.5535 31.498C78.5535 31.606 78.5535 31.678 78.5535 31.732V32.11V32.47V33.01V33.532H81.7755ZM96.5715 33.838C96.5715 33.694 96.6075 33.514 96.6795 33.262C96.7515 33.01 96.7875 32.812 96.8055 32.668C96.8235 32.074 96.8415 31.678 96.8775 31.48C96.8775 31.336 96.9495 31.21 97.0575 31.12C97.1655 31.048 97.2915 31.012 97.4535 31.012C97.7955 31.03 98.1915 31.066 98.6415 31.102C98.7855 31.138 98.8755 31.228 98.8755 31.39C98.8575 31.966 98.8575 32.38 98.8755 32.632C98.8755 32.812 98.9295 33.136 99.0015 33.568C99.0015 33.64 99.0375 33.694 99.1095 33.712C99.1635 33.748 99.2715 33.784 99.4335 33.856C99.5955 33.928 99.7395 33.964 99.8475 34C99.9555 34.036 100.082 34.054 100.19 34.054C100.442 34.09 100.856 34.054 101.432 33.946C101.468 33.946 101.504 33.892 101.54 33.82C101.576 33.748 101.612 33.658 101.63 33.586C101.63 33.442 101.648 33.172 101.684 32.812C101.72 32.452 101.756 32.182 101.792 31.984C101.828 31.732 101.918 31.498 102.08 31.282C102.116 31.246 102.332 31.174 102.764 31.084C103.268 30.976 103.574 31.192 103.682 31.714C103.754 32.038 103.772 32.452 103.736 32.956C103.718 33.136 104.186 33.316 105.158 33.46C106.112 33.622 106.796 33.712 107.21 33.712H107.984C108.128 33.73 108.218 33.784 108.254 33.892C108.47 34.45 108.578 34.828 108.614 35.008C108.65 35.296 108.578 35.512 108.434 35.692C108.29 35.872 108.056 35.98 107.732 36.016C107.624 36.034 107.246 36.034 106.634 36.034C106.004 36.034 105.356 36.034 104.69 36.034C104.006 36.034 103.646 36.016 103.574 36.016C103.322 36.034 102.674 36.052 101.648 36.052C100.622 36.052 99.8295 36.07 99.2895 36.07C99.1275 36.088 98.8755 36.106 98.5515 36.142C98.2275 36.178 97.9755 36.196 97.8315 36.196C97.3275 36.196 95.7255 36.124 93.0255 35.962H92.9535C92.9175 35.962 92.8815 35.944 92.8635 35.944C92.6295 35.98 92.4855 35.962 92.4135 35.908C92.3415 35.854 92.3055 35.71 92.3055 35.494C92.2875 35.17 92.2875 34.756 92.3055 34.252C92.3055 34.108 92.3955 34 92.5395 33.892C92.6835 33.802 92.8635 33.748 93.0795 33.748C93.1875 33.748 93.7635 33.766 94.8435 33.802C95.9055 33.838 96.4815 33.838 96.5715 33.838ZM97.9755 27.61C97.9035 28.024 97.9215 28.276 98.0115 28.366C98.1015 28.456 98.3535 28.456 98.7495 28.384C99.1275 28.312 99.7575 28.258 100.658 28.222C101.072 28.222 101.666 28.204 102.422 28.168C103.178 28.15 103.736 28.132 104.06 28.114C104.06 28.114 104.564 28.078 105.572 28.006C105.77 28.006 105.914 28.042 106.004 28.132C106.094 28.222 106.13 28.366 106.13 28.582C106.13 28.87 106.112 29.104 106.094 29.284C106.058 29.464 106.022 29.662 105.95 29.878C105.878 30.094 105.752 30.274 105.608 30.418C105.446 30.562 105.248 30.67 104.996 30.742C104.852 30.778 104.69 30.814 104.51 30.814C104.33 30.814 104.132 30.814 103.88 30.778C103.628 30.76 103.448 30.742 103.376 30.742C102.854 30.724 102.188 30.688 101.396 30.634C99.7395 30.544 98.1015 30.436 96.4635 30.31C96.3915 30.31 96.3195 30.292 96.2115 30.238C95.8155 30.076 95.4375 29.698 95.0775 29.104C94.6995 28.528 94.5375 28.042 94.5735 27.646C94.6275 27.07 94.7535 26.512 94.9515 26.008C95.0595 25.684 95.2035 25.486 95.3835 25.414C95.5455 25.342 95.8155 25.324 96.1755 25.396C96.2655 25.414 96.3555 25.432 96.4635 25.432C96.5715 25.432 96.6795 25.432 96.8235 25.414C96.9675 25.414 97.0755 25.396 97.1475 25.396C97.1655 25.396 97.3275 25.396 97.6515 25.396C97.9575 25.396 98.1195 25.396 98.1555 25.396C98.2275 25.396 98.5155 25.414 99.0195 25.45C99.5235 25.486 99.9195 25.486 100.19 25.468C101.018 25.45 101.756 25.378 102.404 25.252C102.566 25.216 102.674 25.144 102.746 25.036C102.8 24.928 102.836 24.766 102.854 24.568C102.854 24.388 102.89 24.244 102.926 24.172C102.926 24.172 102.89 24.136 102.854 24.1C102.8 24.064 102.746 24.028 102.674 23.992C102.602 23.956 102.53 23.92 102.494 23.902C102.242 23.848 101.972 23.812 101.684 23.812C101.36 23.812 100.802 23.812 100.01 23.812C99.2175 23.812 98.6775 23.812 98.3715 23.794C98.1915 23.794 97.8855 23.794 97.4535 23.758C97.0035 23.722 96.6615 23.704 96.4455 23.704C95.9055 23.74 95.3295 23.812 94.6995 23.956C94.5555 23.992 94.4295 23.992 94.3575 23.956C94.2855 23.92 94.2495 23.83 94.2495 23.686C94.2675 22.48 94.3035 21.688 94.3575 21.292C94.3935 20.95 94.5195 20.698 94.6995 20.554C94.8795 20.41 95.1495 20.338 95.5095 20.338C97.2735 20.302 98.7495 20.428 99.9555 20.734C100.064 20.77 100.208 20.788 100.352 20.806C100.496 20.824 100.64 20.842 100.748 20.842C100.856 20.842 101 20.842 101.18 20.842C101.36 20.842 101.486 20.86 101.576 20.86C101.702 20.86 102.044 20.878 102.584 20.896C103.124 20.914 103.52 20.932 103.772 20.95C104.006 20.968 104.33 21.004 104.744 21.058C105.14 21.112 105.518 21.184 105.842 21.292C106.13 21.4 106.364 21.562 106.526 21.796C106.904 22.426 107.012 23.29 106.85 24.406C106.814 24.64 106.724 24.982 106.616 25.432C106.49 25.882 106.418 26.224 106.382 26.458C106.31 26.854 106.148 27.142 105.896 27.322C105.644 27.502 105.302 27.61 104.906 27.664C103.97 27.808 103.034 27.88 102.098 27.88H101.792C101.432 27.88 101.054 27.862 100.658 27.826C100.262 27.79 99.7935 27.754 99.2895 27.7C98.7855 27.664 98.4075 27.628 98.1735 27.592C98.1555 27.592 98.0835 27.61 97.9755 27.61Z" fill="#578246"/>
<path d="M41.2325 34.848C41.1965 35.028 41.1425 35.496 41.0705 36.234C40.9985 36.972 40.9625 37.404 40.9445 37.512C40.8905 37.782 40.7285 37.944 40.4765 37.98C40.2065 38.034 39.5945 38.07 38.6225 38.088C38.4785 38.088 38.3885 38.052 38.3165 37.98C38.2445 37.908 38.1905 37.8 38.1905 37.656C38.1725 37.35 38.1725 37.062 38.1905 36.792C38.1905 36.54 38.1905 36.306 38.1905 36.09C38.1725 35.874 38.1545 35.694 38.1185 35.532C38.0825 35.388 38.0285 35.262 37.9385 35.154C37.8305 35.064 37.7045 35.01 37.5425 34.974C37.3265 34.938 36.4445 34.902 34.8965 34.848C33.3485 34.812 32.4125 34.776 32.0885 34.776C31.8725 34.776 31.7105 34.65 31.6025 34.38C31.3685 33.876 31.3505 33.264 31.5485 32.526C31.5665 32.4 31.7285 32.31 32.0345 32.238C32.0705 32.22 32.4305 32.22 33.1145 32.22C33.7985 32.22 34.1585 32.22 34.1945 32.22C34.5725 32.202 35.6885 32.166 37.5245 32.13C39.3605 32.094 40.4225 32.058 40.7465 32.04C41.1065 32.04 42.1145 32.022 43.7525 32.004C45.3905 32.004 46.3085 31.986 46.5065 31.986C46.7585 31.986 46.9745 32.148 47.1365 32.508C47.3885 33.048 47.4425 33.57 47.2985 34.074C47.2445 34.254 47.1005 34.398 46.8665 34.488C46.5965 34.596 45.6605 34.686 44.0585 34.722C42.4385 34.758 41.6105 34.794 41.5385 34.794L41.2325 34.848ZM37.5965 23.436C39.0545 23.346 39.8645 23.292 40.0445 23.274C40.3505 23.274 40.6925 23.382 41.0525 23.562C41.1245 23.598 41.1965 23.688 41.2685 23.796C41.3225 23.904 41.3585 24.012 41.3585 24.084C41.3405 24.84 41.4485 25.488 41.6645 26.064C41.7545 26.352 41.9525 26.532 42.2405 26.604C43.0685 26.802 44.1305 27.072 45.3905 27.432C45.6065 27.504 45.7505 27.576 45.8405 27.666C45.9125 27.774 45.9125 27.918 45.8225 28.116C45.7505 28.26 45.6965 28.44 45.6605 28.692C45.6065 28.944 45.5705 29.106 45.5525 29.178C45.4445 29.556 45.2285 29.826 44.9405 29.988C44.6345 30.15 44.2385 30.258 43.7705 30.312C43.6985 30.33 43.4645 30.366 43.1045 30.438C42.7445 30.51 42.4565 30.528 42.2765 30.528C41.9885 30.528 41.7185 30.438 41.4305 30.222C41.0885 29.97 40.7825 29.664 40.5125 29.304C40.0985 28.8 39.5945 28.44 38.9825 28.188C38.7305 28.08 38.4605 28.098 38.1365 28.224C37.5245 28.476 36.7685 28.818 35.9045 29.25C35.8685 29.268 35.8145 29.286 35.7605 29.304C35.5085 29.448 35.3105 29.538 35.1665 29.592C35.0225 29.664 34.8245 29.718 34.5905 29.772C34.3385 29.826 34.1225 29.844 33.9065 29.826C33.6365 29.808 33.4565 29.754 33.3665 29.682C33.2585 29.61 33.2045 29.466 33.1685 29.232C33.1325 29.016 33.0785 28.818 33.0065 28.602C32.7185 27.81 32.9885 27.216 33.8345 26.838C35.9225 25.902 37.0025 25.398 37.0925 25.362C37.3085 25.272 37.4705 25.146 37.5425 24.984C37.6145 24.822 37.6685 24.624 37.6865 24.372C37.6865 24.336 37.6505 24.03 37.5965 23.436ZM65.3165 28.782C65.2985 29.538 65.1185 30.06 64.7765 30.348C64.6325 30.456 64.4525 30.546 64.2365 30.582C64.0205 30.618 63.8225 30.636 63.6605 30.618H63.4265L63.0305 30.51C62.7785 30.456 62.6705 30.294 62.6705 30.042C62.6705 28.026 62.6705 26.64 62.6345 25.92C62.5805 25.128 62.5625 24.156 62.5625 23.004C62.5625 22.77 62.6345 22.572 62.8145 22.41C62.9765 22.266 63.1925 22.176 63.4445 22.176L64.7225 22.302L64.9025 22.446C64.9745 22.5 65.0645 22.608 65.2085 22.77C65.3345 22.932 65.4065 23.094 65.4065 23.238V25.02C65.3885 25.02 65.3705 25.236 65.3705 25.65C65.3705 26.082 65.3525 26.64 65.3525 27.324C65.3345 28.008 65.3165 28.494 65.3165 28.782ZM61.3565 25.182C61.6985 25.254 61.9325 25.344 62.0585 25.452C62.1845 25.56 62.2565 25.776 62.2925 26.064C62.2925 26.208 62.3105 26.424 62.3105 26.712V27.198C62.3105 27.504 62.1125 27.72 61.6985 27.864C61.4105 27.972 61.0685 28.044 60.6725 28.098C60.2045 28.17 59.9345 28.008 59.8625 27.612C59.6825 26.856 59.7905 26.1 60.2225 25.344C60.2585 25.308 60.3125 25.272 60.3845 25.236C60.4565 25.218 60.5825 25.2 60.7445 25.182C60.8885 25.164 60.9965 25.146 61.0325 25.128C61.0325 25.128 61.1405 25.146 61.3565 25.182ZM54.4265 24.786C53.7785 24.642 52.9685 24.66 51.9965 24.84C51.0245 25.02 50.3405 25.11 49.9805 25.092C50.1065 24.012 50.1965 23.238 50.2685 22.77C51.2225 22.644 51.7265 22.572 51.7985 22.572C53.4185 22.482 54.4625 22.446 54.9665 22.464C55.2185 22.482 55.4705 22.518 55.7225 22.554C55.9745 22.608 56.2985 22.68 56.6945 22.77C57.0725 22.878 57.3245 22.932 57.4685 22.95C57.9005 23.058 58.0625 23.364 57.9185 23.85C57.7745 24.336 57.6665 24.678 57.5945 24.894C57.5225 25.11 57.3785 25.38 57.1985 25.74C57.0185 26.1 56.8025 26.388 56.5505 26.622C56.4785 26.694 56.3885 26.784 56.2805 26.892C56.1545 27 56.0645 27.09 56.0285 27.126C55.9925 27.162 55.9385 27.216 55.9025 27.288C55.8665 27.36 55.8485 27.432 55.8665 27.468C55.8845 27.522 55.9205 27.576 55.9925 27.648C56.0465 27.72 56.1365 27.792 56.2625 27.864C56.3345 27.918 56.4425 28.026 56.6225 28.17C56.7845 28.314 56.8925 28.422 56.9285 28.476C57.0905 28.71 57.3065 28.944 57.5585 29.196C57.8105 29.448 58.0085 29.682 58.1705 29.916C58.4585 30.348 58.4045 30.672 57.9725 30.888C57.8285 30.978 57.6305 31.104 57.3785 31.284C57.1265 31.464 56.9465 31.572 56.8565 31.626C56.7665 31.698 56.6945 31.734 56.6225 31.752C56.5505 31.77 56.4605 31.77 56.3705 31.734C56.2805 31.698 56.2265 31.68 56.1905 31.662C56.1545 31.662 56.0825 31.608 55.9565 31.518C55.8305 31.446 55.7585 31.392 55.7405 31.374C55.6505 31.338 55.5965 31.302 55.5785 31.266C55.5425 31.23 55.5245 31.212 55.5245 31.194C55.5245 31.176 55.4885 31.122 55.4345 31.05C55.3625 30.978 55.2725 30.87 55.1465 30.744C55.0925 30.708 55.0025 30.6 54.8585 30.402C54.7145 30.222 54.5705 30.06 54.4625 29.952C54.1025 29.592 53.7065 29.43 53.2745 29.43C52.8425 29.43 52.3205 29.646 51.6725 30.078C51.3125 30.312 50.9345 30.618 50.5385 30.996C50.1785 31.32 49.9625 31.248 49.8545 30.798C49.6205 29.862 49.4945 29.286 49.4585 29.052C49.3865 28.656 49.4405 28.296 49.6205 27.99C49.8005 27.702 50.1065 27.486 50.5205 27.342C51.1325 27.162 51.7085 26.91 52.2305 26.55C52.7345 26.19 53.3285 25.722 54.0125 25.128C54.0125 25.128 54.1565 25.02 54.4265 24.786ZM59.5025 36.63C59.7905 36.63 60.0425 36.522 60.2585 36.27C60.4745 36.036 60.5825 35.748 60.5825 35.388C60.5825 34.884 60.2945 34.578 59.7545 34.452C59.1605 34.344 57.9905 34.272 56.2445 34.272H56.2265C56.0465 34.272 55.9025 34.308 55.7765 34.362C55.6505 34.434 55.5425 34.524 55.4705 34.65C55.3985 34.776 55.3445 34.884 55.3085 34.974C55.2725 35.082 55.2365 35.208 55.2005 35.388C55.1645 35.478 55.1645 35.55 55.1645 35.622C55.1645 35.82 55.2185 35.982 55.3625 36.09C55.5065 36.216 55.6685 36.288 55.8845 36.324C56.0825 36.378 56.3525 36.414 56.7125 36.45C57.0545 36.486 57.3605 36.522 57.6305 36.522C57.8825 36.54 58.2245 36.558 58.6385 36.576C59.0525 36.612 59.3225 36.63 59.4485 36.63H59.5025ZM56.8565 32.436C57.5405 32.436 58.3685 32.508 59.3045 32.616C60.2405 32.724 61.0325 32.868 61.6805 33.048C62.7785 33.372 63.3905 33.948 63.5165 34.776C63.5525 34.992 63.5705 35.19 63.5705 35.37C63.5705 36.18 63.2465 36.828 62.6165 37.296C62.1845 37.62 61.8245 37.89 61.5365 38.07C61.2485 38.25 60.9065 38.43 60.4745 38.592C60.0425 38.772 59.6105 38.862 59.1785 38.862C58.9985 38.862 58.5665 38.898 57.8645 38.934C57.1625 38.97 56.6945 38.988 56.4605 38.988C56.1185 38.988 55.8125 38.97 55.5605 38.916C55.4885 38.916 55.4165 38.916 55.3085 38.88C54.8045 38.808 54.4085 38.736 54.1565 38.682C53.8865 38.628 53.5625 38.52 53.1845 38.34C52.8065 38.178 52.4825 37.962 52.2305 37.692C51.7445 37.224 51.5105 36.792 51.5105 36.378C51.5105 35.55 51.6185 34.92 51.8705 34.506C52.5365 33.39 53.9225 32.706 56.0105 32.49C56.2805 32.454 56.5685 32.436 56.8565 32.436ZM88.8855 23.184C88.9215 23.436 88.9575 23.994 88.9755 24.894C88.9755 25.794 88.9755 26.352 88.9395 26.568C88.9395 26.64 88.9575 26.748 88.9935 26.892C89.0295 27.036 89.0655 27.108 89.0655 27.108C89.0835 27.198 89.2635 27.306 89.5875 27.432C89.6595 27.486 89.8035 27.522 89.9835 27.558C90.1635 27.594 90.2895 27.63 90.3615 27.648C90.5595 27.72 90.6855 27.81 90.7395 27.918C90.7755 28.026 90.7755 28.188 90.7395 28.386C90.5775 29.016 90.1995 29.394 89.6055 29.538C89.4975 29.574 89.3895 29.574 89.2995 29.556C89.1915 29.538 89.1375 29.52 89.1195 29.484C89.0835 29.466 89.0655 29.466 89.0295 29.484C88.9935 29.52 89.0115 29.592 89.0655 29.718C89.1015 29.934 89.1195 30.474 89.1015 31.302C89.0655 32.148 88.9935 32.67 88.8855 32.868C88.7235 33.138 88.5975 33.3 88.4895 33.354C87.9315 33.66 87.3915 33.696 86.8875 33.462C86.7435 33.408 86.6535 33.282 86.6355 33.102C86.5995 32.922 86.6175 32.76 86.6535 32.598C86.6535 32.382 86.6535 31.806 86.6355 30.888C86.6175 29.97 86.6175 29.466 86.6175 29.376C86.6355 26.172 86.6895 24.138 86.7795 23.238C86.8155 22.878 87.0135 22.68 87.3915 22.662C87.6075 22.662 87.8415 22.644 88.0755 22.608C88.3995 22.572 88.5975 22.572 88.6695 22.608C88.7415 22.662 88.7775 22.77 88.8135 22.914C88.8315 23.058 88.8495 23.148 88.8855 23.184ZM85.2855 31.05C85.3395 31.518 85.3395 31.824 85.2675 31.95C85.1955 32.094 85.0335 32.148 84.7815 32.148C83.8635 32.256 81.8295 32.292 78.6615 32.22C78.3195 32.22 77.2035 32.238 75.3135 32.274C74.9355 32.292 74.6655 32.184 74.4855 31.932C74.3055 31.698 74.2695 31.374 74.3415 30.978L74.3775 30.69C74.3775 30.618 74.3775 30.564 74.3955 30.528C74.4135 30.51 74.4855 30.474 74.5935 30.402C74.6295 30.366 74.6835 30.348 74.7195 30.33L78.1755 29.916C78.3915 29.268 78.6255 28.818 78.8775 28.584C78.8955 28.584 78.9135 28.566 78.9495 28.566C77.9775 28.422 76.9695 28.152 75.8895 27.756C74.8815 27.396 74.3595 26.82 74.3235 26.046C74.2515 25.038 74.5755 24.282 75.3315 23.796C75.7455 23.526 76.0875 23.31 76.3575 23.166C76.6275 23.022 76.9695 22.878 77.3835 22.752C77.7975 22.644 78.2115 22.59 78.6075 22.59C78.7695 22.608 79.0395 22.608 79.4175 22.608C79.7955 22.608 80.1375 22.626 80.4255 22.644C80.7135 22.662 80.9835 22.698 81.2355 22.752C81.2715 22.77 81.3795 22.806 81.5775 22.842C81.7755 22.896 81.9015 22.932 81.9555 22.932C81.9915 22.95 82.1175 22.986 82.2975 23.022C82.4775 23.076 82.5855 23.112 82.6575 23.148C82.7295 23.184 82.8375 23.22 82.9815 23.274C83.1255 23.346 83.2515 23.4 83.3415 23.436C83.4135 23.49 83.5215 23.544 83.6295 23.616C83.7375 23.688 83.8455 23.778 83.9355 23.85C84.0255 23.94 84.1155 24.03 84.2055 24.12C84.5655 24.552 84.7455 24.912 84.7635 25.236C84.7815 25.56 84.6015 25.974 84.2415 26.514C83.6655 27.306 83.1075 27.864 82.5675 28.188C82.0095 28.512 81.3075 28.656 80.4795 28.656H80.4255C80.4795 28.746 80.5335 28.908 80.6055 29.16C80.6595 29.412 80.7135 29.556 80.7675 29.628C80.8395 29.772 81.1455 29.862 81.6495 29.916C82.1535 29.97 82.6935 30.006 83.2695 30.024C83.8275 30.042 84.1695 30.06 84.2775 30.078C84.5295 30.168 84.6555 30.204 84.6915 30.204C84.9435 30.312 85.1055 30.402 85.1775 30.51C85.2495 30.618 85.2855 30.798 85.2855 31.05ZM79.8675 27H80.0475H80.2275C80.5335 27 80.7675 26.928 80.9295 26.784C81.0735 26.64 81.2175 26.388 81.3255 26.028C81.4515 25.56 81.2355 25.254 80.6955 25.11C79.9755 24.93 79.1295 24.768 78.1935 24.642C77.9055 24.606 77.6715 24.696 77.4555 24.876C77.2395 25.056 77.1135 25.308 77.0775 25.596C77.0055 26.136 77.2575 26.478 77.8335 26.622C78.0315 26.694 78.3015 26.748 78.6435 26.82C78.9675 26.892 79.2555 26.928 79.5075 26.964C79.7415 27 79.8675 27.018 79.8675 27ZM81.7755 35.532H83.6295H85.6095C87.3015 35.532 88.4175 35.55 88.9395 35.55C88.9755 35.55 89.0295 35.568 89.0655 35.568C89.1015 35.586 89.1195 35.604 89.1555 35.604C89.1735 35.622 89.1915 35.64 89.2275 35.676L89.2815 35.766C89.2815 35.784 89.2995 35.82 89.3175 35.856C89.3175 35.91 89.3355 35.946 89.3355 35.964C89.3355 35.982 89.3535 36.018 89.3715 36.072C89.3715 36.126 89.3895 36.162 89.3895 36.162C89.4075 36.288 89.4255 36.414 89.4255 36.54C89.4255 37.08 89.2995 37.548 89.0835 37.98C89.0115 38.106 88.8675 38.196 88.6155 38.232C88.3635 38.268 87.4635 38.304 85.9155 38.304C84.3675 38.322 83.4495 38.34 83.1615 38.376C83.0895 38.394 83.0175 38.394 82.9635 38.394C82.6575 38.394 82.0095 38.412 81.0195 38.43C80.0295 38.448 79.3095 38.466 78.8595 38.484C78.7515 38.484 78.5535 38.502 78.3015 38.52C78.0495 38.538 77.8515 38.538 77.7255 38.538C77.3115 38.538 76.9695 38.466 76.6995 38.304C76.6275 38.268 76.5555 38.178 76.4835 38.07C76.4115 37.962 76.3755 37.872 76.3755 37.764C76.3395 37.224 76.2855 36.36 76.2315 35.136C76.1595 33.93 76.1235 33.174 76.1235 32.886H76.1415C76.3755 32.886 76.6095 32.886 76.8255 32.868C76.8435 32.868 76.9335 32.868 77.0775 32.832C77.2215 32.814 77.3115 32.796 77.3835 32.796C77.5995 32.796 77.9235 32.868 78.3555 33.012C78.4995 33.066 78.5715 33.156 78.5715 33.282C78.5715 33.336 78.5535 33.408 78.5535 33.498C78.5535 33.606 78.5535 33.678 78.5535 33.732V34.11V34.47V35.01V35.532H81.7755ZM96.5715 35.838C96.5715 35.694 96.6075 35.514 96.6795 35.262C96.7515 35.01 96.7875 34.812 96.8055 34.668C96.8235 34.074 96.8415 33.678 96.8775 33.48C96.8775 33.336 96.9495 33.21 97.0575 33.12C97.1655 33.048 97.2915 33.012 97.4535 33.012C97.7955 33.03 98.1915 33.066 98.6415 33.102C98.7855 33.138 98.8755 33.228 98.8755 33.39C98.8575 33.966 98.8575 34.38 98.8755 34.632C98.8755 34.812 98.9295 35.136 99.0015 35.568C99.0015 35.64 99.0375 35.694 99.1095 35.712C99.1635 35.748 99.2715 35.784 99.4335 35.856C99.5955 35.928 99.7395 35.964 99.8475 36C99.9555 36.036 100.082 36.054 100.19 36.054C100.442 36.09 100.856 36.054 101.432 35.946C101.468 35.946 101.504 35.892 101.54 35.82C101.576 35.748 101.612 35.658 101.63 35.586C101.63 35.442 101.648 35.172 101.684 34.812C101.72 34.452 101.756 34.182 101.792 33.984C101.828 33.732 101.918 33.498 102.08 33.282C102.116 33.246 102.332 33.174 102.764 33.084C103.268 32.976 103.574 33.192 103.682 33.714C103.754 34.038 103.772 34.452 103.736 34.956C103.718 35.136 104.186 35.316 105.158 35.46C106.112 35.622 106.796 35.712 107.21 35.712H107.984C108.128 35.73 108.218 35.784 108.254 35.892C108.47 36.45 108.578 36.828 108.614 37.008C108.65 37.296 108.578 37.512 108.434 37.692C108.29 37.872 108.056 37.98 107.732 38.016C107.624 38.034 107.246 38.034 106.634 38.034C106.004 38.034 105.356 38.034 104.69 38.034C104.006 38.034 103.646 38.016 103.574 38.016C103.322 38.034 102.674 38.052 101.648 38.052C100.622 38.052 99.8295 38.07 99.2895 38.07C99.1275 38.088 98.8755 38.106 98.5515 38.142C98.2275 38.178 97.9755 38.196 97.8315 38.196C97.3275 38.196 95.7255 38.124 93.0255 37.962H92.9535C92.9175 37.962 92.8815 37.944 92.8635 37.944C92.6295 37.98 92.4855 37.962 92.4135 37.908C92.3415 37.854 92.3055 37.71 92.3055 37.494C92.2875 37.17 92.2875 36.756 92.3055 36.252C92.3055 36.108 92.3955 36 92.5395 35.892C92.6835 35.802 92.8635 35.748 93.0795 35.748C93.1875 35.748 93.7635 35.766 94.8435 35.802C95.9055 35.838 96.4815 35.838 96.5715 35.838ZM97.9755 29.61C97.9035 30.024 97.9215 30.276 98.0115 30.366C98.1015 30.456 98.3535 30.456 98.7495 30.384C99.1275 30.312 99.7575 30.258 100.658 30.222C101.072 30.222 101.666 30.204 102.422 30.168C103.178 30.15 103.736 30.132 104.06 30.114C104.06 30.114 104.564 30.078 105.572 30.006C105.77 30.006 105.914 30.042 106.004 30.132C106.094 30.222 106.13 30.366 106.13 30.582C106.13 30.87 106.112 31.104 106.094 31.284C106.058 31.464 106.022 31.662 105.95 31.878C105.878 32.094 105.752 32.274 105.608 32.418C105.446 32.562 105.248 32.67 104.996 32.742C104.852 32.778 104.69 32.814 104.51 32.814C104.33 32.814 104.132 32.814 103.88 32.778C103.628 32.76 103.448 32.742 103.376 32.742C102.854 32.724 102.188 32.688 101.396 32.634C99.7395 32.544 98.1015 32.436 96.4635 32.31C96.3915 32.31 96.3195 32.292 96.2115 32.238C95.8155 32.076 95.4375 31.698 95.0775 31.104C94.6995 30.528 94.5375 30.042 94.5735 29.646C94.6275 29.07 94.7535 28.512 94.9515 28.008C95.0595 27.684 95.2035 27.486 95.3835 27.414C95.5455 27.342 95.8155 27.324 96.1755 27.396C96.2655 27.414 96.3555 27.432 96.4635 27.432C96.5715 27.432 96.6795 27.432 96.8235 27.414C96.9675 27.414 97.0755 27.396 97.1475 27.396C97.1655 27.396 97.3275 27.396 97.6515 27.396C97.9575 27.396 98.1195 27.396 98.1555 27.396C98.2275 27.396 98.5155 27.414 99.0195 27.45C99.5235 27.486 99.9195 27.486 100.19 27.468C101.018 27.45 101.756 27.378 102.404 27.252C102.566 27.216 102.674 27.144 102.746 27.036C102.8 26.928 102.836 26.766 102.854 26.568C102.854 26.388 102.89 26.244 102.926 26.172C102.926 26.172 102.89 26.136 102.854 26.1C102.8 26.064 102.746 26.028 102.674 25.992C102.602 25.956 102.53 25.92 102.494 25.902C102.242 25.848 101.972 25.812 101.684 25.812C101.36 25.812 100.802 25.812 100.01 25.812C99.2175 25.812 98.6775 25.812 98.3715 25.794C98.1915 25.794 97.8855 25.794 97.4535 25.758C97.0035 25.722 96.6615 25.704 96.4455 25.704C95.9055 25.74 95.3295 25.812 94.6995 25.956C94.5555 25.992 94.4295 25.992 94.3575 25.956C94.2855 25.92 94.2495 25.83 94.2495 25.686C94.2675 24.48 94.3035 23.688 94.3575 23.292C94.3935 22.95 94.5195 22.698 94.6995 22.554C94.8795 22.41 95.1495 22.338 95.5095 22.338C97.2735 22.302 98.7495 22.428 99.9555 22.734C100.064 22.77 100.208 22.788 100.352 22.806C100.496 22.824 100.64 22.842 100.748 22.842C100.856 22.842 101 22.842 101.18 22.842C101.36 22.842 101.486 22.86 101.576 22.86C101.702 22.86 102.044 22.878 102.584 22.896C103.124 22.914 103.52 22.932 103.772 22.95C104.006 22.968 104.33 23.004 104.744 23.058C105.14 23.112 105.518 23.184 105.842 23.292C106.13 23.4 106.364 23.562 106.526 23.796C106.904 24.426 107.012 25.29 106.85 26.406C106.814 26.64 106.724 26.982 106.616 27.432C106.49 27.882 106.418 28.224 106.382 28.458C106.31 28.854 106.148 29.142 105.896 29.322C105.644 29.502 105.302 29.61 104.906 29.664C103.97 29.808 103.034 29.88 102.098 29.88H101.792C101.432 29.88 101.054 29.862 100.658 29.826C100.262 29.79 99.7935 29.754 99.2895 29.7C98.7855 29.664 98.4075 29.628 98.1735 29.592C98.1555 29.592 98.0835 29.61 97.9755 29.61Z" fill="white"/>
</svg>
