<svg width="333" height="60" viewBox="0 0 333 60" fill="none" xmlns="http://www.w3.org/2000/svg">
<rect width="333" height="60" rx="30" fill="#99C08E"/>
<path d="M110.941 27.5189C112.626 28.4012 112.626 30.813 110.941 31.6952L93.04 41.0689C91.4706 41.8908 89.5894 40.7524 89.5894 38.9808L89.5894 20.2334C89.5894 18.4618 91.4706 17.3234 93.04 18.1452L110.941 27.5189Z" fill="white"/>
<path d="M157.174 25.582C157.051 24.1465 155.984 23.2852 154.084 23.2852C152.197 23.2852 151.227 24.1055 151.213 25.2266C151.186 26.457 152.389 27.0586 154.166 27.4414L155.889 27.8516C159.703 28.6855 161.918 30.5859 161.932 33.7578C161.918 37.5039 159.006 39.7598 154.084 39.7734C149.148 39.7598 145.963 37.5449 145.881 32.9922H150.365C150.475 34.9062 151.91 35.8906 154.029 35.8906C155.998 35.8906 157.174 35.0293 157.201 33.7578C157.174 32.6094 156.162 32.0078 153.975 31.5156L151.896 31.0234C148.492 30.2305 146.4 28.5352 146.4 25.5547C146.387 21.877 149.627 19.4297 154.111 19.4297C158.678 19.4297 161.617 21.918 161.658 25.582H157.174ZM172.596 24.6523V28.043H169.889V34.8516C169.902 35.7812 170.367 36.0684 171.146 36.082C171.529 36.1094 172.268 36.0684 172.787 36.0273V39.5547C172.336 39.623 171.57 39.7051 170.49 39.7188C167.223 39.7051 165.268 38.3652 165.295 35.3711V28.043H163.299V24.6523H165.295V21.0977H169.889V24.6523H172.596ZM174.291 35.3711C174.277 32.0762 176.834 30.9004 179.787 30.7227C180.867 30.6543 182.713 30.5859 183.342 30.5586V29.3555C183.342 28.3164 182.576 27.7285 181.318 27.7422C180.102 27.7285 179.309 28.2754 179.131 29.2461H174.838C175.043 26.6211 177.258 24.4609 181.428 24.4609C185.092 24.4609 187.949 26.1973 187.963 29.4102V39.5H183.615V37.4219H183.506C182.699 38.9258 181.264 39.7598 179.186 39.7734C176.342 39.7598 174.277 38.3105 174.291 35.3711ZM178.666 35.1797C178.652 36.1777 179.459 36.7109 180.58 36.7109C182.152 36.7109 183.383 35.6855 183.369 34.2227V33.2656C182.809 33.2793 181.25 33.3613 180.553 33.4297C179.391 33.5527 178.652 34.1953 178.666 35.1797ZM190.779 39.5V24.6523H195.264V27.332H195.4C195.947 25.3906 197.26 24.4473 198.9 24.4336C199.324 24.4473 199.83 24.5156 200.213 24.5977V28.6172C199.775 28.4805 198.941 28.3848 198.381 28.3984C196.658 28.3848 195.387 29.5879 195.4 31.3789V39.5H190.779ZM211.068 24.6523V28.043H208.361V34.8516C208.375 35.7812 208.84 36.0684 209.619 36.082C210.002 36.1094 210.74 36.0684 211.26 36.0273V39.5547C210.809 39.623 210.043 39.7051 208.963 39.7188C205.695 39.7051 203.74 38.3652 203.768 35.3711V28.043H201.771V24.6523H203.768V21.0977H208.361V24.6523H211.068ZM218.861 19.7031L218.451 33.457H214.541L214.131 19.7031H218.861ZM214.021 37.2852C213.994 35.9453 215.129 34.8516 216.482 34.8516C217.795 34.8516 218.957 35.9453 218.971 37.2852C218.957 38.666 217.795 39.7734 216.482 39.7734C215.129 39.7734 213.994 38.666 214.021 37.2852Z" fill="white"/>
</svg>
